SplineFontDB: 3.0
FontName: Kristi
FullName: Kristi
FamilyName: Kristi
Weight: Medium
Copyright: Copyright (c) 2010, Birgit Pulk (birgitpulk@gmail.com). All rights reserved. Licenced under SIL OFL v1.1
Version: 1.003
ItalicAngle: -15
UnderlinePosition: 0
UnderlineWidth: 0
Ascent: 1638
Descent: 410
LayerCount: 2
Layer: 0 0 "Back"  1
Layer: 1 1 "Fore"  0
NeedsXUIDChange: 1
FSType: 0
OS2Version: 0
OS2_WeightWidthSlopeOnly: 0
OS2_UseTypoMetrics: 1
CreationTime: 1292273468
ModificationTime: 1292574688
PfmFamily: 65
TTFWeight: 400
TTFWidth: 5
LineGap: 0
VLineGap: 0
OS2TypoAscent: 1272
OS2TypoAOffset: 0
OS2TypoDescent: -776
OS2TypoDOffset: 0
OS2TypoLinegap: 512
OS2WinAscent: 1836
OS2WinAOffset: 0
OS2WinDescent: 724
OS2WinDOffset: 0
HheadAscent: 1836
HheadAOffset: 0
HheadDescent: -724
HheadDOffset: 0
OS2Vendor: 'FAT '
Lookup: 6 0 0 "'calt' Contextual Alternates lookup 0"  {"'calt' Contextual Alternates lookup 0-0"  "'calt' Contextual Alternates lookup 0-1"  "'calt' Contextual Alternates lookup 0-2"  "'calt' Contextual Alternates lookup 0-3"  } ['calt' ('DFLT' <'dflt' > 'latn' <'dflt' > ) ]
Lookup: 1 0 0 "Single Substitution lookup 1"  {"Single Substitution lookup 1 subtable"  } []
Lookup: 1 0 0 "ochnglast"  {"ochnglast-1"  } []
Lookup: 1 0 0 "ochangr"  {"ochangr-1"  } []
Lookup: 1 0 0 "Tlower"  {"Tlower-1"  } []
MarkAttachClasses: 1
DEI: 91125
ChainSub2: coverage "'calt' Contextual Alternates lookup 0-3"  0 0 0 1
 1 0 1
  Coverage: 1 T
  FCoverage: 62 a b c d e f g h i j k l m n o p q r s t u v w x y z A O hyphen
 1
  SeqLookup: 0 "Tlower" 
EndFPST
ChainSub2: coverage "'calt' Contextual Alternates lookup 0-2"  0 0 0 1
 1 0 1
  Coverage: 1 o
  FCoverage: 5 space
 1
  SeqLookup: 0 "ochnglast" 
EndFPST
ChainSub2: coverage "'calt' Contextual Alternates lookup 0-1"  0 0 0 1
 1 0 1
  Coverage: 1 o
  FCoverage: 9 i n m k o
 1
  SeqLookup: 0 "ochangr" 
EndFPST
ChainSub2: coverage "'calt' Contextual Alternates lookup 0-0"  0 0 0 1
 1 1 0
  Coverage: 3 s b
  BCoverage: 9 f o t v w

StartChar: A
Encoding: 0 65 0
Width: 631
VWidth: 0
Flags: HMW
HStem: -226 16<420.756 463.648> -179 16<506.714 507.648> 387 75<-8.65132 206.624> 392 101<382.524 456.648 581.648 797.394> 418 91<584.31 835.575> 1163 5<612.648 657.542>
VStem: 376 71<-121.629 108.155> 501 226<896.377 917.6> 565 163<1069.4 1154.91> 613 45<1162.89 1168>
DStem2: -27.6192 6.25416 316.648 379 0.559776 0.828644<-95.3867 442.25 632.437 835.656> 456.648 392 554.648 403 0.241699 0.970351<-424.792 0 139.862 259.734>
LayerCount: 2
Back
SplineSet
734 418 m 0
 754 418 789 419 789 440 c 0
 789 459 776 509 752 509 c 0
 681 509 616 509 532 505 c 1
 574 658 609 783 677 1086 c 0
 678 1091 678 1094 678 1099 c 0
 678 1150 610 1168 563 1168 c 0
 533 1168 520 1155 515 1131 c 2
 451 856 l 1
 365 708 294 592 228 486 c 1
 152 480 64 472 -40 462 c 0
 -59 460 -62 453 -62 443 c 0
 -62 412 -30 391 -5 387 c 0
 16 383 63 380 161 379 c 1
 89 266 19 159 -62 29 c 0
 -77 5 -125 -58 -125 -80 c 0
 -125 -94 -101 -98 -94 -98 c 0
 -82 -98 -69 -93 -61 -85 c 0
 61 57 170 216 267 379 c 1
 312 381 356 386 407 392 c 1
 368 238 326 85 326 -74 c 0
 326 -153 355 -226 414 -226 c 0
 438 -226 458 -208 458 -163 c 0
 458 -123 397 -114 397 -75 c 0
 397 -56 398 -32 405 -6 c 0
 448 180 479 303 505 403 c 1
 567 409 640 415 734 418 c 0
352 530 m 2
 363 550 437 658 451 658 c 0
 459 658 462 653 462 648 c 0
 455 598 445 549 434 500 c 1
 332 493 l 1
 352 530 l 2
EndSplineSet
Fore
SplineSet
508 -163 m 1,0,1
 508 -226 508 -226 464 -226 c 0,2,3
 440 -226 440 -226 421 -210 c 0,4,5
 376 -171 376 -171 376 -88.5 c 128,-1,6
 376 -6 376 -6 387.5 80 c 128,-1,7
 399 166 399 166 457 392 c 1,8,9
 365 381 365 381 317 379 c 1,10,11
 158 112 158 112 -11 -85 c 1,12,13
 -24 -97 -24 -97 -48.5 -96.5 c 128,-1,14
 -73 -96 -73 -96 -75 -80 c 1,15,16
 -75 -63 -75 -63 -46 -20 c 128,-1,17
 -17 23 -17 23 -12 29 c 2,18,-1
 211 379 l 1,19,20
 58 380 58 380 23 395 c 128,-1,21
 -12 410 -12 410 -12 443 c 0,22,23
 -12 458 -12 458 10 462 c 1,24,25
 174 478 174 478 278 486 c 1,26,-1
 501 856 l 1,27,-1
 565 1131 l 2,28,29
 573 1167 573 1167 604 1167.5 c 128,-1,30
 635 1168 635 1168 658 1163 c 0,31,32
 728 1147 728 1147 728 1099 c 0,33,34
 728 1092 728 1092 695 945 c 128,-1,35
 662 798 662 798 582 505 c 1,36,37
 665 509 665 509 802 509 c 1,38,39
 812 508 812 508 825 489.5 c 128,-1,40
 838 471 838 471 839 440 c 1,41,42
 838 419 838 419 756 416.5 c 128,-1,43
 674 414 674 414 555 403 c 1,44,45
 447 -14 447 -14 447 -75 c 1,46,47
 449 -91 449 -91 478 -119 c 1,48,49
 507 -142 507 -142 508 -163 c 1,0,1
402 530 m 2,50,-1
 382 493 l 1,51,-1
 484 500 l 1,52,53
 503 585 503 585 512 648 c 1,54,55
 509 675 509 675 466.5 622.5 c 128,-1,56
 424 570 424 570 402 530 c 2,50,-1
EndSplineSet
Validated: 8408065
EndChar

StartChar: AE
Encoding: 1 198 1
Width: 994
VWidth: 0
Flags: HW
HStem: -226 21G<505 539> -31 95<524 884.59> 395 67<42.939 259.249> 403 102<635 890.117> 1045 81<762.676 1066.81> 1148 20G<646 700.5>
VStem: 430 72<-122.512 -31.5015>
DStem2: 344.407 -226 446.295 -226 0.258819 0.965926<328.975 639.801 782.904 877.681> 359.008 -226 446.295 -226 0.258819 0.965926<322.822 628.775 777.524 898.06>
LayerCount: 2
Back
SplineSet
734 418 m 0
 754 418 789 419 789 440 c 0
 789 459 776 509 752 509 c 0
 681 509 616 509 532 505 c 1
 572 650 606 771 667 1043 c 1
 717 1044 774 1046 832 1046 c 0
 857 1046 881 1045 905 1045 c 0
 940 1045 965 1046 965 1065 c 0
 965 1081 952 1126 926 1126 c 0
 832 1129 748 1131 665 1132 c 1
 643 1158 597 1168 563 1168 c 0
 533 1168 520 1155 515 1131 c 2
 451 856 l 1
 365 708 294 592 228 486 c 1
 152 480 64 472 -40 462 c 0
 -59 460 -62 453 -62 443 c 0
 -62 412 -30 391 -5 387 c 0
 16 383 63 380 161 379 c 1
 89 266 19 159 -62 29 c 0
 -77 5 -125 -58 -125 -80 c 0
 -125 -94 -101 -98 -94 -98 c 0
 -82 -98 -69 -93 -61 -85 c 0
 61 57 170 216 267 379 c 1
 312 381 356 386 407 392 c 1
 368 238 326 85 326 -74 c 0
 326 -153 355 -226 414 -226 c 0
 438 -226 458 -208 458 -163 c 0
 458 -123 397 -114 397 -75 c 0
 397 -62 397 -47 399 -31 c 1
 475 -29 552 -24 635 -24 c 0
 666 -24 694 -25 725 -25 c 0
 749 -25 785 -25 785 -7 c 0
 785 9 773 57 746 57 c 0
 628 60 526 63 421 64 c 1
 455 212 482 316 505 403 c 1
 567 409 640 415 734 418 c 0
352 530 m 2
 363 550 437 658 451 658 c 0
 459 658 462 653 462 648 c 0
 455 598 445 549 434 500 c 1
 332 493 l 1
 352 530 l 2
EndSplineSet
Fore
SplineSet
561 -163 m 0,0,1
 561 -226 561 -226 517 -226 c 0,2,3
 493 -226 493 -226 475 -210 c 0,4,5
 430 -171 430 -171 429.5 -88.5 c 128,-1,6
 429 -6 429 -6 441 80 c 128,-1,7
 453 166 453 166 510 392 c 1,8,9
 418 381 418 381 370 379 c 1,10,11
 211 112 211 112 42 -85 c 1,12,13
 29 -97 29 -97 4.5 -96.5 c 128,-1,14
 -20 -96 -20 -96 -22 -80 c 1,15,16
 -22 -63 -22 -63 8 -20 c 1,17,-1
 264 379 l 1,18,19
 111 380 111 380 76 395 c 128,-1,20
 41 410 41 410 41 443 c 0,21,22
 41 458 41 458 63 462 c 1,23,24
 227 478 227 478 331 486 c 1,25,-1
 554 856 l 1,26,-1
 618 1131 l 2,27,28
 626 1167 626 1167 666 1168 c 1,29,30
 735 1166 735 1166 768 1132 c 1,31,32
 885 1131 885 1131 1029 1126 c 0,33,34
 1040 1124 1040 1124 1054 1108 c 0,35,36
 1074 1086 1074 1086 1067 1058 c 1,37,38
 1060 1045 1060 1045 1028 1045 c 2,39,-1
 973 1045 l 1,40,41
 948 1046 948 1046 934.5 1046 c 128,-1,42
 921 1046 921 1046 770 1043 c 1,43,44
 712 784 712 784 635 505 c 1,45,46
 718 509 718 509 855 509 c 1,47,48
 865 508 865 508 878.5 489.5 c 128,-1,49
 892 471 892 471 892 440 c 1,50,51
 891 419 891 419 809 416.5 c 128,-1,52
 727 414 727 414 608 403 c 1,53,54
 561 227 561 227 524 64 c 1,55,56
 603 63 603 63 849 57 c 0,57,58
 861 57 861 57 874.5 39.5 c 128,-1,59
 888 22 888 22 888 -7 c 1,60,61
 887 -24 887 -24 850 -24 c 0,62,63
 794 -24 794 -24 739.5 -24 c 128,-1,64
 685 -24 685 -24 607.5 -27 c 128,-1,65
 530 -30 530 -30 502 -31 c 1,66,67
 500 -47 500 -47 501.5 -69 c 128,-1,68
 503 -91 503 -91 532 -119 c 1,69,70
 561 -142 561 -142 561 -163 c 0,0,1
455 530 m 2,71,-1
 435 493 l 1,72,-1
 537 500 l 1,73,74
 556 585 556 585 565 648 c 1,75,76
 562 676 562 676 519.5 623 c 128,-1,77
 477 570 477 570 455 530 c 2,71,-1
EndSplineSet
Validated: 19489
EndChar

StartChar: B
Encoding: 8 66 8
Width: 570
VWidth: 0
Flags: HMW
HStem: -48 2<137.313 152.898> -9 25<78.7694 241.313> 1078 88<416.239 549.586>
VStem: 380 131<299.055 311.454> 576 80<562.587 788.327>
DStem2: 282.575 868.759 181.313 114 0.258292 0.966067<-423.362 -212.406 44.3499 191.257>
LayerCount: 2
Back
SplineSet
664 1059 m 0
 664 984 554 888 536 870 c 1
 625 870 677 750 677 675 c 0
 677 506 530 250 262 16 c 0
 225 -16 189 -48 158 -48 c 0
 122 -48 85 0 85 32 c 0
 85 109 293 840 366 1083 c 0
 383 1142 454 1166 518 1166 c 0
 586 1166 664 1133 664 1059 c 0
435 1034 m 1
 426 971 416 931 403 888 c 1
 478 931 520 968 571 1078 c 1
 514 1078 477 1058 443 1038 c 1
 435 1034 l 1
571 786 m 0
 472 744 411 696 344 638 c 1
 334 576 213 178 202 114 c 1
 338 196 597 489 597 752 c 0
 597 773 594 789 582 789 c 0
 579 789 574 787 571 786 c 0
EndSplineSet
Fore
SplineSet
643 1059 m 0,0,1
 643 992 643 992 520 874 c 0,2,3
 517 871 517 871 515 870 c 1,4,5
 584 870 584 870 628 785 c 0,6,7
 656 729 656 729 656 675 c 0,8,9
 656 520 656 520 511 311 c 0,10,11
 403 157 403 157 241 16 c 0,12,13
 179 -38 179 -38 161.5 -43 c 128,-1,14
 144 -48 144 -48 137 -48 c 0,15,16
 104 -48 104 -48 84.5 -17.5 c 128,-1,17
 65 13 65 13 64 32 c 1,18,19
 64 111 64 111 283 869 c 2,20,-1
 345 1083 l 2,21,22
 363 1145 363 1145 451 1162 c 0,23,24
 474 1166 474 1166 497 1166 c 0,25,26
 577 1166 577 1166 610 1130.5 c 128,-1,27
 643 1095 643 1095 643 1059 c 0,0,1
414 1034 m 1,28,29
 403 957 403 957 382 888 c 1,30,31
 457 931 457 931 490 975.5 c 128,-1,32
 523 1020 523 1020 550 1078 c 1,33,34
 489 1077 489 1077 422 1038 c 1,35,-1
 414 1034 l 1,28,29
550 786 m 0,36,37
 434 737 434 737 323 638 c 1,38,39
 319 615 319 615 252.5 378.5 c 128,-1,40
 186 142 186 142 181 114 c 1,41,42
 275 170 275 170 380 299 c 0,43,44
 576 539 576 539 576 752 c 1,45,46
 575 788 575 788 561 789 c 0,47,48
 558 789 558 789 550 786 c 0,36,37
EndSplineSet
Validated: 19457
EndChar

StartChar: C
Encoding: 9 67 9
Width: 720
VWidth: 0
Flags: HMW
HStem: -54 80<254.645 488.475> 1011 106<460.648 573.062>
VStem: 106 108<61.3506 465.555> 440 10<578 598> 509 85<697.11 735.48> 581 115<860.964 1006.22> 800 6<293 302>
LayerCount: 2
Back
SplineSet
635 69 m 0
 686 114 806 222 806 293 c 0
 806 299 805 302 800 302 c 0
 785 302 676 198 576 122 c 0
 482 50 418 26 333 26 c 0
 251 26 214 126 214 186 c 0
 214 286 227 365 258 466 c 0
 290 573 426 1011 518 1011 c 0
 555 1011 581 963 581 933 c 0
 581 834 496 653 450 598 c 1
 443 592 440 584 440 578 c 0
 440 565 454 555 467 555 c 0
 528 555 696 941 696 1002 c 0
 696 1091 605 1117 518 1117 c 0
 489 1117 465 1102 446 1085 c 0
 237 889 106 498 106 253 c 0
 106 99 138 -54 347 -54 c 0
 437 -54 546 -10 635 69 c 0
EndSplineSet
Fore
SplineSet
467 555 m 0,0,1
 440 555 440 555 440 578 c 1,2,3
 441 589 441 589 458.5 609.5 c 128,-1,4
 476 630 476 630 509 697 c 0,5,6
 581 844 581 844 581 933 c 0,7,8
 581 949 581 949 572 968 c 0,9,10
 552 1010 552 1010 522 1010 c 0,11,12
 421 1008 421 1008 258 466 c 1,13,14
 214 323 214 323 214 186 c 0,15,16
 214 147 214 147 231 106 c 0,17,18
 265 26 265 26 333 26 c 0,19,20
 452 26 452 26 576 122 c 0,21,22
 620 156 620 156 706 229 c 128,-1,23
 792 302 792 302 800 302 c 1,24,25
 804 301 804 301 806 293 c 1,26,27
 805 220 805 220 635 69 c 1,28,29
 493 -54 493 -54 347 -54 c 0,30,31
 244 -54 244 -54 185 -3 c 0,32,33
 106 66 106 66 106 254 c 128,-1,34
 106 442 106 442 199 691.5 c 128,-1,35
 292 941 292 941 446 1085 c 1,36,37
 481 1116 481 1116 518 1117 c 1,38,39
 696 1117 696 1117 696 1002 c 0,40,41
 696 940 696 940 600.5 747.5 c 128,-1,42
 505 555 505 555 467 555 c 0,0,1
EndSplineSet
Validated: 8408065
EndChar

StartChar: Ccedilla
Encoding: 10 199 10
Width: 720
VWidth: 0
Flags: HW
HStem: -54 80<341.001 484.702> 1010 107<459.471 571.243>
VStem: 106 108<60.9454 465.04> 268 73<-86.8926 -53.4221> 412 64<-236.557 -166.953> 581 115<859.033 1006.63>
LayerCount: 2
Back
Refer: 82 184 N 1 0 0 1 34 0 2
Refer: 9 67 N 1 0 0 1 0 0 2
Fore
SplineSet
467 555 m 0,0,1
 440 555 440 555 440 578 c 1,2,3
 441 589 441 589 458.5 610 c 128,-1,4
 476 631 476 631 509 697 c 0,5,6
 581 844 581 844 581 933 c 1,7,8
 580 949 580 949 572 968 c 0,9,10
 554 1010 554 1010 522.5 1010 c 128,-1,11
 491 1010 491 1010 454 958 c 1,12,13
 369 833 369 833 258 466 c 0,14,15
 214 321 214 321 214 186 c 0,16,17
 214 147 214 147 231 106 c 0,18,19
 265 26 265 26 333 26 c 0,20,21
 452 26 452 26 576 122 c 0,22,23
 617 153 617 153 704 227.5 c 128,-1,24
 791 302 791 302 800 302 c 1,25,26
 804 301 804 301 806 293 c 1,27,28
 805 220 805 220 635 69 c 1,29,30
 487 -54 487 -54 347 -54 c 2,31,-1
 346 -54 l 1,32,33
 341 -61 341 -61 341 -69.5 c 128,-1,34
 341 -78 341 -78 377 -87 c 2,35,-1
 403 -93 l 1,36,37
 476 -115 476 -115 476 -179 c 0,38,39
 476 -199 476 -199 451.5 -232.5 c 128,-1,40
 427 -266 427 -266 394 -266 c 128,-1,41
 361 -266 361 -266 359 -259 c 1,42,43
 360 -254 360 -254 386 -231.5 c 128,-1,44
 412 -209 412 -209 411.5 -195 c 128,-1,45
 411 -181 411 -181 403 -166.5 c 128,-1,46
 395 -152 395 -152 358.5 -141.5 c 128,-1,47
 322 -131 322 -131 314 -128 c 0,48,49
 268 -113 268 -113 268 -83 c 0,50,51
 268 -65 268 -65 276 -47 c 1,52,53
 222 -35 222 -35 185 -3 c 0,54,55
 106 65 106 65 106 253.5 c 128,-1,56
 106 442 106 442 199.5 691.5 c 128,-1,57
 293 941 293 941 446 1085 c 1,58,59
 481 1116 481 1116 518 1117 c 1,60,61
 696 1117 696 1117 696 1002 c 0,62,63
 696 940 696 940 600.5 747.5 c 128,-1,64
 505 555 505 555 467 555 c 0,0,1
EndSplineSet
Validated: 19457
EndChar

StartChar: D
Encoding: 11 68 11
Width: 606
VWidth: 0
Flags: HMW
HStem: -56 37<190 243> 1048 83<491.865 619.139>
VStem: 401 293<343 682> 629 110<725.946 1042.22>
DStem2: 194.544 305.44 243 139 0.303841 0.952723<-143.848 686.063>
LayerCount: 2
Back
SplineSet
107 27 m 1
 142 126 326 747 402 952 c 1
 373 966 378 966 357 974 c 1
 374 1083 445 1131 522 1131 c 0
 626 1131 739 1045 739 906 c 0
 739 862 716 749 694 682 c 0
 580 342 338 77 243 -19 c 0
 220 -42 206 -56 190 -56 c 0
 155 -56 125 -10 107 27 c 1
491 1019 m 1
 491 906 445 795 422 704 c 1
 357 501 288 320 243 139 c 1
 288 186 357 274 401 343 c 0
 536 552 629 771 629 1006 c 0
 629 1030 626 1048 598 1048 c 0
 563 1048 526 1042 491 1019 c 1
EndSplineSet
Fore
SplineSet
402 952 m 1,0,-1
 357 974 l 1,1,2
 375 1087 375 1087 463 1121 c 0,3,4
 491 1131 491 1131 522 1131 c 0,5,6
 608 1131 608 1131 673 1066 c 0,7,8
 738 1002 738 1002 738 922 c 0,9,10
 739 818 739 818 694 682 c 0,11,12
 586 359 586 359 312 54 c 1,13,-1
 243 -19 l 1,14,15
 204 -54 204 -54 190 -56 c 1,16,17
 147 -55 147 -55 107 27 c 1,18,19
 120 64 120 64 237.5 443 c 128,-1,20
 355 822 355 822 402 952 c 1,0,-1
491 1019 m 1,21,22
 491 936 491 936 459.5 831.5 c 128,-1,23
 428 727 428 727 414.5 682.5 c 128,-1,24
 401 638 401 638 337.5 450 c 128,-1,25
 274 262 274 262 243 139 c 1,26,27
 320 220 320 220 394 333 c 0,28,29
 398 339 398 339 401 343 c 0,30,31
 629 696 629 696 629 1006 c 0,32,33
 629 1041 629 1041 610 1047 c 0,34,35
 604 1048 604 1048 598 1048 c 0,36,37
 535 1047 535 1047 491 1019 c 1,21,22
EndSplineSet
Validated: 8391713
EndChar

StartChar: E
Encoding: 12 69 12
Width: 592
VWidth: 0
Flags: HW
HStem: -24 85<153 482.764> 771 94<236.403 279 423 668.893> 1045 81<479 812.045>
DStem2: 279 773 153 63 0.315937 0.94878<-436.269 0 132.783 334.04>
LayerCount: 2
Back
SplineSet
34 -25 m 0
 34 -17.6667 36 -9 40 1 c 0
 44 11 49.3333 20.6667 56 30 c 0
 62.6667 39.3333 69.8333 47.3333 77.5 54 c 0
 85.1667 60.6667 93 64 101 64 c 2
 151 64 l 1
 140 28 l 0
 133.333 7.33333 129 -7 127 -15 c 1
 122 -15 l 2
 116 -15 109.5 -15.5 102.5 -16.5 c 0
 95.5 -17.5 88.6667 -18 82 -18 c 0
 72 -18 63.8333 -16.6667 57.5 -14 c 0
 51.1667 -11.3333 48 -5.33333 48 4 c 0
 48.6667 13.3333 52.8333 32.5 60.5 61.5 c 0
 68.1667 90.5 78.1667 126 90.5 168 c 0
 133 310 l 0
 183.5 473.5 l 0
 237 644 l 0
 278 772 l 1
 272 772 l 1
 252.667 771.333 239 771 231 771 c 0
 229.667 771 229 772.667 229 776 c 0
 229 784.667 230.333 794.167 233 804.5 c 0
 235.667 814.833 239.5 824.5 244.5 833.5 c 0
 249.5 842.5 255.667 850.167 263 856.5 c 0
 270.333 862.833 279 866 289 866 c 2
 309 866 l 1
 339 954 l 0
 369 1043 l 1
 370.333 1050.33 372 1058.33 374 1067 c 0
 376.667 1078.33 380.5 1088.83 385.5 1098.5 c 0
 390.5 1108.17 396.833 1116.33 404.5 1123 c 0
 412.167 1129.67 421.333 1133 432 1133 c 0
 488 1133 543.833 1132.33 599.5 1131 c 0
 655.167 1129.67 714.333 1128 777 1126 c 0
 783.667 1126 789.333 1123.5 794 1118.5 c 0
 798.667 1113.5 802.667 1107.83 806 1101.5 c 0
 809.333 1095.17 811.833 1088.5 813.5 1081.5 c 0
 815.167 1074.5 816 1069 816 1065 c 0
 816 1055.67 810.333 1050 799 1048 c 0
 787.667 1046 773.333 1045 756 1045 c 0
 744 1045 732 1045.17 720 1045.5 c 0
 708 1045.83 695.667 1046 683 1046 c 0
 648.333 1046 614.167 1045.5 580.5 1044.5 c 0
 546.833 1043.5 516 1042.33 488 1041 c 1
 480 1041 l 1
 461 981 l 0
 424 871 l 0
 422 865 l 1
 434 865 445.667 864.667 457 864 c 0
 512.333 863.333 571.667 861.667 635 859 c 0
 641.667 859 647.333 856.333 652 851 c 0
 656.667 845.667 660.667 839.667 664 833 c 0
 667.333 826.333 669.833 819.5 671.5 812.5 c 0
 673.167 805.5 674 800 674 796 c 0
 674 788 669.333 782.833 660 780.5 c 0
 650.667 778.167 642.333 777 635 777 c 0
 616.333 777 598.667 777.333 582 778 c 0
 565.333 778.667 548.333 779 531 779 c 0
 497 779 463.667 778.333 431 777 c 0
 417.667 777 404.667 776.667 392 776 c 1
 388 762 l 0
 359 674 l 0
 351 649.333 346 633.333 344 626 c 0
 342 618.667 337.667 604.667 331 584 c 0
 306 509.5 l 0
 272.5 413.5 l 0
 235.5 306.5 l 0
 198.5 199.5 l 0
 165 103 l 0
 160.333 89 155.667 76 151 64 c 1
 191 63.3333 230.333 62.3333 269 61 c 0
 324.333 59.6667 383.333 58.3333 446 57 c 0
 452.667 57 458.5 54.3333 463.5 49 c 0
 468.5 43.6667 472.5 37.6667 475.5 31 c 0
 478.5 24.3333 480.833 17.3333 482.5 10 c 0
 484.167 2.66667 485 -3 485 -7 c 0
 485 -11.6667 483 -15.1667 479 -17.5 c 0
 475 -19.8333 470 -21.5 464 -22.5 c 0
 458 -23.5 451.5 -24.1667 444.5 -24.5 c 0
 437.5 -24.8333 431 -25 425 -25 c 0
 409.667 -25 394.667 -24.8333 380 -24.5 c 0
 365.333 -24.1667 350.333 -24 335 -24 c 0
 285 -24 236.667 -25.3333 190 -28 c 0
 143.333 -30.6667 97 -32 51 -32 c 0
 39.6667 -32 34 -29.6667 34 -25 c 0
EndSplineSet
Fore
SplineSet
335 -24 m 1,0,-1
 51 -32 l 1,1,2
 35 -31 35 -31 34 -25 c 1,3,4
 35 -4 35 -4 51 23 c 1,5,6
 82 168 82 168 279 773 c 1,7,8
 241 771 241 771 231 771 c 1,9,10
 229 773 229 773 229 776 c 0,11,12
 229 820 229 820 250 842.5 c 128,-1,13
 271 865 271 865 285.5 865.5 c 128,-1,14
 300 866 300 866 310 866 c 1,15,-1
 369 1042 l 1,16,17
 376 1104 376 1104 408 1126 c 0,18,19
 419 1133 419 1133 489 1133 c 128,-1,20
 559 1133 559 1133 777 1126 c 0,21,22
 802 1125 802 1125 813 1083 c 0,23,24
 816 1073 816 1073 816 1065 c 0,25,26
 816 1046 816 1046 766 1045 c 0,27,28
 743 1045 743 1045 719 1045.5 c 128,-1,29
 695 1046 695 1046 646 1046 c 128,-1,30
 597 1046 597 1046 479 1042 c 1,31,-1
 423 865 l 1,32,33
 524 863 524 863 635 859 c 0,34,35
 660 858 660 858 671 814 c 0,36,37
 674 803 674 803 674 796 c 1,38,39
 670 777 670 777 635 777 c 2,40,-1
 531 779 l 1,41,42
 469 779 469 779 394 777 c 1,43,-1
 153 63 l 1,44,45
 210 62 210 62 281 61 c 128,-1,46
 352 60 352 60 446 57 c 0,47,48
 485 56 485 56 485 -7 c 1,49,50
 483 -25 483 -25 446.5 -24.5 c 128,-1,51
 410 -24 410 -24 380 -24 c 2,52,-1
 335 -24 l 1,0,-1
EndSplineSet
Validated: 19457
Colour: ff0000
EndChar

StartChar: Eth
Encoding: 17 208 17
Width: 642
VWidth: 0
Flags: HW
HStem: -56 21G<176.5 205> 599 76<421 511.447> 1048 83<499.604 627.173>
VStem: 637 110<719.032 1044.17>
DStem2: 104.907 -56 198.75 -56 0.258819 0.965926<228.364 661.717 787.903 818.194> 117.584 -56 219.493 -56 0.258819 0.965926<340.948 658.436 784.622 1046.55>
LayerCount: 2
Back
SplineSet
107 27 m 1
 128 87 206 344 280 580 c 1
 267 579 255 578 243 578 c 0
 172 578 142 580 129 583 c 1
 116 590 102 604 102 628 c 0
 102 636 103 642 113 644 c 0
 197 655 258 662 307 667 c 1
 344 784 378 888 402 952 c 1
 373 966 378 966 357 974 c 1
 374 1083 445 1131 522 1131 c 0
 626 1131 739 1045 739 906 c 0
 739 862 716 749 694 682 c 0
 580 342 338 77 243 -19 c 0
 220 -42 206 -56 190 -56 c 0
 155 -56 125 -10 107 27 c 1
479 607 m 0
 443 605 413 602 387 599 c 1
 333 437 280 288 243 139 c 1
 288 186 357 274 401 343 c 0
 536 552 629 771 629 1006 c 0
 629 1030 626 1048 598 1048 c 0
 563 1048 526 1042 491 1019 c 1
 491 906 445 795 422 704 c 1
 413 675 l 1
 439 676 462 677 487 677 c 0
 499 677 505 641 505 625 c 0
 505 609 489 607 479 607 c 0
EndSplineSet
Fore
SplineSet
410 952 m 1,0,-1
 365 974 l 1,1,2
 383 1087 383 1087 471 1121 c 0,3,4
 499 1131 499 1131 530 1131 c 0,5,6
 616 1131 616 1131 682 1067 c 1,7,8
 747 1002 747 1002 747 922 c 0,9,10
 747 818 747 818 702 682 c 0,11,12
 594 359 594 359 320 54 c 1,13,-1
 251 -19 l 1,14,15
 212 -54 212 -54 198 -56 c 1,16,17
 155 -55 155 -55 115 27 c 1,18,19
 128 64 128 64 194 276 c 2,20,-1
 288 580 l 1,21,22
 262 578 262 578 210.5 578 c 128,-1,23
 159 578 159 578 137 583 c 1,24,25
 111 599 111 599 110 628 c 1,26,27
 112 641 112 641 121 644 c 1,28,29
 232 659 232 659 315 667 c 1,30,31
 379 869 379 869 410 952 c 1,0,-1
513 625 m 1,32,33
 512 607 512 607 477.5 605.5 c 128,-1,34
 443 604 443 604 395 599 c 1,35,36
 280 256 280 256 251 139 c 1,37,38
 328 220 328 220 403 333 c 0,39,40
 637 684 637 684 637 1006 c 0,41,42
 637 1041 637 1041 618 1047 c 0,43,44
 612 1048 612 1048 606 1048 c 0,45,46
 543 1047 543 1047 499 1019 c 1,47,48
 499 936 499 936 467.5 831.5 c 128,-1,49
 436 727 436 727 430 704 c 1,50,-1
 421 675 l 1,51,52
 473 677 473 677 495 677 c 1,53,54
 509 668 509 668 513 625 c 1,32,33
EndSplineSet
Validated: 19457
EndChar

StartChar: F
Encoding: 18 70 18
Width: 597
VWidth: 0
Flags: HMW
HStem: -181 34<-156.604 -132.352> 779 72<260.648 295.772> 790 85<449.39 833.294> 1061 85<517.138 969.896> 1195 5<441.648 481.648>
VStem: 15 155<-133.229 27>
DStem2: 172.525 244.095 369.648 578 0.247689 0.96884<-71.5121 534.47 672.339 864.367>
LayerCount: 2
Back
SplineSet
182 469 m 2
 251 763 l 1
 227 763 l 2
 214 763 211 771 211 779 c 0
 211 816 239 857 275 865 c 1
 344 1154 356 1188 392 1195 c 0
 402 1197 416 1200 432 1200 c 0
 458 1200 467 1195 467 1173 c 0
 467 1160 466 1148 463 1137 c 1
 593 1141 724 1144 872 1146 c 0
 907 1146 926 1099 926 1082 c 0
 926 1062 875 1061 850 1061 c 0
 700 1059 536 1048 436 1041 c 1
 393 869 l 1
 501 872 612 875 736 875 c 0
 770 875 789 830 789 811 c 0
 789 792 739 790 710 790 c 0
 590 787 465 777 368 770 c 1
 320 578 l 2
 266 366 197 147 120 27 c 0
 58 -69 -62 -181 -165 -181 c 0
 -189 -181 -208 -170 -208 -160 c 0
 -208 -154 -202 -151 -182 -146 c 0
 53 -94 133 262 182 469 c 2
EndSplineSet
Fore
SplineSet
170 27 m 0,0,1
 106 -72 106 -72 25 -126.5 c 128,-1,2
 -56 -181 -56 -181 -107 -181 c 128,-1,3
 -158 -181 -158 -181 -158 -160 c 0,4,5
 -158 -153 -158 -153 -145.5 -150 c 128,-1,6
 -133 -147 -133 -147 -132 -146 c 0,7,8
 64 -103 64 -103 173 244 c 0,9,10
 197 320 197 320 232 469 c 2,11,-1
 301 763 l 1,12,-1
 277 763 l 1,13,14
 262 764 262 764 261 779 c 1,15,16
 261 822 261 822 296 851 c 0,17,18
 310 862 310 862 325 865 c 1,19,20
 387 1125 387 1125 404 1158 c 0,21,22
 422 1192 422 1192 444 1196 c 128,-1,24
 466 1200 466 1200 490 1200 c 0,25,26
 518 1200 518 1200 517 1173 c 0,27,28
 517 1151 517 1151 513 1137 c 1,29,30
 715 1143 715 1143 922 1146 c 0,31,32
 953 1146 953 1146 970 1104 c 0,33,34
 975 1091 975 1091 976 1082 c 1,35,36
 975 1061 975 1061 900 1061 c 0,37,38
 741 1059 741 1059 486 1041 c 1,39,-1
 443 869 l 1,40,41
 659 875 659 875 786 875 c 0,42,43
 817 875 817 875 833 834 c 0,44,45
 838 820 838 820 839 811 c 1,46,47
 838 790 838 790 749 788.5 c 128,-1,48
 660 787 660 787 418 770 c 1,49,-1
 370 578 l 1,50,51
 269 181 269 181 170 27 c 0,0,1
EndSplineSet
Validated: 8391681
EndChar

StartChar: G
Encoding: 19 71 19
Width: 633
VWidth: 0
Flags: HMW
HStem: -765 36<-101.161 -76.6646> 674 60<432.778 480.903> 699 71<627.607 846.986> 882 21G<566.335 580.17> 1034 134<440.506 530.404>
VStem: 104 113<77.7666 367.961> 459 133<272 515.796> 542 54<902 1024.84>
LayerCount: 2
Back
SplineSet
752 699 m 0
 655 694 602 680 555 673 c 1
 545 631 531 567 531 560 c 1
 507 445 385 -261 163 -571 c 0
 98 -662 -23 -765 -124 -765 c 0
 -151 -765 -174 -753 -174 -742 c 0
 -174 -736 -166 -733 -147 -728 c 1
 -75 -717 0 -651 38 -595 c 1
 200 -370 309 -16 386 259 c 1
 389 272 l 1
 326 117 235 -42 134 -42 c 0
 64 -42 34 13 34 88 c 0
 34 254 181 800 293 1043 c 0
 317 1096 342 1168 414 1168 c 0
 517 1168 526 1054 526 952 c 1
 523 897 511 882 498 882 c 0
 485 882 471 901 472 902 c 1
 472 942 458 1034 432 1034 c 0
 296 1034 147 313 147 168 c 0
 147 155 149 125 163 125 c 0
 249 130 402 517 411 670 c 1
 401 670 393 672 389 674 c 0
 370 682 360 701 360 718 c 0
 360 726 362 733 371 734 c 0
 605 766 675 770 760 770 c 0
 773 770 779 731 779 717 c 0
 779 702 762 699 752 699 c 0
EndSplineSet
Fore
SplineSet
568 882 m 0,0,1
 552 882 552 882 542 902 c 1,2,3
 542 965 542 965 527.5 999 c 128,-1,4
 513 1033 513 1033 502 1034 c 1,5,6
 422 1034 422 1034 329 726 c 0,7,8
 257 488 257 488 226 259 c 0,9,10
 218 199 218 199 218 163 c 128,-1,11
 218 127 218 127 233 125 c 1,12,13
 284 128 284 128 362 289 c 128,-1,14
 440 450 440 450 472 602 c 0,15,16
 480 642 480 642 481 670 c 1,17,18
 467 670 467 670 459 674 c 0,19,20
 432 688 432 688 430 718 c 1,21,22
 432 732 432 732 441 734 c 0,23,24
 708 770 708 770 830 770 c 1,25,26
 845 762 845 762 849 717 c 1,27,28
 848 700 848 700 822 699 c 0,29,30
 758 696 758 696 695 685 c 128,-1,31
 632 674 632 674 625 673 c 1,32,33
 601 574 601 574 600 562 c 128,-1,34
 599 550 599 550 592 516 c 0,35,36
 435 -288 435 -288 233 -571 c 0,37,38
 164 -667 164 -667 83 -716 c 128,-1,39
 2 -765 2 -765 -44 -765 c 0,40,41
 -104 -765 -104 -765 -104 -742 c 0,42,43
 -104 -735 -104 -735 -90.5 -732 c 128,-1,44
 -77 -729 -77 -729 -77 -728 c 0,45,46
 0 -716 0 -716 75 -636 c 0,47,48
 94 -615 94 -615 108 -595 c 0,49,50
 276 -361 276 -361 430 167 c 0,51,52
 450 234 450 234 459 272 c 1,53,54
 332 -42 332 -42 204 -42 c 0,55,56
 104 -42 104 -42 104 89 c 128,-1,57
 104 220 104 220 194 545.5 c 128,-1,58
 284 871 284 871 363 1043 c 0,59,60
 394 1110 394 1110 417.5 1138.5 c 128,-1,61
 441 1167 441 1167 484 1168 c 1,62,63
 577 1168 577 1168 592 1037 c 0,64,65
 596 1003 596 1003 594 943 c 128,-1,66
 592 883 592 883 568 882 c 0,0,1
EndSplineSet
Validated: 8408097
EndChar

StartChar: H
Encoding: 20 72 20
Width: 691
VWidth: 0
Flags: HMW
HStem: -397 11<603.37 617.37> -232 21G<-3.54576 20.1633> 555 110<212.797 257.37 394.37 461.414> 1162 20G<456.533 495.875>
LayerCount: 2
Back
SplineSet
738 1114 m 2
 701 969 665 825 628 684 c 1
 661 684 694 685 730 685 c 0
 754 685 766 635 766 616 c 0
 766 595 731 594 712 594 c 0
 672 593 635 591 602 589 c 1
 560 435 l 1
 509 258 470 70 470 -94 c 0
 470 -169 478 -296 558 -366 c 1
 570 -374 576 -381 576 -386 c 0
 576 -394 570 -397 562 -397 c 0
 549 -397 531 -389 528 -387 c 0
 426 -331 379 -151 379 -37 c 0
 379 102 418 298 466 485 c 2
 490 580 l 1
 326 562 l 1
 211 104 180 2 139 -74 c 0
 109 -128 21 -232 -38 -232 c 0
 -46 -232 -53 -229 -53 -221 c 0
 -53 -206 -38 -189 -29 -174 c 0
 68 -21 131 187 176 392 c 1
 216 555 l 1
 213 555 l 2
 62 555 -2 557 -27 563 c 1
 -52 566 -85 588 -85 619 c 0
 -85 629 -82 636 -62 638 c 2
 243 665 l 1
 344 1075 l 2
 364 1157 347 1182 440 1182 c 0
 458 1182 470 1176 470 1155 c 0
 470 1150 470 1144 469 1138 c 0
 423 954 386 802 353 673 c 1
 408 676 462 679 517 681 c 1
 637 1146 l 1
 656 1226 638 1253 733 1253 c 0
 750 1253 763 1246 763 1224 c 0
 763 1221 763 1214 762 1208 c 2
 738 1114 l 2
EndSplineSet
Fore
SplineSet
803 1208 m 2,0,-1
 669 684 l 1,1,-1
 718 684 l 1,2,3
 753 685 753 685 771 685 c 0,4,5
 794 685 794 685 805 636 c 0,6,7
 807 624 807 624 807 616 c 0,8,9
 806 594 806 594 756 593.5 c 128,-1,10
 706 593 706 593 643 589 c 1,11,-1
 601 435 l 1,12,13
 511 122 511 122 511.5 -83.5 c 128,-1,14
 512 -289 512 -289 599 -366 c 1,15,16
 616 -378 616 -378 617 -386 c 1,17,18
 615 -396 615 -396 600 -396.5 c 128,-1,19
 585 -397 585 -397 569 -387 c 1,20,21
 483 -340 483 -340 441 -186 c 0,22,23
 420 -108 420 -108 420 -37 c 0,24,25
 420 147 420 147 507 485 c 1,26,-1
 531 580 l 1,27,-1
 367 562 l 1,28,29
 248 86 248 86 221 19 c 128,-1,30
 194 -48 194 -48 170 -92 c 128,-1,31
 146 -136 146 -136 91.5 -184 c 128,-1,32
 37 -232 37 -232 13 -231 c 128,-1,33
 -11 -230 -11 -230 -12 -221 c 1,34,35
 -12 -212 -12 -212 -0 -194 c 0,36,37
 134 10 134 10 217 392 c 1,38,-1
 257 555 l 1,39,-1
 254 555 l 2,40,41
 48 555 48 555 14.5 561 c 128,-1,42
 -19 567 -19 567 -31 586.5 c 128,-1,43
 -43 606 -43 606 -44 619 c 1,44,45
 -44 634 -44 634 -25 637 c 0,46,47
 -22 637 -22 637 -21 638 c 2,48,-1
 284 665 l 1,49,-1
 385 1075 l 2,50,51
 389 1090 389 1090 395.5 1124 c 128,-1,52
 402 1158 402 1158 417 1170 c 128,-1,53
 432 1182 432 1182 481 1182 c 1,54,55
 510 1180 510 1180 511 1155 c 0,56,57
 511 1144 511 1144 510 1138 c 2,58,-1
 394 673 l 1,59,60
 506 679 506 679 558 681 c 1,61,-1
 678 1146 l 2,62,63
 682 1161 682 1161 687.5 1195.5 c 128,-1,64
 693 1230 693 1230 708.5 1241.5 c 128,-1,65
 724 1253 724 1253 774 1253 c 1,66,67
 803 1251 803 1251 804 1224 c 0,68,69
 804 1214 804 1214 803 1208 c 2,0,-1
EndSplineSet
Validated: 19489
EndChar

StartChar: I
Encoding: 21 73 21
Width: 376
VWidth: 0
Flags: HMW
HStem: -232 21G<-9.64075 14.0683> 1162 20G<450.438 490.257>
VStem: -18 524
DStem2: 198.306 339.162 234.594 81.3364 0.247292 0.968941<-433.391 866.312>
LayerCount: 2
Back
SplineSet
496 1138 m 0
 258 174 221 27 166 -74 c 0
 136 -128 48 -232 -11 -232 c 0
 -19 -232 -26 -229 -26 -221 c 0
 -26 -206 -11 -189 -2 -174 c 0
 95 -21 154 189 203 392 c 2
 371 1075 l 2
 391 1157 374 1182 467 1182 c 0
 485 1182 498 1176 498 1155 c 0
 498 1150 498 1144 496 1138 c 0
EndSplineSet
Fore
SplineSet
379 1075 m 2,0,1
 383 1090 383 1090 389.5 1124 c 128,-1,2
 396 1158 396 1158 411 1170 c 128,-1,3
 426 1182 426 1182 465.5 1181 c 128,-1,4
 505 1180 505 1180 505.5 1162 c 128,-1,5
 506 1144 506 1144 393.5 689 c 128,-1,6
 281 234 281 234 242.5 107 c 128,-1,7
 204 -20 204 -20 172 -78 c 128,-1,8
 140 -136 140 -136 85.5 -184 c 128,-1,9
 31 -232 31 -232 7 -231 c 128,-1,10
 -17 -230 -17 -230 -18 -221 c 1,11,12
 -18 -212 -18 -212 -6 -194 c 0,13,14
 109 -19 109 -19 198 339 c 1,15,-1
 379 1075 l 2,0,1
EndSplineSet
Validated: 19489
EndChar

StartChar: J
Encoding: 26 74 26
Width: 370
VWidth: 0
Flags: HMW
HStem: -782 43<-278.529 -252.412> 1162 20G<450.015 490.093>
VStem: -279 1<-760.14 -755> 505 1<1138 1155>
DStem2: 105.588 -98 198.444 -168.301 0.2263 0.974058<-342.936 0 611.994 1310.67>
LayerCount: 2
Back
SplineSet
67 -517 m 0
 5 -640 -118 -782 -222 -782 c 0
 -248 -782 -267 -771 -267 -755 c 0
 -267 -749 -259 -744 -240 -738 c 0
 -170 -715 -95 -630 -58 -555 c 0
 20 -395 72 -256 118 -98 c 0
 152 18 225 285 338 814 c 0
 355 896 370 982 392 1075 c 0
 411 1157 394 1182 488 1182 c 0
 506 1182 518 1176 518 1155 c 0
 518 1150 518 1144 517 1138 c 0
 349 461 317 -18 67 -517 c 0
EndSplineSet
Fore
SplineSet
198 -168 m 1,0,1
 63 -579 63 -579 -99 -718 c 0,2,3
 -172 -782 -172 -782 -222 -782 c 0,4,5
 -278 -783 -278 -783 -279 -755 c 0,6,7
 -279 -747 -279 -747 -265.5 -743 c 128,-1,8
 -252 -739 -252 -739 -252 -738 c 0,9,10
 -180 -714 -180 -714 -111 -621 c 0,11,12
 -87 -588 -87 -588 -70 -555 c 0,13,14
 37 -336 37 -336 118 -58 c 128,-1,15
 199 220 199 220 326 814 c 0,16,17
 332 841 332 841 348.5 927 c 128,-1,18
 365 1013 365 1013 374.5 1051.5 c 128,-1,19
 384 1090 384 1090 389 1124 c 128,-1,20
 394 1158 394 1158 409.5 1170 c 128,-1,21
 425 1182 425 1182 476 1182 c 1,22,23
 505 1180 505 1180 506 1155 c 0,24,25
 506 1144 506 1144 481.5 1044.5 c 128,-1,26
 457 945 457 945 365 500.5 c 128,-1,27
 273 56 273 56 198 -168 c 1,0,1
EndSplineSet
Validated: 19457
EndChar

StartChar: K
Encoding: 27 75 27
Width: 707
VWidth: 0
Flags: HMW
HStem: -155 30<795.345 850.301> 1173 13<507.962 518.962>
VStem: 112 79<-39.7813 125.893> 778 9<1091 1110.59>
DStem2: 321.731 854.351 196.962 6 0.267557 0.963542<-417.041 -220.69 -70.5689 338.116> 404.962 758 539.962 773 0.64613 0.763228<59.901 500.369> 539.962 773 447.962 655 0.148431 -0.988923<103.037 679.286>
LayerCount: 2
Back
SplineSet
484 1144 m 0
 464 1064 412 885 376 758 c 1
 472 871 615 1039 685 1123 c 0
 691 1131 699 1134 707 1134 c 0
 726 1134 758 1110 758 1091 c 0
 758 1069 728 1034 710 1014 c 0
 629 920 565 842 511 773 c 1
 564 306 590 167 646 38 c 0
 671 -22 728 -102 798 -125 c 0
 808 -128 822 -133 822 -142 c 0
 822 -154 800 -155 786 -155 c 0
 653 -155 549 19 517 123 c 0
 493 200 459 310 419 655 c 1
 379 602 345 556 310 513 c 1
 270 368 198 120 168 6 c 0
 159 -26 158 -48 146 -48 c 0
 115 -48 83 5 83 30 c 0
 83 106 297 878 368 1117 c 0
 372 1131 383 1146 399 1155 c 0
 408 1160 457 1186 479 1186 c 0
 487 1186 490 1180 490 1173 c 0
 490 1163 485 1149 484 1144 c 0
EndSplineSet
Fore
SplineSet
508 1186 m 1,0,1
 518 1184 518 1184 518.5 1172 c 128,-1,2
 519 1160 519 1160 405 758 c 1,3,-1
 714 1123 l 2,4,5
 723 1134 723 1134 740.5 1134 c 128,-1,6
 758 1134 758 1134 772.5 1117 c 128,-1,7
 787 1100 787 1100 786 1084 c 0,8,9
 786 1066 786 1066 706 974 c 1,10,-1
 540 773 l 1,11,12
 592 313 592 313 620.5 205.5 c 128,-1,13
 649 98 649 98 679.5 26 c 128,-1,14
 710 -46 710 -46 773 -95 c 0,15,16
 800 -116 800 -116 825 -124.5 c 128,-1,17
 850 -133 850 -133 851 -142 c 1,18,19
 850 -155 850 -155 815 -155 c 0,20,21
 709 -155 709 -155 617 -21 c 0,22,23
 569 50 569 50 533 165 c 128,-1,24
 497 280 497 280 476.5 434.5 c 128,-1,25
 456 589 456 589 448 655 c 1,26,-1
 339 513 l 1,27,28
 323 453 323 453 269 263.5 c 128,-1,29
 215 74 215 74 205 36 c 2,30,-1
 191 -17 l 2,31,32
 183 -48 183 -48 175 -48 c 0,33,34
 147 -48 147 -48 130 -16 c 128,-1,35
 113 16 113 16 112 30 c 1,36,37
 112 106 112 106 322 854 c 1,38,-1
 397 1117 l 1,39,40
 405 1141 405 1141 428 1155 c 1,41,42
 484 1186 484 1186 508 1186 c 1,0,1
EndSplineSet
Validated: 3105
EndChar

StartChar: L
Encoding: 28 76 28
Width: 621
VWidth: 0
Flags: HMW
HStem: -48 1<77.0384 89.2684> -22 76<163.517 642.003> 1298 35<691.038 715.277>
VStem: 41 676 389 153<1125 1284.62>
DStem2: 56.0384 50 174.038 54 0.234892 0.972021<31.6054 994.099>
LayerCount: 2
Back
SplineSet
355 683 m 0
 270 326 230 146 203 54 c 1
 336 59 470 62 621 62 c 0
 656 62 675 16 675 -2 c 0
 675 -21 624 -22 598 -22 c 0
 392 -26 160 -45 106 -48 c 0
 98 -48 96 -43 96 -40 c 0
 96 5 131 51 171 53 c 0
 182 53 192 54 203 54 c 1
 181 -24 168 -39 146 -43 c 0
 136 -45 122 -48 106 -48 c 0
 80 -48 70 -43 70 -21 c 0
 70 5 78 27 85 50 c 0
 138 222 173 400 218 574 c 1
 270 786 341 1004 418 1125 c 0
 479 1220 599 1333 702 1333 c 0
 726 1333 746 1322 746 1312 c 0
 746 1306 739 1302 720 1298 c 0
 485 1245 405 890 355 683 c 0
EndSplineSet
Fore
SplineSet
389 1125 m 0,0,1
 452 1223 452 1223 532.5 1278 c 128,-1,2
 613 1333 613 1333 665 1333 c 128,-1,3
 717 1333 717 1333 717 1312 c 0,4,5
 717 1304 717 1304 693 1298 c 1,6,-1
 691 1298 l 1,7,8
 498 1254 498 1254 388 915 c 0,9,10
 364 839 364 839 277.5 477.5 c 128,-1,11
 191 116 191 116 184 91 c 2,12,-1
 174 54 l 1,13,14
 387 62 387 62 592 62 c 0,15,16
 624 62 624 62 641 21 c 0,17,18
 646 8 646 8 646 -2 c 0,19,20
 645 -22 645 -22 547.5 -23 c 128,-1,21
 450 -24 450 -24 266 -36 c 128,-1,22
 82 -48 82 -48 77 -48 c 0,23,24
 41 -48 41 -48 41 -23 c 128,-1,25
 41 2 41 2 64.5 77.5 c 128,-1,26
 88 153 88 153 158 447 c 1,27,-1
 189 574 l 2,28,29
 284 959 284 959 389 1125 c 0,0,1
EndSplineSet
Validated: 8408065
EndChar

StartChar: M
Encoding: 29 77 29
Width: 696
VWidth: 0
Flags: HMW
HStem: -221 66<506.214 545.214> -61 17<-13.7859 19.2141> 1133 17<743.214 804.2> 1200 29<510.214 562.214>
VStem: -14 24<-44 -14.7287> 412 67<-113.225 127.582> 471 91<1106.9 1228.3>
DStem2: 137.214 141 312.836 380.273 0.296863 0.95492<-114.382 502.51 711.743 1115.1> 477.543 316.897 500.033 80.6999 0.284928 0.958549<-361.267 253.266>
LayerCount: 2
Back
SplineSet
73 -61 m 0
 50 -61 40 -54 40 -44 c 0
 40 -32 55 -23 77 -3 c 0
 143 57 172 99 191 141 c 0
 201 165 208 185 440 942 c 0
 457 997 487 1229 564 1229 c 0
 587 1229 616 1222 616 1200 c 0
 616 1186 610 1173 607 1161 c 0
 576 1057 530 887 530 768 c 0
 530 751 558 716 565 716 c 0
 621 720 749 1150 797 1150 c 0
 820 1150 864 1140 865 1122 c 0
 865 1113 834 1044 807 953 c 0
 577 197 533 42 533 -71 c 0
 533 -110 599 -116 599 -155 c 0
 599 -203 582 -221 560 -221 c 0
 478 -221 466 -117 466 -45 c 0
 466 175 562 381 599 561 c 1
 587 531 542 477 513 477 c 0
 486 477 435 524 432 572 c 0
 432 577 432 585 433 592 c 1
 359 435 308 -61 73 -61 c 0
EndSplineSet
Fore
SplineSet
19 -61 m 1,0,1
 -43 -59 -43 -59 10 -15 c 0,2,3
 19 -8 19 -8 23 -3 c 0,4,5
 106 73 106 73 137 141 c 1,6,7
 150 173 150 173 385 939 c 1,8,-1
 386 940 l 1,9,-1
 386 942 l 1,10,11
 389 953 389 953 399 995 c 0,12,13
 435 1163 435 1163 462.5 1196 c 128,-1,14
 490 1229 490 1229 510 1229 c 1,15,16
 558 1225 558 1225 562 1200 c 0,17,18
 562 1195 562 1195 553 1161 c 1,19,20
 476 903 476 903 476 768 c 0,21,22
 476 750 476 750 492 733 c 128,-1,23
 508 716 508 716 511 716 c 0,24,25
 538 718 538 718 613.5 894.5 c 128,-1,26
 689 1071 689 1071 709 1110.5 c 128,-1,27
 729 1150 729 1150 743 1150 c 0,28,29
 783 1150 783 1150 796.5 1138.5 c 128,-1,30
 810 1127 810 1127 810.5 1122.5 c 128,-1,31
 811 1118 811 1118 790 1062.5 c 128,-1,32
 769 1007 769 1007 651.5 620.5 c 128,-1,33
 534 234 534 234 506.5 111 c 128,-1,34
 479 -12 479 -12 479 -71 c 0,35,36
 480 -90 480 -90 510 -110 c 0,37,38
 546 -134 546 -134 545 -155 c 0,39,40
 544 -220 544 -220 506 -221 c 1,41,42
 412 -220 412 -220 412 -45 c 0,43,44
 412 96 412 96 473 302 c 0,45,46
 545 545 545 545 545 561 c 1,47,48
 531 525 531 525 502.5 501 c 128,-1,49
 474 477 474 477 453.5 477 c 128,-1,50
 433 477 433 477 406.5 510 c 128,-1,51
 380 543 380 543 379 564 c 128,-1,52
 378 585 378 585 379 592 c 1,53,54
 360 552 360 552 305 352 c 128,-1,55
 250 152 250 152 191 57 c 0,56,57
 118 -61 118 -61 19 -61 c 1,0,1
EndSplineSet
Validated: 8408065
EndChar

StartChar: N
Encoding: 30 78 30
Width: 618
VWidth: 0
Flags: HMW
HStem: -380 5<-19.1374 -12.1374> -120 2<376.332 399.863> 1168 37<488.863 566.863> 1363 11<765.863 794.873>
VStem: -19 102<-357.48 -275.031> 352 86<-117.623 13.7133 15 341.122 460.257 475> 443 115<987.426 1203.66> 795 30<1314 1362.61>
DStem2: 31.8626 -258 359.863 475 0.277043 0.960857<359.777 795.179 1042.59 1532.08>
LayerCount: 2
Back
SplineSet
783 1215 m 0
 803 1254 829 1286 829 1314 c 0
 829 1341 795 1374 770 1374 c 0
 717 1374 651 1153 636 1111 c 0
 555 884 517 677 452 460 c 1
 450 467 450 478 450 489 c 0
 450 553 472 669 478 716 c 0
 489 804 544 1025 562 1113 c 0
 567 1136 570 1155 571 1168 c 1
 567 1203 521 1205 493 1205 c 0
 457 1205 454 1169 447 1142 c 0
 385 907 127 18 36 -258 c 0
 16 -319 -14 -358 -15 -375 c 0
 -15 -377 -10 -380 -8 -380 c 0
 33 -378 63 -344 87 -298 c 1
 158 -129 338 400 364 475 c 1
 365 451 366 423 366 391 c 0
 366 331 364 261 362 193 c 0
 357 22 356 -38 356 -79 c 0
 356 -109 366 -120 404 -120 c 0
 438 -120 441 -15 442 15 c 0
 454 432 672 988 783 1215 c 0
EndSplineSet
Fore
SplineSet
352 -79 m 2,0,-1
 362 391 l 2,1,2
 362 427 362 427 360 475 c 1,3,4
 136 -171 136 -171 83 -298 c 1,5,6
 42 -376 42 -376 -12 -380 c 1,7,8
 -18 -378 -18 -378 -18 -373 c 128,-1,9
 -18 -368 -18 -368 2 -326 c 0,10,11
 35 -259 35 -259 194 270 c 0,12,13
 436 1079 436 1079 445 1153 c 1,14,15
 455 1205 455 1205 489 1205 c 0,16,17
 562 1205 562 1205 567 1168 c 1,18,19
 564 1136 564 1136 522 951.5 c 128,-1,20
 480 767 480 767 476.5 737.5 c 128,-1,21
 473 708 473 708 459.5 618.5 c 128,-1,22
 446 529 446 529 446 498.5 c 128,-1,23
 446 468 446 468 448 460 c 1,24,25
 473 543 473 543 528 759 c 128,-1,26
 583 975 583 975 608.5 1045.5 c 128,-1,27
 634 1116 634 1116 638 1130 c 0,28,29
 719 1374 719 1374 766 1374 c 0,30,31
 779 1374 779 1374 802 1357.5 c 128,-1,32
 825 1341 825 1341 825 1318 c 128,-1,33
 825 1295 825 1295 805 1261 c 0,34,35
 737 1145 737 1145 639 882 c 0,36,37
 448 368 448 368 438 15 c 1,38,-1
 438 14 l 1,39,40
 434 -120 434 -120 400 -120 c 0,41,42
 386 -120 386 -120 376 -118 c 0,43,44
 352 -112 352 -112 352 -79 c 2,0,-1
EndSplineSet
Validated: 19457
EndChar

StartChar: O
Encoding: 32 79 32
Width: 553
VWidth: 0
Flags: HMW
HStem: -42 175<233.705 298.552> 1018 134<477.12 545.037>
VStem: 119 115<34.1166 358.399> 557 54<693.667 1012.21>
DStem2: 192.428 479.056 311.315 512.433 0.320288 0.94732<-284.899 435.187>
LayerCount: 2
Back
SplineSet
498.688 1152 m 0
 528.027 1151.71 551.777 1142 569.938 1122.85 c 0
 597.105 1092.74 610.688 1030.46 610.688 936 c 0
 610.661 876.962 608.156 817.258 603.174 756.889 c 0
 581.439 496.186 522.611 297.223 426.688 160 c 0
 420.588 151.264 420.588 151.264 406.511 130.433 c 0
 386.606 100.929 386.606 100.929 375.662 85.5176 c 0
 315.292 0.505867 262.967 -42 218.688 -42 c 0
 209.017 -41.9206 199.63 -40.7823 190.527 -38.585 c 0
 142.634 -26.0394 118.688 16.1556 118.688 88 c 0
 118.839 162.849 143.419 293.201 192.428 479.056 c 0
 253.446 709.975 315.199 892.623 377.688 1027 c 0
 390.722 1055.89 398.541 1072.91 401.146 1078.05 c 0
 426.488 1127.35 459.002 1152 498.688 1152 c 0
519.688 1018 m 1
 509.807 1016.96 497.828 1006.16 483.752 985.597 c 0
 436.518 913.775 379.039 756.054 311.315 512.433 c 0
 260.018 327.903 234.142 211.092 233.688 162 c 0
 234.073 160.517 234.538 158.146 235.084 154.885 c 0
 237.166 140.295 241.367 133 247.688 133 c 0
 256.583 133.511 269.265 142.96 285.733 161.347 c 0
 331.806 214.301 381.833 301.806 435.812 423.861 c 0
 516.396 606.077 556.688 760.123 556.688 886 c 0
 556.635 895.877 555.733 908.385 553.982 923.524 c 0
 546.461 986.508 535.029 1018 519.688 1018 c 1
EndSplineSet
Fore
SplineSet
219 -42 m 0,0,1
 119 -42 119 -42 119 79 c 128,-1,2
 119 200 119 200 199.5 505 c 128,-1,3
 280 810 280 810 378 1027 c 0,4,5
 398 1070 398 1070 401 1078 c 0,6,7
 439 1152 439 1152 494 1152 c 128,-1,8
 549 1152 549 1152 570 1123 c 1,9,10
 621 1062 621 1062 627 953 c 128,-1,11
 633 844 633 844 623 770 c 0,12,13
 570 365 570 365 427 160 c 1,14,-1
 407 130 l 2,15,16
 292 -42 292 -42 219 -42 c 0,0,1
554 924 m 0,17,18
 543 1018 543 1018 524 1017 c 0,19,20
 451 1013 451 1013 311 512 c 0,21,22
 234 235 234 235 234 162 c 1,23,24
 235 160 235 160 236.5 146.5 c 128,-1,25
 238 133 238 133 248 133 c 0,26,27
 261 134 261 134 286 161 c 1,28,29
 355 240 355 240 436 424 c 0,30,31
 557 697 557 697 557 886 c 0,32,33
 557 901 557 901 554 924 c 0,17,18
EndSplineSet
Validated: 19489
EndChar

StartChar: Oslash
Encoding: 37 216 37
Width: 553
VWidth: 0
Flags: HW
HStem: -42 175<234.488 298.664> 1132 20G<466.5 521.5>
DStem2: 329 574 467 606 0.546143 0.837692<-630.252 -521.808 -391.57 -208.242 0 238.122 324.762 411.594 526.128 640.138>
LayerCount: 2
Back
Refer: 179 47 N 1 0 0 1 -106 0 2
Refer: 32 79 N 1 0 0 1 0 0 2
Fore
SplineSet
554 924 m 1,0,1
 543 1018 543 1018 524 1017 c 0,2,3
 455 1013 455 1013 329 574 c 1,4,-1
 555 918 l 1,5,-1
 554 924 l 1,0,1
219 -42 m 0,6,7
 119 -42 119 -42 119 88 c 1,8,9
 65 15 65 15 27 17 c 0,10,11
 22 18 22 18 10 23 c 0,12,13
 -16 33 -16 33 11 76 c 2,14,-1
 147 290 l 1,15,16
 164 372 164 372 192 479 c 0,17,18
 280 810 280 810 378 1027 c 0,19,20
 398 1070 398 1070 401 1078 c 0,21,22
 439 1152 439 1152 494 1152 c 128,-1,23
 549 1152 549 1152 576.5 1117 c 128,-1,24
 604 1082 604 1082 619 1013 c 1,25,-1
 676 1096 l 2,26,27
 685 1109 685 1109 698.5 1107.5 c 128,-1,28
 712 1106 712 1106 721 1103 c 1,29,30
 753 1088 753 1088 750 1064.5 c 128,-1,31
 747 1041 747 1041 712 990 c 2,32,-1
 629 867 l 1,33,34
 628 814 628 814 623 770 c 0,35,36
 570 365 570 365 427 160 c 1,37,-1
 376 86 l 1,38,39
 285 -42 285 -42 219 -42 c 0,6,7
538 722 m 1,40,-1
 467 606 l 1,41,42
 346 404 346 404 300 338 c 1,43,-1
 249 267 l 1,44,45
 234 194 234 194 234 177 c 0,46,47
 235 133 235 133 248 133 c 0,48,49
 261 134 261 134 286 161 c 1,50,51
 355 240 355 240 432 414 c 128,-1,52
 509 588 509 588 538 722 c 1,40,-1
EndSplineSet
Validated: 19489
Colour: ff0000
EndChar

StartChar: P
Encoding: 39 80 39
Width: 622
VWidth: 0
Flags: HMW
HStem: -432 33<-192.965 -168.802> 971 85<517.901 619.428> 1151 3<470.298 498.198>
VStem: 409 191<342.169 603.447> 582 18<603.447 786.084> 692 17<949 1003.77>
DStem2: 215.198 293 317.198 293 0.241951 0.970289<-409.606 54.1256 124.367 733.28 811.743 886.782>
LayerCount: 2
Back
SplineSet
266 392 m 1
 422 555 531 762 554 939 c 1
 539 962 512 971 483 971 c 0
 464 971 432 966 416 949 c 1
 365 755 323 578 266 392 c 1
251 293 m 1
 202 91 133 -120 59 -234 c 0
 0 -325 -118 -432 -219 -432 c 0
 -242 -432 -261 -421 -261 -413 c 0
 -261 -406 -254 -403 -235 -398 c 0
 -166 -381 -97 -317 -61 -262 c 0
 36 -112 99 94 149 293 c 0
 342 1070 341 1138 394 1149 c 0
 403 1150 416 1154 432 1154 c 0
 456 1154 466 1149 466 1128 c 0
 466 1110 451 1077 451 1054 c 1
 462 1056 474 1056 486 1056 c 0
 558 1056 643 1030 643 949 c 0
 643 715 376 294 251 293 c 1
EndSplineSet
Fore
SplineSet
332 392 m 1,0,1
 505 572 505 572 582 786 c 0,2,3
 611 866 611 866 620 939 c 1,4,5
 598 971 598 971 550.5 970.5 c 128,-1,6
 503 970 503 970 482 949 c 1,7,8
 468 897 468 897 421 712.5 c 128,-1,9
 374 528 374 528 332 392 c 1,0,1
460 1149 m 2,10,-1
 498 1154 l 1,11,12
 528 1154 528 1154 532 1136 c 0,13,14
 533 1131 533 1131 525 1097.5 c 128,-1,15
 517 1064 517 1064 517 1054 c 1,16,17
 529 1056 529 1056 552 1056 c 0,18,19
 653 1056 653 1056 692 1004 c 0,20,21
 709 980 709 980 709 949 c 0,22,23
 709 809 709 809 608.5 619.5 c 128,-1,24
 508 430 508 430 409 342 c 0,25,26
 354 294 354 294 317 293 c 1,27,28
 227 -76 227 -76 125 -234 c 0,29,30
 65 -327 65 -327 -14.5 -379.5 c 128,-1,31
 -94 -432 -94 -432 -138.5 -432 c 128,-1,32
 -183 -432 -183 -432 -188.5 -423 c 128,-1,33
 -194 -414 -194 -414 -194.5 -409.5 c 128,-1,34
 -195 -405 -195 -405 -182 -402 c 128,-1,35
 -169 -399 -169 -399 -169 -398 c 0,36,37
 -92 -379 -92 -379 -21 -297 c 1,38,39
 105 -145 105 -145 215 293 c 1,40,-1
 330 762 l 1,41,42
 402 1061 402 1061 419 1101.5 c 128,-1,43
 436 1142 436 1142 458 1148 c 0,44,45
 460 1148 460 1148 460 1149 c 2,10,-1
EndSplineSet
Validated: 8408097
EndChar

StartChar: Q
Encoding: 40 81 40
Width: 558
VWidth: 0
Flags: HMW
HStem: -142 43<509.655 659.832> -42 175<224.919 288.625> 1018 134<468.334 536.251>
VStem: 109 116<36.4601 358.757> 548 54<693.667 1012.21>
DStem2: 183.382 480.214 302.529 512.433 0.3213 0.946977<-285.762 442.383>
LayerCount: 2
Back
SplineSet
489.9 1152 m 0
 519.241 1151.71 542.991 1142 561.151 1122.85 c 0
 588.317 1092.74 601.9 1030.46 601.9 936 c 0
 601.873 876.962 599.369 817.258 594.388 756.889 c 0
 572.653 496.186 513.824 297.223 417.9 160 c 1
 403.4 138.5 l 2
 388.9 117 388.9 117 380.9 106 c 1
 384.9 94 l 1
 400.562 43.0091 419.078 3.4642 440.447 -24.6348 c 0
 478.834 -74.2116 540.318 -99 624.9 -99 c 0
 648.835 -99.2396 661.502 -103.573 662.9 -112 c 1
 661.939 -131.363 631.939 -141.363 572.9 -142 c 0
 543.841 -141.913 514.313 -138.103 484.315 -130.572 c 0
 401.29 -109.259 336.485 -67.0683 289.9 -4 c 1
 262.669 -28.7611 236.002 -41.4277 209.9 -42 c 0
 198.156 -41.9023 186.977 -40.2454 176.364 -37.0293 c 0
 131.388 -22.3965 108.9 19.2799 108.9 88 c 0
 109.054 162.915 133.881 293.653 183.382 480.214 c 0
 244.575 710.365 306.414 892.627 368.9 1027 c 0
 381.935 1055.89 389.755 1072.91 392.358 1078.05 c 0
 417.701 1127.35 450.215 1152 489.9 1152 c 0
510.9 1018 m 1
 501.02 1016.96 489.042 1006.16 474.966 985.597 c 0
 427.731 913.775 370.252 756.054 302.528 512.433 c 0
 251.231 327.903 225.355 211.092 224.9 162 c 0
 225.285 160.517 225.751 158.146 226.298 154.885 c 0
 228.38 140.295 232.581 133 238.9 133 c 0
 247.797 133.511 260.479 142.96 276.946 161.347 c 0
 323.02 214.301 373.046 301.806 427.024 423.861 c 0
 507.608 606.077 547.9 760.123 547.9 886 c 0
 547.848 895.877 546.946 908.385 545.195 923.524 c 0
 537.674 986.508 526.243 1018 510.9 1018 c 1
EndSplineSet
Fore
SplineSet
210 -42 m 0,0,1
 109 -42 109 -42 109 79 c 128,-1,2
 109 200 109 200 190 505 c 128,-1,3
 271 810 271 810 369 1027 c 0,4,5
 389 1070 389 1070 392 1078 c 0,6,7
 430 1152 430 1152 490 1152 c 0,8,9
 530 1152 530 1152 565 1119.5 c 128,-1,10
 600 1087 600 1087 609 973.5 c 128,-1,11
 618 860 618 860 610 780 c 1,12,13
 563 367 563 367 418 160 c 1,14,-1
 403 138 l 2,15,16
 389 116 389 116 381 106 c 1,17,18
 412 12 412 12 440 -25 c 1,19,20
 497 -98 497 -98 625 -99 c 0,21,22
 661 -99 661 -99 663 -112 c 1,23,24
 661 -142 661 -142 573 -142 c 0,25,26
 529 -142 529 -142 484 -131 c 0,27,28
 359 -99 359 -99 290 -4 c 1,29,30
 248 -42 248 -42 210 -42 c 0,0,1
545 924 m 0,31,32
 534 1018 534 1018 515 1017 c 0,33,34
 441 1013 441 1013 303 512 c 0,35,36
 226 235 226 235 225 162 c 1,37,38
 226 160 226 160 227.5 146.5 c 128,-1,39
 229 133 229 133 239 133 c 0,40,41
 252 134 252 134 277 161 c 1,42,43
 346 240 346 240 427 424 c 0,44,45
 548 697 548 697 548 886 c 0,46,47
 548 901 548 901 545 924 c 0,31,32
EndSplineSet
Validated: 19489
EndChar

StartChar: R
Encoding: 41 82 41
Width: 718
VWidth: 0
Flags: HMW
HStem: -155 13<788.412 833.412> -48 24<158.412 174.412> 789 21G<391.681 407.986> 1074 92<460.408 592.015>
VStem: 95 79<-38.4897 148.484> 599 109<875.594 1072.59> 810 23<-142 -125>
DStem2: 137.18 225.723 174.412 -24 0.257663 0.966235<-196.995 522.738 609.506 914.387> 524.412 765 424.412 722 0.169176 -0.985586<25.4626 633.592>
LayerCount: 2
Back
SplineSet
696 1014 m 0
 696 1104 597 1166 517 1166 c 0
 452 1166 383 1142 365 1083 c 0
 292 840 83 108 83 32 c 0
 83 3 115 -48 146 -48 c 0
 154 -48 157 -38 162 -24 c 1
 206 203 291 485 360 704 c 1
 412 722 l 1
 455 323 491 205 517 123 c 1
 549 16 663 -155 776 -155 c 0
 797 -155 821 -155 821 -142 c 0
 821 -130 803 -126 798 -125 c 0
 728 -102 671 -22 646 38 c 0
 590 167 564 304 512 765 c 1
 613 815 696 887 696 1014 c 0
450 1056 m 1
 477 1072 501 1074 530 1074 c 0
 581 1074 587 1000 587 990 c 0
 587 846 432 800 378 789 c 1
 390 832 439 994 450 1056 c 1
EndSplineSet
Fore
SplineSet
708 1014 m 0,0,1
 708 855 708 855 524 765 c 1,2,3
 556 493 556 493 582 323 c 0,4,5
 618 92 618 92 682 -7 c 1,6,7
 738 -101 738 -101 810 -125 c 1,8,9
 832 -130 832 -130 833 -142 c 1,10,11
 832 -154 832 -154 788 -155 c 1,12,13
 712 -154 712 -154 635 -63.5 c 128,-1,14
 558 27 558 27 529 123 c 0,15,16
 526 131 526 131 525 138 c 1,17,18
 468 321 468 321 424 722 c 1,19,-1
 372 704 l 1,20,21
 224 235 224 235 174 -24 c 1,22,23
 166 -46 166 -46 158 -48 c 1,24,25
 141 -47 141 -47 118.5 -23 c 128,-1,26
 96 1 96 1 95.5 31.5 c 128,-1,27
 95 62 95 62 164 333 c 128,-1,28
 233 604 233 604 377 1083 c 0,29,30
 382 1100 382 1100 394 1115 c 0,31,32
 435 1166 435 1166 529 1166 c 0,33,34
 584 1166 584 1166 646 1126 c 128,-1,35
 708 1086 708 1086 708 1014 c 0,0,1
462 1056 m 1,36,37
 453 1007 453 1007 423 902.5 c 128,-1,38
 393 798 393 798 390 789 c 1,39,40
 425 796 425 796 460 810 c 0,41,42
 600 868 600 868 599 990 c 0,43,44
 599 996 599 996 598 1006 c 0,45,46
 587 1074 587 1074 540 1074 c 128,-1,47
 493 1074 493 1074 462 1056 c 1,36,37
EndSplineSet
Validated: 19489
EndChar

StartChar: S
Encoding: 42 83 42
Width: 449
VWidth: 0
Flags: HMW
HStem: -27 93<101.038 185.948> 826 126<426.047 483.33> 828 20G<418.014 428.383> 1171 30<442.962 531.148>
VStem: -3 104<66.3239 222.162> 349 15<1113 1153.25> 496 96<959.368 1066.9>
DStem2: 249.962 350 346.962 346 0.128672 0.991687<-262.007 515.863>
LayerCount: 2
Back
SplineSet
221 350 m 2
 197 163 152 66 99 66 c 0
 77 66 72 86 72 107 c 0
 72 133 78 155 78 176 c 0
 78 210 62 226 34 226 c 0
 -22 226 -32 170 -32 128 c 0
 -32 48 22 -27 101 -27 c 0
 213 -27 288 150 318 346 c 0
 342 501 378 754 392 848 c 1
 400 835 414 826 440 826 c 0
 522 826 563 992 563 1051 c 0
 563 1136 491 1201 414 1201 c 0
 365 1201 326 1156 320 1113 c 2
 221 350 l 2
400 952 m 1
 398 958 397 966 397 973 c 0
 397 1013 422 1062 467 1067 c 1
 466 1010 453 957 400 952 c 1
EndSplineSet
Fore
SplineSet
107 176 m 1,0,-1
 101 107 l 1,1,2
 101 68 101 68 128 66 c 1,3,4
 213 66 213 66 250 350 c 2,5,-1
 349 1113 l 2,6,7
 352 1133 352 1133 364 1153 c 0,8,9
 394 1201 394 1201 442 1201 c 128,-1,10
 490 1201 490 1201 541 1163 c 128,-1,11
 592 1125 592 1125 592 1062.5 c 128,-1,12
 592 1000 592 1000 568 933 c 0,13,14
 529 826 529 826 469 826 c 0,15,16
 436 826 436 826 421 848 c 1,17,-1
 347 346 l 1,18,19
 328 225 328 225 292 134 c 1,20,21
 226 -27 226 -27 130 -27 c 0,22,23
 84 -27 84 -27 40.5 12.5 c 128,-1,24
 -3 52 -3 52 -3 138.5 c 128,-1,25
 -3 225 -3 225 63 226 c 1,26,27
 105 225 105 225 107 176 c 1,0,-1
429 952 m 1,28,29
 493 959 493 959 496 1067 c 1,30,31
 477 1065 477 1065 451.5 1043.5 c 128,-1,32
 426 1022 426 1022 426 973 c 0,33,34
 426 962 426 962 429 952 c 1,28,29
EndSplineSet
Validated: 8408065
EndChar

StartChar: T
Encoding: 43 84 43
Width: 576
VWidth: 0
Flags: HMW
HStem: -227 11<125.484 139.484> 1002 104<297.036 503.186> 1200 29<632.484 662.484>
DStem2: 337.521 322.505 375.646 67.3475 0.24984 0.968287<-435.532 714.216 849.146 920.635>
LayerCount: 2
Back
SplineSet
946.236 1038 m 4
 835.115 1036.41 720.781 1031.74 603.236 1024 c 5
 470.087 484.429 387.808 165.545 356.398 67.3477 c 4
 338.716 12.4062 320.995 -31.3763 303.236 -64 c 4
 279.771 -106.389 247.514 -145.702 206.465 -181.939 c 4
 172.294 -211.584 143.551 -226.604 120.236 -227 c 5
 111.619 -225.908 106.952 -222.241 106.236 -216 c 5
 106.656 -207.192 114.656 -191.192 130.236 -168 c 4
 198.499 -61.8887 261.178 101.613 318.273 322.505 c 4
 328.729 363.004 328.729 363.004 341.236 414 c 6
 489.236 1016 l 5
 375.803 1006.7 288.137 1002.03 226.236 1002 c 4
 21.6945 1002.03 -93.6388 1004.03 -119.764 1008 c 5
 -171.637 1019.08 -199.304 1036.75 -202.764 1061 c 5
 -202.764 1070.47 -192.919 1076.07 -173.23 1077.8 c 4
 -171.5 1077.94 -171.5 1077.94 -170.764 1078 c 6
 283.236 1106 l 5
 403.503 1112.01 480.169 1115.67 513.236 1117 c 5
 514.236 1118 l 5
 517.059 1129.29 520.06 1143.99 523.24 1162.1 c 4
 528.281 1190.79 535.124 1208.61 543.771 1215.55 c 4
 555.882 1224.41 579.037 1228.89 613.236 1229 c 5
 632.561 1227.57 642.561 1217.9 643.236 1200 c 4
 643.131 1192.34 642.797 1186.34 642.236 1182 c 6
 626.236 1120 l 5
 971.236 1125 l 6
 993.252 1125 1009.86 1110.63 1021.06 1081.9 c 4
 1024.35 1072.96 1026.07 1065.33 1026.24 1059 c 4
 1025.51 1045.09 998.839 1038.09 946.236 1038 c 4
EndSplineSet
Fore
SplineSet
965 1038 m 0,0,1
 798 1036 798 1036 622 1024 c 1,2,3
 422 215 422 215 385.5 100 c 128,-1,4
 349 -15 349 -15 318 -71.5 c 128,-1,5
 287 -128 287 -128 231 -177 c 128,-1,6
 175 -226 175 -226 139 -227 c 1,7,8
 126 -225 126 -225 126 -214 c 128,-1,9
 126 -203 126 -203 149 -168 c 0,10,11
 271 23 271 23 360 414 c 1,12,-1
 508 1016 l 1,13,14
 506 1016 506 1016 375 1007.5 c 128,-1,15
 244 999 244 999 187 1014 c 1,16,17
 138 1037 138 1037 130 1065 c 1,18,19
 125 1087 125 1087 197 1096 c 1,20,-1
 262 1102 l 1,21,-1
 348 1108 l 1,22,23
 440 1112 440 1112 532 1117 c 1,24,-1
 533 1118 l 1,25,26
 537 1135 537 1135 543.5 1170 c 128,-1,27
 550 1205 550 1205 565.5 1217 c 128,-1,28
 581 1229 581 1229 632 1229 c 1,29,30
 662 1227 662 1227 662 1200 c 0,31,32
 662 1185 662 1185 661 1182 c 2,33,-1
 645 1120 l 1,34,-1
 990 1125 l 2,35,36
 1023 1125 1023 1125 1040 1082 c 0,37,38
 1045 1069 1045 1069 1045 1059 c 0,39,40
 1044 1038 1044 1038 965 1038 c 0,0,1
EndSplineSet
Validated: 19489
Substitution2: "Tlower-1" T.alt1
EndChar

StartChar: Thorn
Encoding: 44 222 44
Width: 690
VWidth: 0
Flags: HMW
HStem: -461 35<-197.993 -173.741> 690 88<451.81 552.785> 1184 16<512.259 546.115>
VStem: 554 92<482.599 685.797>
DStem2: 221.259 298 272.259 97 0.257663 0.966235<-181.072 444.246 521.123 928.497>
LayerCount: 2
Back
SplineSet
357 778 m 0
 432 778 518 752 518 666 c 0
 518 421 243 -25 103 -29 c 1
 71 -118 36 -196 0 -253 c 0
 -61 -349 -182 -461 -285 -461 c 0
 -309 -461 -328 -450 -328 -440 c 0
 -328 -434 -322 -430 -302 -426 c 0
 -229 -410 -159 -341 -123 -283 c 0
 -23 -125 42 89 93 298 c 0
 290 1114 290 1184 344 1195 c 0
 354 1197 368 1200 384 1200 c 0
 410 1200 419 1195 419 1173 c 0
 419 1147 413 1125 405 1102 c 0
 405 1101 403 1098 403 1096 c 0
 381 1013 353 897 323 776 c 1
 333 778 345 778 357 778 c 0
198 298 m 1
 182 230 163 163 144 97 c 1
 297 266 403 474 426 656 c 1
 411 678 382 690 354 690 c 0
 339 690 316 687 299 677 c 1
 263 533 227 392 198 298 c 1
EndSplineSet
Fore
SplineSet
231 -29 m 1,0,1
 180 -171 180 -171 123 -260.5 c 128,-1,2
 66 -350 66 -350 -15.5 -405.5 c 128,-1,3
 -97 -461 -97 -461 -143.5 -461 c 128,-1,4
 -190 -461 -190 -461 -200 -440 c 1,5,6
 -200 -431 -200 -431 -176 -426 c 1,7,-1
 -174 -426 l 1,8,9
 -94 -408 -94 -408 -22 -321 c 0,10,11
 -6 -302 -6 -302 5 -283 c 0,12,13
 126 -91 126 -91 221 298 c 1,14,-1
 333 770 l 2,15,16
 410 1098 410 1098 428 1143 c 128,-1,17
 446 1188 446 1188 468 1194 c 1,18,19
 486 1200 486 1200 514 1200 c 128,-1,20
 542 1200 542 1200 546 1184 c 0,21,22
 547 1179 547 1179 547 1160.5 c 128,-1,23
 547 1142 547 1142 533 1102 c 1,24,-1
 533 1100 l 1,25,26
 525 1075 525 1075 451 776 c 1,27,28
 462 778 462 778 485 778 c 0,29,30
 595 778 595 778 632 720 c 1,31,32
 646 696 646 696 646 666 c 0,33,34
 646 521 646 521 543.5 323.5 c 128,-1,35
 441 126 441 126 337 30 c 0,36,37
 275 -27 275 -27 231 -29 c 1,0,1
326 298 m 1,38,39
 308 224 308 224 272 97 c 1,40,41
 450 293 450 293 523 517 c 0,42,43
 546 589 546 589 554 656 c 1,44,45
 530 689 530 689 489.5 689 c 128,-1,46
 449 689 449 689 427 677 c 1,47,48
 359 405 359 405 326 298 c 1,38,39
EndSplineSet
Validated: 19457
EndChar

StartChar: U
Encoding: 45 85 45
Width: 704
VWidth: 0
Flags: HMW
HStem: -21 21G<201.224 269.143> 1095 20G
VStem: 548 102<-2.85566 149.82>
DStem2: 280.086 593.439 301.281 246.495 0.278732 0.960369<-426.442 528.253> 650.642 765.607 846.399 963.359 0.383015 0.923742<-218.763 347.74>
LayerCount: 2
Back
SplineSet
285 145 m 1
 293.270525818 145.709001458 302.603859151 151.709001458 313 163 c 0
 419.348435723 286.140293995 531.895694682 487.009279167 650.641776877 765.606955517 c 0
 658.471461483 784.003097323 658.471461483 784.003097323 747 998 c 0
 771.01007144 1056.02433931 790.006574684 1089.17978497 803.989509731 1097.46633697 c 0
 808.313745604 1099.63982203 812.317242361 1100.81770971 816 1101 c 0
 841.528911565 1101 857.283391035 1097.26989189 863.263438411 1089.80967566 c 0
 868.948220818 1081.72061075 871.860408014 1068.7840522 872 1051 c 0
 872 1035.72426042 863.466494802 1006.51073648 846.399484406 963.359428192 c 0
 839.645129122 946.236762608 839.645129122 946.236762608 835 934 c 0
 773.60115236 771.63352118 722.934485693 613.300187847 683 459 c 1
 659.725639437 366.1202512 648.058972771 263.786917867 648 152 c 0
 648.048775562 105.179875094 648.715442229 78.1798750943 650 71 c 0
 654.102992375 50.4850381259 647.743619123 30.178271169 630.921880244 10.0796991294 c 0
 625.83434739 4.41890701767 620.860387309 0.0590073078667 616 -3 c 0
 604.153620776 -9.9103878808 589.478742831 -10.0519222349 571.975366166 -3.42460306238 c 1
 560.813267849 1.53569707884 552.821479127 8.67723143297 548 18 c 0
 538.554647645 37.9922459497 537.416557675 87.7280498773 544.585730088 167.207411783 c 0
 545.364623877 175.61531519 546.169380514 183.212844596 547 190 c 0
 554.085903165 247.089583668 571.752688896 336.954976932 600.000357191 459.596179792 c 0
 603.069571291 472.988611306 603.069571291 472.988611306 605 482 c 1
 527.789486207 312.513506309 463.201951807 191.349638694 411.237396799 118.508397155 c 0
 344.602712072 26.0644662235 283.190246473 -20.4383328282 227 -21 c 1
 192.632274147 -19.7144142433 175.298940813 12.2855857567 175 75 c 0
 175 168.955983249 210.028744201 341.769138829 280.086232604 593.439466738 c 0
 323.429829483 748.938411549 365.067751949 878.12525597 405 981 c 0
 417.868150806 1012.72849042 426.868150806 1037.06182375 432 1054 c 1
 446.195823845 1091.92613668 466.195823845 1111.25947001 492 1112 c 1
 523.434920145 1110.96447603 539.434920145 1096.6311427 540 1069 c 1
 539.733589392 1049.11876861 532.066922725 1019.11876861 517 979 c 0
 412.891745169 701.377987116 340.985307176 457.209808108 301.280686023 246.495462977 c 0
 294.407559409 209.818432122 288.980664068 175.98661113 285 145 c 1
EndSplineSet
Fore
SplineSet
285 145 m 1,0,1
 297 146 297 146 313 163 c 0,2,3
 473 348 473 348 651 766 c 0,4,5
 659 784 659 784 721 934.5 c 128,-1,6
 783 1085 783 1085 804 1097 c 0,7,8
 810 1100 810 1100 832 1100.5 c 128,-1,9
 854 1101 854 1101 863 1089.5 c 128,-1,10
 872 1078 872 1078 872 1053 c 128,-1,11
 872 1028 872 1028 856 987 c 0,12,13
 756 739 756 739 683 459 c 1,14,15
 648 320 648 320 648 201 c 128,-1,16
 648 82 648 82 652 61 c 128,-1,17
 656 40 656 40 639.5 21 c 128,-1,18
 623 2 623 2 610.5 -5.5 c 128,-1,19
 598 -13 598 -13 576 -4 c 0,20,21
 554 4 554 4 544 26 c 0,22,23
 533 50 533 50 545.5 163 c 128,-1,24
 558 276 558 276 580 374 c 2,25,-1
 605 482 l 1,26,27
 489 228 489 228 400 104 c 128,-1,28
 311 -20 311 -20 227 -21 c 1,29,30
 175 -19 175 -19 175 75 c 0,31,32
 175 216 175 216 260 521 c 128,-1,33
 345 826 345 826 384.5 927.5 c 128,-1,34
 424 1029 424 1029 432 1054 c 1,35,36
 453 1111 453 1111 496 1110.5 c 128,-1,37
 539 1110 539 1110 540 1069 c 0,38,39
 540 1039 540 1039 517 979 c 0,40,41
 328 475 328 475 285 145 c 1,0,1
EndSplineSet
Validated: 3105
EndChar

StartChar: V
Encoding: 50 86 50
Width: 542
VWidth: 0
Flags: HMW
HStem: 1050 20G<206.495 209.903 311.327 328.806>
DStem2: 205.686 231.041 264 167 0.577824 0.816162<0 1050.08>
LayerCount: 2
Back
SplineSet
883 1037 m 0
 881.984609667 1035.19904236 880.429002124 1031.97684613 878.33317737 1027.33341132 c 0
 876.933612245 1024.08957668 875.822553121 1021.64510624 875 1020 c 2
 264 167 l 2
 235.998268465 128.456807421 212.792613576 95.1492199707 194.383035335 67.077237648 c 0
 183.066001781 49.7442393934 171.210489825 35.1705619622 158.816499466 23.3562053545 c 1
 137 -73 l 2
 135.715686659 -79.1067707039 134.472429625 -84.1650882429 133.270228896 -88.174952617 c 0
 128.60796071 -102.724984206 117.184551078 -110 99 -110 c 0
 50.2465635555 -109.493852843 25.2465635555 -86.4938528427 24 -41 c 0
 24.0057930235 -36.382960235 24.3391263569 -32.0496269017 25 -28 c 0
 63.1883965023 143.81487301 94.9813993037 280.194677306 120.379008404 381.139412887 c 0
 181.326287737 623.082082738 227.533284936 812.035611776 259 948 c 0
 264.132945115 967.503896513 266.799611781 990.503896513 267 1017 c 1
 265.393864471 1027.90698478 254.88066657 1042.72431403 235.460406297 1061.45198776 c 1
 215.820135432 1077.08807937 206 1091.60408345 206 1105 c 0
 206.037412513 1110.22150543 206.348991269 1115.50655984 206.93473627 1120.85516323 c 0
 210.892505477 1152.28505441 225.247593387 1168 250 1168 c 0
 254.674393133 1167.89985044 259.8530598 1167.08918377 265.536 1165.568 c 0
 290.280924974 1158.12957089 308.435591641 1141.60690423 320 1116 c 0
 331.741598 1090.23227527 337.741598 1056.89894193 338 1016 c 0
 337.517846569 917.515760097 319.014144731 787.259446255 282.488894486 625.231058473 c 1
 247.004952726 471.170440227 225.175321231 365.760087403 217 309 c 1
 214.163153791 283.436001293 210.391915211 257.449502044 205.686284259 231.040502253 c 1
 721 957 l 2
 728.632758695 967.935301707 728.632758695 967.935301707 737.368916346 981.333448268 c 0
 759.744787627 1015.8684766 773.70159111 1035.81406481 779.239326796 1041.17021289 c 0
 794.975178367 1056.39007096 823.562069435 1064 865 1064 c 0
 884.014638267 1063.50056203 890.014638267 1054.50056203 883 1037 c 0
893 1030 m 1
 893 1034 946 1133 946 1133 c 1
 930 1155 886 1168 840 1168 c 0
 776 1168 664 1122 582 1122 c 0
 539 1122 522 1125 498 1134 c 1
 512 1046 515 1016 515 981 c 0
 515 805 326 200 229 200 c 0
 216 200 216 224 216 235 c 0
 221 328 295 646 379 879 c 0
 389 908 412 967 412 992 c 0
 412 997 411 1003 398 1179 c 1
 389 1186 l 1
 379 1186 379 1147 376 1138 c 0
 328 1018 237 938 222 867 c 0
 210 813 206 781 198 742 c 0
 158 541 131 365 131 190 c 0
 131 112 139 3 189 3 c 0
 394 3 595 778 595 963 c 0
 595 986 589 1005 578 1051 c 1
 893 1030 l 1
EndSplineSet
Fore
SplineSet
206 1105 m 0,0,1
 206 1168 206 1168 250 1168 c 0,2,3
 297 1168 297 1168 317.5 1122.5 c 128,-1,4
 338 1077 338 1077 338 1026 c 0,5,6
 338 871 338 871 283.5 632.5 c 128,-1,7
 229 394 229 394 221 332.5 c 128,-1,8
 213 271 213 271 206 231 c 1,9,-1
 779 1041 l 1,10,11
 804 1065 804 1065 865 1064 c 0,12,13
 898 1063 898 1063 883 1037 c 0,14,15
 878 1029 878 1029 878 1021 c 128,-1,16
 878 1013 878 1013 844 966 c 0,17,18
 223 111 223 111 200 76 c 128,-1,19
 177 41 177 41 159 23 c 1,20,-1
 137 -73 l 2,21,22
 134 -84 134 -84 133 -88 c 0,23,24
 126 -110 126 -110 99 -110 c 0,25,26
 24 -109 24 -109 24 -41 c 0,27,28
 24 -30 24 -30 55.5 106.5 c 128,-1,29
 87 243 87 243 107 344 c 128,-1,30
 127 445 127 445 259 948 c 0,31,32
 267 977 267 977 267 1017 c 1,33,34
 265 1033 265 1033 235 1061 c 1,35,36
 206 1084 206 1084 206 1105 c 0,0,1
EndSplineSet
Validated: 19489
EndChar

StartChar: W
Encoding: 51 87 51
Width: 1035
VWidth: 0
Flags: HMW
LayerCount: 2
Back
SplineSet
933 995 m 1
 859 934 717 910 587 910 c 0
 533 910 480 930 429 952 c 1
 390 834 275 618 165 445 c 1
 171 474 l 1
 218 683 283 939 386 1021 c 1
 390 1115 390 1117 390 1117 c 1
 390 1160 336 1181 307 1181 c 0
 290 1181 289 1163 280 1141 c 0
 244 1058 174 995 80 995 c 0
 54 995 43 1010 38 1010 c 0
 34 1010 32 1006 32 981 c 2
 32 954 l 2
 32 931 38 910 61 910 c 0
 85 910 131 941 174 941 c 0
 187 941 200 938 210 933 c 1
 170 786 8 459 8 275 c 0
 8 238 34 165 75 165 c 0
 136 165 202 355 251 381 c 1
 235 171 234 158 234 146 c 0
 234 46 250 -37 307 -40 c 1
 379 -40 497 206 517 269 c 0
 578 461 612 584 646 781 c 1
 680 802 741 818 778 818 c 0
 824 818 842 808 856 806 c 1
 883 806 949 981 949 1000 c 0
 949 1003 947 1006 946 1006 c 0
 942 1006 939 1003 933 995 c 1
323 216 m 1
 330 314 399 618 485 805 c 0
 492 821 515 886 533 886 c 0
 563 886 573 824 573 805 c 0
 573 722 413 187 330 187 c 0
 323 187 323 198 323 216 c 1
EndSplineSet
Fore
SplineSet
939 482 m 1,0,1
 823 228 823 228 734 104 c 128,-1,2
 645 -20 645 -20 561 -21 c 1,3,4
 509 -19 509 -19 509 74 c 128,-1,5
 509 167 509 167 561 386 c 1,6,7
 399 43 399 43 275 -10 c 0,8,9
 250 -20 250 -20 227 -21 c 1,10,11
 175 -19 175 -19 175 75 c 0,12,13
 175 216 175 216 260 521 c 128,-1,14
 345 826 345 826 384.5 927.5 c 128,-1,15
 424 1029 424 1029 432 1054 c 1,16,17
 453 1111 453 1111 496 1110.5 c 128,-1,18
 539 1110 539 1110 540 1069 c 0,19,20
 540 1039 540 1039 517 979 c 0,21,22
 328 475 328 475 285 145 c 1,23,24
 297 146 297 146 313 163 c 1,25,26
 472 348 472 348 650 765 c 1,27,-1
 727 950 l 1,28,-1
 739 981 l 2,29,30
 758 1029 758 1029 766 1054 c 1,31,32
 787 1111 787 1111 830 1110.5 c 128,-1,33
 873 1110 873 1110 874 1069 c 0,34,35
 874 1056 874 1056 872 1040 c 0,36,37
 869 1012 869 1012 851 971 c 128,-1,38
 833 930 833 930 832 926 c 0,39,40
 659 450 659 450 619 145 c 1,41,42
 631 146 631 146 647 163 c 0,43,44
 807 348 807 348 985 766 c 0,45,46
 993 784 993 784 1055 934.5 c 128,-1,47
 1117 1085 1117 1085 1138 1097 c 0,48,49
 1144 1100 1144 1100 1166 1100.5 c 128,-1,50
 1188 1101 1188 1101 1197 1089.5 c 128,-1,51
 1206 1078 1206 1078 1206 1053 c 128,-1,52
 1206 1028 1206 1028 1189.5 986.5 c 128,-1,53
 1173 945 1173 945 1170 937.5 c 128,-1,54
 1167 930 1167 930 1077 771.5 c 128,-1,55
 987 613 987 613 939 482 c 1,0,1
EndSplineSet
Validated: 3105
EndChar

StartChar: X
Encoding: 52 88 52
Width: 387
VWidth: 0
Flags: HMW
HStem: -220 21G<-101.507 -72.9045> 940 20G
VStem: 217 109<662.296 1165.46>
DStem2: -93.0284 -149.769 -15.3166 -178.386 0.633261 0.773939<-42.7542 236.809> 372 15 231.836 156.436 0.299803 -0.954001<-238.737 28.6172>
LayerCount: 2
Back
SplineSet
612 929 m 0
 611.137470647 927.418218595 609.137470647 921.418218595 606 911 c 1
 311.200534341 387.802501755 l 1
 318.1139186 239.583802084 338.380407153 115.316301499 372 15 c 0
 372.560157643 13.1517130236 372.560157643 13.1517130236 373.56498919 10.0200557579 c 0
 381.810332425 -14.8833012711 385.288669362 -30.5566531904 384 -37 c 1
 381.372310508 -43.2861113776 375.705643841 -45.6194447109 367 -44 c 1
 346.398881161 -38.2273397643 324.234188499 -19.2562816983 300.505922012 12.9131741982 c 0
 268.660125541 57.117040942 246.158151537 103.479316209 233 152 c 0
 232.553779926 153.713025415 232.553779926 153.713025415 231.836279928 156.436128293 c 0
 222.305744958 192.296144358 217.207152416 213.418741775 216.540502303 219.803920542 c 1
 91 -3 l 2
 67.0796794495 -44.8707919772 46.5036031105 -82.8654013862 29.2717709829 -116.983828227 c 0
 22.010290197 -131.429066925 10.2530332027 -148.101124183 -6 -167 c 0
 -13.2660758166 -175.925041197 -13.2660758166 -175.925041197 -15.3166254106 -178.386301687 c 0
 -35.6448317216 -202.454796712 -63.8726232514 -216.326029483 -100 -220 c 0
 -102.009569471 -219.690189347 -104.720379967 -217.647032885 -108.132431487 -213.870530612 c 0
 -117.882812758 -200.967514728 -121.172002262 -191.344004524 -118 -185 c 1
 -115.498178119 -178.206512433 -107.174304493 -166.462732998 -93.0283791232 -149.768661696 c 0
 -86.5504775443 -142.28514826 -81.8743511699 -136.695594361 -79 -133 c 0
 -77.1636280993 -130.778717249 -73.6145601322 -124.753947533 -68.3527960989 -114.925690851 c 0
 -54.856684605 -89.0993775501 -38.7390859054 -60.1241472664 -20 -28 c 1
 214.426734515 392.891423195 l 1
 216.140075409 669.8994959 216.997830571 904.602354835 217 1097 c 0
 217.320195384 1123.90125456 230.320195384 1145.90125456 256 1163 c 1
 294 1186 l 2
 302.303110159 1190.66982698 309.197873005 1191.82694844 314.684288539 1189.47136438 c 1
 324.332865404 1183.51090973 328.104769224 1149.35378827 326 1087 c 2
 310 613 l 2
 309.518255783 596.153234982 309.143811717 579.309069569 308.876667802 562.467503762 c 1
 459 832 l 2
 465.055442544 843.099665709 465.055442544 843.099665709 471.842139004 856.469563158 c 0
 491.009696942 894.484889601 503.00091294 916.373901277 507.815786998 922.136598187 c 0
 521.795675488 938.868470972 549.523746489 949.489604909 591 954 c 0
 592.815208691 954.172708219 594.855249798 954.30223906 597.120123321 954.388592524 c 0
 612.472136208 954.535163063 617.432095101 946.072298888 612 929 c 0
336 726 m 0
 334 696 333 666 333 637 c 1
 379 667 429 974 454 1042 c 0
 462 1064 466 1072 475 1072 c 1
 515 1067 530 1018 530 966 c 0
 530 858 461 637 411 518 c 0
 394 476 377 454 355 427 c 0
 327 393 315 359 315 318 c 0
 315 211 374 144 374 80 c 0
 374 53 362 48 350 48 c 0
 285 48 293 178 237 178 c 0
 136 178 27 -203 -88 -203 c 0
 -107 -203 -114 -197 -114 -187 c 0
 -114 -173 -99 -152 -91 -136 c 0
 -19 8 66 131 149 288 c 0
 181 350 213 387 218 448 c 1
 221 637 220 674 224 714 c 0
 234 835 258 936 278 1046 c 1
 282 1082 277 1098 298 1112 c 2
 406 1182 l 2
 408 1184 411 1184 413 1184 c 0
 424 1184 429 1170 429 1160 c 0
 416 1021 347 877 336 726 c 0
EndSplineSet
Fore
SplineSet
612 929 m 0,0,1
 611 927 611 927 606 911 c 1,2,-1
 311 388 l 1,3,4
 321 166 321 166 372 15 c 1,5,6
 388 -17 388 -17 384 -37 c 1,7,8
 380 -46 380 -46 358 -40.5 c 128,-1,9
 336 -35 336 -35 294.5 22 c 128,-1,10
 253 79 253 79 233 152 c 0,11,12
 233 154 233 154 225.5 182 c 128,-1,13
 218 210 218 210 217 220 c 1,14,-1
 91 -3 l 2,15,16
 54 -66 54 -66 36 -102 c 0,17,18
 11 -151 11 -151 -15 -178 c 1,19,20
 -45 -214 -45 -214 -100 -220 c 0,21,22
 -103 -220 -103 -220 -113 -207.5 c 128,-1,23
 -123 -195 -123 -195 -118 -185 c 0,24,25
 -114 -175 -114 -175 -98 -157 c 0,26,27
 -77 -132 -77 -132 -62.5 -104 c 128,-1,28
 -48 -76 -48 -76 -20 -28 c 1,29,-1
 214 393 l 1,30,31
 217 809 217 809 217 1097 c 0,32,33
 217 1137 217 1137 256 1163 c 1,34,-1
 294 1186 l 2,35,36
 306 1193 306 1193 317.5 1186.5 c 128,-1,37
 329 1180 329 1180 326 1087 c 2,38,-1
 310 613 l 2,39,40
 309 588 309 588 309 562 c 1,41,-1
 472 856 l 1,42,43
 501 913 501 913 508 922 c 0,44,45
 529 947 529 947 591 954 c 0,46,47
 594 954 594 954 597 954 c 0,48,49
 620 955 620 955 612 929 c 0,0,1
EndSplineSet
Validated: 19489
EndChar

StartChar: Y
Encoding: 53 89 53
Width: 558
VWidth: 0
Flags: HW
VStem: 253 97<904.455 1176.71>
DStem2: 235 154 345 167 0.38657 0.92226<-295.992 398.824 522.318 1101.75> 393 913 272.534 1009.72 0.169844 -0.985471<-246.645 283.099>
LayerCount: 2
Back
SplineSet
448 -134 m 0
 488 38 516 226 538 376 c 0
 569 595 570 598 619 829 c 2
 662 1035 l 2
 664 1043 666 1051 666 1058 c 0
 666 1083 651 1102 605 1102 c 0
 571 1102 571 1056 550 1005 c 0
 461 790 374 462 282 259 c 0
 254 198 238 168 234 168 c 0
 232 168 230 171 230 177 c 0
 230 192 235 224 245 272 c 0
 285 475 357 811 411 1016 c 0
 419 1045 427 1066 427 1082 c 0
 427 1123 384 1142 352 1142 c 0
 314 1142 304 1082 297 1059 c 0
 210 765 122 318 122 46 c 0
 122 -21 131 -60 160 -60 c 0
 273 -60 440 416 451 512 c 1
 408 120 353 -238 197 -555 c 0
 160 -630 85 -715 14 -738 c 0
 -5 -744 -13 -749 -13 -755 c 0
 -13 -771 6 -782 32 -782 c 0
 136 -782 259 -640 321 -516 c 0
 366 -426 413 -288 448 -134 c 0
EndSplineSet
Fore
SplineSet
756 1161 m 1,0,1
 755 1158 755 1158 755 1156 c 0,2,3
 755 1150 755 1150 752 1138 c 1,4,-1
 345 167 l 1,5,6
 272 -2 272 -2 219.5 -76 c 128,-1,7
 167 -150 167 -150 112 -191 c 128,-1,8
 57 -232 57 -232 35.5 -231 c 128,-1,9
 14 -230 14 -230 15 -220.5 c 128,-1,10
 16 -211 16 -211 30 -194 c 0,11,12
 131 -72 131 -72 235 154 c 1,13,-1
 367 455 l 1,14,15
 295 906 295 906 272.5 1009.5 c 128,-1,16
 250 1113 250 1113 253 1140 c 1,17,18
 257 1163 257 1163 295 1176 c 0,19,20
 310 1181 310 1181 327.5 1180.5 c 128,-1,21
 345 1180 345 1180 350 1162 c 1,22,23
 360 1114 360 1114 393 913 c 128,-1,24
 426 712 426 712 441 634 c 1,25,-1
 617 1075 l 2,26,27
 624 1091 624 1091 635 1125 c 128,-1,28
 646 1159 646 1159 662.5 1170 c 128,-1,29
 679 1181 679 1181 717.5 1181.5 c 128,-1,30
 756 1182 756 1182 756 1161 c 1,0,1
EndSplineSet
Validated: 19489
EndChar

StartChar: Z
Encoding: 55 90 55
Width: 800
VWidth: 0
Flags: HMW
HStem: -12 21G<-21.1612 3.71809> 17 118<135.3 637.875> 1028 97<399.561 825.601>
DStem2: 44.1576 154.718 133.464 104.071 0.657005 0.753886<20.493 1177.6>
LayerCount: 2
Back
SplineSet
1115 717 m 0
 494 320 286 171 66 -67 c 0
 58 -75 50 -80 38 -80 c 0
 -3 -80 -54 -13 -54 18 c 0
 -54 29 -53 37 -46 45 c 0
 114 238 534 712 790 1005 c 1
 534 899 422 859 363 859 c 0
 325 859 258 885 258 914 c 0
 258 925 267 933 290 939 c 1
 421 982 586 1048 742 1098 c 0
 776 1109 802 1115 826 1115 c 0
 872 1115 947 1086 947 1035 c 0
 947 1013 933 989 913 964 c 0
 787 806 494 506 386 376 c 1
 630 531 870 675 1114 811 c 0
 1117 813 1120 814 1123 814 c 0
 1141 814 1149 787 1149 770 c 0
 1149 730 1142 734 1115 717 c 0
EndSplineSet
Fore
SplineSet
826 1036 m 1,0,-1
 398 1020 l 1,1,2
 371 1020 371 1020 340 1024 c 0,3,4
 224 1041 224 1041 224 1083 c 0,5,6
 224 1098 224 1098 254 1100 c 1,7,-1
 256 1100 l 1,8,-1
 455 1116 l 1,9,10
 613 1125 613 1125 738 1125 c 2,11,-1
 934 1125 l 2,12,13
 967 1125 967 1125 984 1082 c 0,14,15
 989 1069 989 1069 988 1056.5 c 128,-1,16
 987 1044 987 1044 947 1040 c 1,17,18
 935 1023 935 1023 916 1002 c 2,19,-1
 133 104 l 1,20,21
 191 108 191 108 339 121 c 0,22,23
 486 134 486 134 520 135 c 0,24,25
 654 139 654 139 677 93 c 0,26,27
 682 85 682 85 682 78 c 0,28,29
 683 66 683 66 671 63.5 c 128,-1,30
 659 61 659 61 651 60 c 2,31,-1
 483 37 l 1,32,33
 329 22 329 22 224 18.5 c 128,-1,34
 119 15 119 15 57 12 c 1,35,36
 35 -12 35 -12 0 -12 c 128,-1,37
 -35 -12 -35 -12 -38.5 13 c 128,-1,38
 -42 38 -42 38 -35 55.5 c 128,-1,39
 -28 73 -28 73 17 124 c 2,40,-1
 826 1036 l 1,0,-1
EndSplineSet
Validated: 3105
EndChar

StartChar: a
Encoding: 56 97 56
Width: 707
VWidth: 0
Flags: HMW
HStem: -40 11<94.0323 124.798> 11 82<508.065 603.535> 745 17<606.032 653.842>
VStem: -2 128<91 215.754> 412 96<93.0391 367.782> 891 3<424 443>
DStem2: 126.032 91 312.696 193.295 0.580827 0.814027<0.194609 458.551> 449.419 339.387 641.032 666 0.242536 0.970142<-69.6707 73.7466>
LayerCount: 2
Back
SplineSet
494 653 m 1
 245 611 99 269 93 91 c 1
 230 272 370 466 494 653 c 1
858 424 m 0
 845 378 635 11 472 11 c 0
 419 11 379 51 379 141 c 0
 379 234 421 341 434 411 c 1
 313 255 142 -40 61 -40 c 0
 10 -40 -35 -5 -35 54 c 0
 -35 150 187 730 448 738 c 0
 467 738 486 730 507 730 c 0
 538 730 531 762 573 762 c 0
 589 762 630 751 630 728 c 0
 630 706 613 688 608 666 c 1
 586 597 475 254 475 134 c 0
 475 109 480 93 493 93 c 0
 566 93 722 290 792 403 c 0
 807 427 817 464 842 464 c 0
 856 464 861 454 861 443 c 0
 861 437 859 429 858 424 c 0
EndSplineSet
Fore
SplineSet
527 653 m 1,0,1
 367 626 367 626 248 443 c 0,2,3
 132 265 132 265 126 91 c 1,4,5
 355 393 355 393 527 653 c 1,0,1
481 738 m 1,6,-1
 540 730 l 1,7,8
 554 730 554 730 569.5 746 c 128,-1,9
 585 762 585 762 609.5 762 c 128,-1,10
 634 762 634 762 648.5 749 c 128,-1,11
 663 736 663 736 663 726.5 c 128,-1,12
 663 717 663 717 653 695 c 128,-1,13
 643 673 643 673 641 666 c 0,14,15
 508 249 508 249 508 134 c 1,16,17
 509 94 509 94 526 93 c 1,18,19
 587 93 587 93 717 253 c 0,20,21
 804 360 804 360 829.5 410 c 128,-1,22
 855 460 855 460 870 463 c 0,23,24
 873 463 873 463 875 464 c 1,25,26
 893 462 893 462 894 443 c 1,27,28
 894 407 894 407 811 281 c 0,29,30
 634 11 634 11 505 11 c 0,31,32
 412 11 412 11 412 141 c 0,33,34
 412 203 412 203 437 295.5 c 128,-1,35
 462 388 462 388 467 411 c 1,36,37
 444 381 444 381 313 193 c 128,-1,38
 182 5 182 5 125 -29 c 0,39,40
 107 -39 107 -39 94 -40 c 1,41,42
 37 -40 37 -40 11 5 c 0,43,44
 -1 27 -1 27 -1.5 68.5 c 128,-1,45
 -2 110 -2 110 60 260 c 0,46,47
 160 502 160 502 287 633 c 0,48,49
 387 735 387 735 481 738 c 1,6,-1
EndSplineSet
Validated: 19489
EndChar

StartChar: acute
Encoding: 59 180 59
Width: 443
VWidth: 0
Flags: HW
HStem: 872 46<70.4658 139.088> 1134 20G<317.5 336.5>
VStem: 74 293
LayerCount: 2
Back
SplineSet
165 960 m 0
 205 993 250 1059 299 1138 c 1
 306 1147 314 1154 323 1154 c 0
 354 1154 374 1101 374 1078 c 0
 374 1013 189 906 146 886 c 0
 130 878 117 872 106 872 c 0
 101 872 66 885 66 909 c 0
 66 914 69 917 74 918 c 0
 114 922 134 934 165 960 c 0
EndSplineSet
Fore
SplineSet
156 953 m 1,0,1
 201 980 201 980 299 1138 c 1,2,3
 312 1153 312 1153 323 1154 c 1,4,5
 350 1154 350 1154 367 1109 c 0,6,7
 373 1091 373 1091 374 1078 c 1,8,9
 374 1026 374 1026 230 934 c 0,10,11
 131 872 131 872 112.5 872 c 128,-1,12
 94 872 94 872 77 887 c 0,13,14
 66 898 66 898 67 907 c 128,-1,15
 68 916 68 916 74 918 c 1,16,17
 118 922 118 922 156 953 c 1,0,1
EndSplineSet
Validated: 19457
EndChar

StartChar: ae
Encoding: 61 230 61
Width: 910
VWidth: 0
Flags: HMW
HStem: -38 70<522.688 687.871> 360 13<1036.96 1050.96> 810 11<751.962 806.179>
VStem: -6 128<91 213.858> 426 91<55.0285 339.489> 749 123<628.547 752.702> 1037 14<360 373>
DStem2: 121.962 91 209.716 62.9229 0.580827 0.814027<0.272697 466.805>
LayerCount: 2
Back
SplineSet
494 653 m 1
 370 466 230 272 93 91 c 1
 99 269 245 611 494 653 c 1
568 490 m 1
 568 515 680 688 715 722 c 1
 718 717 720 712 720 706 c 0
 720 645 594 491 568 490 c 1
437 419 m 1
 411 342 397 270 397 214 c 0
 397 91 440 -38 573 -38 c 0
 769 -38 1022 302 1022 360 c 0
 1022 368 1018 373 1008 373 c 0
 992 373 972 346 962 336 c 0
 838 216 688 32 547 32 c 0
 488 32 488 74 488 134 c 0
 488 202 499 261 520 338 c 1
 610 398 766 552 837 694 c 1
 840 704 843 714 843 723 c 0
 843 791 769 821 723 821 c 0
 672 821 648 776 619 747 c 1
 603 757 587 762 573 762 c 0
 531 762 538 730 507 730 c 0
 486 730 467 738 448 738 c 0
 187 730 -35 150 -35 54 c 0
 -35 -5 10 -40 61 -40 c 0
 111 -40 148 22 210 101 c 0
 284 195 376 332 437 419 c 1
EndSplineSet
Fore
SplineSet
523 653 m 1,0,1
 324 617 324 617 198 363 c 0,2,3
 126 216 126 216 122 91 c 1,4,5
 350 393 350 393 523 653 c 1,0,1
597 490 m 1,6,7
 617 493 617 493 683 576 c 128,-1,8
 749 659 749 659 749 706 c 0,9,10
 749 713 749 713 744 722 c 1,11,12
 724 702 724 702 660.5 608 c 128,-1,13
 597 514 597 514 597 490 c 1,6,7
477 738 m 1,14,-1
 536 730 l 1,15,16
 549 730 549 730 564.5 746 c 128,-1,17
 580 762 580 762 602 762 c 128,-1,18
 624 762 624 762 648 747 c 1,19,20
 650 749 650 749 681.5 785 c 128,-1,21
 713 821 713 821 746 821 c 128,-1,22
 779 821 779 821 806 810 c 0,23,24
 872 783 872 783 872 723 c 0,25,26
 872 714 872 714 866 694 c 1,27,28
 825 613 825 613 734 507 c 128,-1,29
 643 401 643 401 549 338 c 1,30,31
 517 222 517 222 517 157 c 128,-1,32
 517 92 517 92 520 74 c 0,33,34
 529 32 529 32 587 32 c 128,-1,35
 645 32 645 32 721 85.5 c 128,-1,36
 797 139 797 139 883 227 c 128,-1,37
 969 315 969 315 980.5 326 c 128,-1,38
 992 337 992 337 1008 355 c 128,-1,39
 1024 373 1024 373 1036.5 372.5 c 128,-1,40
 1049 372 1049 372 1051 360 c 1,41,42
 1051 347 1051 347 1035 317 c 0,43,44
 986 226 986 226 885 124 c 0,45,46
 725 -38 725 -38 602 -38 c 0,47,48
 544 -38 544 -38 503 -5 c 0,49,50
 426 58 426 58 426 214 c 0,51,52
 426 300 426 300 466 419 c 1,53,54
 460 411 460 411 374 287 c 0,55,56
 288 164 288 164 258 126 c 2,57,-1
 210 63 l 2,58,59
 187 32 187 32 176 19 c 0,60,61
 128 -40 128 -40 97 -40 c 128,-1,62
 66 -40 66 -40 45 -30 c 0,63,64
 -6 -6 -6 -6 -6 54 c 0,65,66
 -6 82 -6 82 15 147 c 0,67,68
 72 327 72 327 174 490 c 0,69,70
 327 733 327 733 477 738 c 1,14,-1
EndSplineSet
Validated: 3073
EndChar

StartChar: ampersand
Encoding: 63 38 63
Width: 994
VWidth: 0
Flags: HMW
HStem: -24 83<194.198 471.555> 163 19<945.749 948.962>
VStem: 67 96<89.5895 374.952> 523 98<867.156 1006.39> 773 86<993.793 1121.4>
LayerCount: 2
Back
SplineSet
720 230 m 0
 720 109 442 -24 272 -24 c 0
 134 -24 38 69 38 194 c 0
 38 486 288 685 498 840 c 1
 496 853 494 866 494 878 c 0
 494 1010 579 1168 722 1168 c 0
 806 1168 830 1142 830 1062 c 0
 830 926 685 853 603 773 c 1
 645 630 704 356 803 253 c 0
 845 209 920 223 920 163 c 0
 920 134 898 115 874 115 c 0
 829 115 786 176 765 205 c 0
 643 368 570 534 520 726 c 1
 357 650 134 421 134 189 c 0
 134 94 203 59 291 59 c 0
 488 59 606 256 707 256 c 0
 720 256 720 238 720 230 c 0
592 867 m 1
 640 934 744 1006 744 1094 c 0
 744 1104 742 1112 741 1122 c 1
 669 1074 592 962 592 867 c 1
EndSplineSet
Fore
SplineSet
163 189 m 0,0,1
 163 59 163 59 320 59 c 0,2,3
 427 59 427 59 550 147 c 1,4,-1
 596 182 l 2,5,6
 675 242 675 242 699.5 249 c 128,-1,7
 724 256 724 256 736.5 255.5 c 128,-1,8
 749 255 749 255 749 230 c 0,9,10
 749 158 749 158 629 82 c 0,11,12
 461 -24 461 -24 301 -24 c 0,13,14
 181 -24 181 -24 114 57 c 0,15,16
 67 115 67 115 67 194 c 0,17,18
 67 434 67 434 303 658 c 0,19,20
 383 734 383 734 527 840 c 1,21,22
 523 866 523 866 523 878 c 0,23,24
 523 988 523 988 587.5 1078 c 128,-1,25
 652 1168 652 1168 739.5 1168 c 128,-1,26
 827 1168 827 1168 843 1137.5 c 128,-1,27
 859 1107 859 1107 859 1062 c 0,28,29
 859 972 859 972 763 884 c 0,30,31
 743 866 743 866 697.5 829 c 128,-1,32
 652 792 652 792 632 773 c 1,33,-1
 656 687 l 1,34,35
 723 441 723 441 762.5 363 c 128,-1,36
 802 285 802 285 825.5 260 c 128,-1,37
 849 235 849 235 893.5 218.5 c 128,-1,38
 938 202 938 202 943.5 187.5 c 128,-1,39
 949 173 949 173 949 163 c 0,40,41
 949 129 949 129 919 118 c 0,42,43
 911 115 911 115 903 115 c 0,44,45
 859 115 859 115 797 201 c 0,46,47
 795 204 795 204 794 205 c 0,48,49
 626 430 626 430 549 726 c 1,50,51
 429 670 429 670 321 547 c 0,52,53
 163 367 163 367 163 189 c 0,0,1
621 867 m 1,54,55
 632 882 632 882 699 954 c 0,56,57
 773 1034 773 1034 773 1094 c 0,58,59
 773 1095 773 1095 770 1122 c 1,60,61
 701 1076 701 1076 661 999.5 c 128,-1,62
 621 923 621 923 621 867 c 1,54,55
EndSplineSet
Validated: 19457
EndChar

StartChar: aring
Encoding: 64 229 64
Width: 707
VWidth: 0
Flags: HW
HStem: -40 11<94.0323 124.798> 11 82<508.065 603.535> 745 17<606.032 653.842> 812 50<518.719 625.695> 996 58<513.818 649.523>
VStem: -2 128<91 215.754> 412 96<93.0391 367.782> 453 51<876.51 980.188> 657 69<871.333 991.002> 891 3<424 443>
DStem2: 126.032 91 312.696 193.295 0.580827 0.814027<0.194609 458.551> 449.419 339.387 641.032 666 0.242536 0.970142<-69.6707 73.7466>
LayerCount: 2
Back
SplineSet
494 653 m 1
 245 611 99 269 93 91 c 1
 230 272 370 466 494 653 c 1
858 424 m 0
 845 378 635 11 472 11 c 0
 419 11 379 51 379 141 c 0
 379 234 421 341 434 411 c 1
 313 255 142 -40 61 -40 c 0
 10 -40 -35 -5 -35 54 c 0
 -35 150 187 730 448 738 c 0
 467 738 486 730 507 730 c 0
 538 730 531 762 573 762 c 0
 589 762 630 751 630 728 c 0
 630 706 614 688 608 666 c 0
 589 595 475 254 475 134 c 0
 475 109 480 93 493 93 c 0
 566 93 722 290 792 403 c 0
 807 427 817 464 842 464 c 0
 856 464 861 454 861 443 c 0
 861 437 859 429 858 424 c 0
450 947 m 0
 450 880 483 811 589 811 c 0
 659 811 723 856 723 934 c 0
 723 987 699 1053 608 1053 c 0
 485 1053 450 987 450 947 c 0
501 938 m 0
 501 957 520 995 589 995 c 0
 640 995 654 957 654 930 c 0
 654 885 619 861 578 861 c 0
 520 861 501 899 501 938 c 0
EndSplineSet
Fore
Refer: 172 730 N 1 0 0 1 272 -319 2
Refer: 56 97 N 1 0 0 1 0 0 2
Validated: 98305
EndChar

StartChar: asciicircum
Encoding: 65 94 65
Width: 715
VWidth: 0
Flags: HMW
HStem: 625 467
VStem: 77 7<653 664>
DStem2: 83.6646 664 318.154 831.67 0.625301 0.780383<160.138 482.447> 492.665 1068 470.665 870 0.277726 -0.96066<56.1435 418.965>
LayerCount: 2
Back
SplineSet
683 653 m 0
 683 634 667 624 650 624 c 0
 632 624 613 635 610 654 c 1
 589 731 558 798 541 870 c 0
 526 930 518 970 513 997 c 1
 419 884 387 820 331 760 c 1
 314 741 l 1
 204 620 206 632 182 632 c 0
 166 632 147 638 147 653 c 0
 147 656 149 659 154 664 c 0
 355 930 416 998 502 1096 c 0
 504 1099 507 1099 510 1099 c 0
 526 1098 543 1092 553 1083 c 1
 557 1081 559 1078 561 1075 c 0
 562 1072 563 1070 563 1068 c 0
 645 764 683 714 683 653 c 0
EndSplineSet
Fore
SplineSet
425 1089 m 1,0,1
 449 1113 449 1113 483 1083 c 1,2,3
 493 1077 493 1077 493 1068 c 1,4,5
 529 936 529 936 571 808.5 c 128,-1,6
 613 681 613 681 613 652.5 c 128,-1,7
 613 624 613 624 582.5 624 c 128,-1,8
 552 624 552 624 542 646 c 0,9,10
 540 650 540 650 538 659 c 128,-1,11
 536 668 536 668 507 754 c 0,12,13
 467 873 467 873 443 997 c 1,14,15
 404 951 404 951 344.5 869 c 128,-1,16
 285 787 285 787 261 760 c 2,17,-1
 244 741 l 2,18,19
 153 640 153 640 132 633 c 0,20,21
 127 632 127 632 103.5 633 c 128,-1,22
 80 634 80 634 77 653 c 1,23,24
 78 658 78 658 84 664 c 1,25,26
 278 920 278 920 346 998 c 2,27,-1
 422 1085 l 1,28,-1
 425 1088 l 1,29,-1
 425 1089 l 1,0,1
EndSplineSet
Validated: 19457
EndChar

StartChar: asciitilde
Encoding: 66 126 66
Width: 950
VWidth: 0
Flags: HW
HStem: 278 69<579.212 774.396> 405 78<223.616 450.301>
VStem: 126 79<285.492 381.002>
DStem2: 790 396 898 386 0.642767 0.766062<-98.6834 144.133>
LayerCount: 2
Back
SplineSet
898 386 m 0
 854 328 786 278 690 278 c 0
 574 278 435 405 315 405 c 0
 272 405 234 389 205 342 c 0
 189 315 198 283 160 283 c 0
 133 283 126 310 126 341 c 0
 126 424 187 483 315 483 c 0
 462 483 576 347 685 347 c 0
 770 347 793 406 842 458 c 0
 858 475 884 491 902 491 c 0
 925 491 933 474 933 453 c 0
 933 426 907 398 898 386 c 0
EndSplineSet
Fore
SplineSet
126 341 m 0,0,1
 126 480 126 480 315 483 c 1,2,3
 392 483 392 483 494 426.5 c 128,-1,4
 596 370 596 370 626 358.5 c 128,-1,5
 656 347 656 347 685 347 c 0,6,7
 746 347 746 347 790 396 c 0,8,9
 797 404 797 404 814 425.5 c 128,-1,10
 831 447 831 447 852 468 c 128,-1,11
 873 489 873 489 902 491 c 1,12,13
 932 489 932 489 932.5 460 c 128,-1,14
 933 431 933 431 915.5 409 c 128,-1,15
 898 387 898 387 898 386 c 0,16,17
 815 279 815 279 690 278 c 0,18,19
 633 278 633 278 522.5 332.5 c 128,-1,20
 412 387 412 387 375.5 396 c 128,-1,21
 339 405 339 405 315 405 c 0,22,23
 244 404 244 404 205 342 c 0,24,25
 202 338 202 338 192 307 c 1,26,27
 183 284 183 284 154.5 284.5 c 128,-1,28
 126 285 126 285 126 341 c 0,0,1
EndSplineSet
Validated: 19457
EndChar

StartChar: asterisk
Encoding: 67 42 67
Width: 788
VWidth: 0
Flags: HMW
HStem: 910 53<278.961 293.291>
VStem: 453 61<819.802 1042.49> 483 52<453.096 653.381>
DStem2: 310.671 950 265.671 910 0.744104 -0.668064<-19.0388 197.568 359.386 554.021> 281.671 600 330.716 559.513 0.766485 0.642263<-25.3339 185.474 324.591 541.231>
LayerCount: 2
Back
SplineSet
440 717 m 1
 515 642 544 610 555 594 c 1
 562 582 564 571 565 560 c 0
 565 549 560 534 549 534 c 0
 546 534 541 536 536 541 c 0
 483 590 437 631 398 666 c 1
 398 658 l 2
 398 552 398 509 394 490 c 0
 389 469 374 450 355 450 c 0
 349 450 342 451 342 466 c 1
 335 545 330 611 326 668 c 1
 275 626 237 596 200 568 c 0
 186 557 173 541 157 541 c 0
 142 541 118 558 118 571 c 0
 118 581 133 594 141 600 c 0
 218 662 268 708 308 745 c 1
 225 818 175 860 125 910 c 0
 122 914 120 918 120 923 c 0
 120 942 137 963 146 963 c 0
 154 963 162 957 170 950 c 0
 228 891 276 851 317 818 c 1
 313 901 312 957 312 1018 c 0
 312 1035 344 1045 357 1045 c 0
 370 1045 373 1019 373 1006 c 0
 375 923 381 863 386 813 c 1
 406 829 l 1
 538 925 544 930 571 930 c 0
 586 930 602 922 602 910 c 0
 602 906 598 902 594 898 c 0
 521 834 463 783 414 741 c 1
 440 717 l 1
EndSplineSet
Fore
SplineSet
261 923 m 0,0,1
 261 954 261 954 287 963 c 1,2,3
 297 962 297 962 311 950 c 1,4,5
 376 884 376 884 458 818 c 1,6,7
 453 922 453 922 453 1018 c 0,8,9
 453 1036 453 1036 487 1044 c 0,10,11
 494 1045 494 1045 498 1045 c 0,12,13
 514 1044 514 1044 515 983 c 128,-1,14
 516 922 516 922 527 813 c 1,15,-1
 547 829 l 1,16,17
 670 919 670 919 684.5 924.5 c 128,-1,18
 699 930 699 930 718 930 c 128,-1,19
 737 930 737 930 742 914 c 0,20,21
 744 907 744 907 735 898 c 2,22,-1
 555 741 l 1,23,-1
 581 717 l 1,24,25
 678 620 678 620 691 599.5 c 128,-1,26
 704 579 704 579 704 558 c 128,-1,27
 704 537 704 537 690 534 c 1,28,29
 683 535 683 535 677 541 c 2,30,-1
 539 666 l 1,31,-1
 539 658 l 2,32,33
 539 509 539 509 533 483 c 0,34,35
 525 450 525 450 496 450 c 1,36,37
 484 453 484 453 483 466 c 0,38,39
 474 565 474 565 467 668 c 1,40,-1
 341 568 l 1,41,42
 314 541 314 541 296.5 541 c 128,-1,43
 279 541 279 541 269 554 c 128,-1,44
 259 567 259 567 259.5 575 c 128,-1,45
 260 583 260 583 311 623.5 c 128,-1,46
 362 664 362 664 449 745 c 1,47,48
 299 877 299 877 266 910 c 1,49,50
 261 917 261 917 261 923 c 0,0,1
EndSplineSet
Validated: 8408065
EndChar

StartChar: at
Encoding: 68 64 68
Width: 1036
VWidth: 0
Flags: HMW
HStem: -66 66<379.143 742.811> -61 136<738.782 838.497> 149 56<667.77 746.038> 730 84<374.207 794.74>
VStem: 77 74<219.355 539.623> 311 89<205 323.712> 600 68<205.559 403.234> 890 74<400.641 637.332>
DStem2: 399.665 205 520.695 262.621 0.583977 0.81177<2.15791 321.407> 628.804 388.999 741.523 543.759 0.232645 0.972562<-138.75 41.1974>
LayerCount: 2
Back
SplineSet
752 597 m 1
 576 568 475 328 470 205 c 1
 566 331 664 466 752 597 c 1
654 -66 m 0
 272 -66 147 190 147 430 c 0
 147 576 275 814 725 814 c 0
 953 814 1034 667 1034 570 c 0
 1034 360 850 149 736 149 c 0
 699 149 670 176 670 238 c 0
 670 304 699 379 709 429 c 1
 623 321 506 112 448 112 c 0
 413 112 381 138 381 179 c 0
 381 246 536 651 718 656 c 0
 733 656 746 651 760 651 c 0
 782 651 778 675 806 674 c 0
 818 674 846 666 846 650 c 0
 846 634 834 622 830 606 c 0
 818 558 738 318 738 235 c 0
 738 216 741 205 750 205 c 0
 827 205 960 363 960 514 c 0
 960 669 832 730 699 730 c 0
 325 730 221 531 221 410 c 0
 221 213 322 0 638 0 c 0
 850 0 826 75 923 75 c 0
 939 75 950 69 950 54 c 0
 950 -58 722 -66 654 -66 c 0
EndSplineSet
Fore
SplineSet
682 597 m 1,0,1
 560 577 560 577 474 431 c 0,2,3
 410 323 410 323 400 217 c 0,4,5
 399 210 399 210 400 205 c 1,6,7
 558 413 558 413 682 597 c 1,0,1
690 651 m 1,8,9
 700 651 700 651 711 662.5 c 128,-1,10
 722 674 722 674 746.5 674 c 128,-1,11
 771 674 771 674 776 650 c 1,12,13
 776 643 776 643 768.5 626.5 c 128,-1,14
 761 610 761 610 759 602.5 c 128,-1,15
 757 595 757 595 712.5 447 c 128,-1,16
 668 299 668 299 668.5 252.5 c 128,-1,17
 669 206 669 206 680 205 c 1,18,19
 731 204 731 204 801 286 c 0,20,21
 890 390 890 390 890 521 c 128,-1,22
 890 652 890 652 765 705 c 0,23,24
 705 730 705 730 629 730 c 0,25,26
 339 730 339 730 215 580 c 1,27,28
 151 501 151 501 151 410 c 0,29,30
 151 219 151 219 261 109.5 c 128,-1,31
 371 0 371 0 568 0 c 0,32,33
 691 0 691 0 746 33 c 128,-1,34
 801 66 801 66 817 70.5 c 128,-1,35
 833 75 833 75 856 74 c 128,-1,36
 879 73 879 73 880 54 c 1,37,38
 880 -40 880 -40 679 -61 c 0,39,40
 633 -66 633 -66 584 -66 c 0,41,42
 279 -66 279 -66 151 142 c 0,43,44
 77 264 77 264 77 430 c 0,45,46
 77 544 77 544 160 640 c 0,47,48
 306 808 306 808 633 814 c 0,49,50
 644 814 644 814 655 814 c 0,51,52
 837 814 837 814 920 699 c 0,53,54
 964 638 964 638 964 570 c 0,55,56
 964 429 964 429 880 311 c 0,57,58
 764 149 764 149 666 149 c 0,59,60
 614 149 614 149 602 208 c 0,61,62
 592 253 592 253 629 389 c 0,63,64
 636 415 636 415 639 429 c 1,65,66
 622 408 622 408 524 268 c 0,67,68
 415 112 415 112 376 112 c 128,-1,69
 337 112 337 112 318 147 c 0,70,71
 310 162 310 162 311 179 c 1,72,73
 311 224 311 224 363 343 c 0,74,75
 448 538 448 538 550 616 c 0,76,77
 601 654 601 654 648 656 c 1,78,-1
 690 651 l 1,8,9
EndSplineSet
Validated: 8408097
EndChar

StartChar: b
Encoding: 70 98 70
Width: 597
VWidth: 0
Flags: HMW
HStem: -61 4<231.592 250.258> 192 24<26.2581 50.2581> 670 79<463.132 570.91> 1279 4<554.258 584.905>
VStem: 26 28<216 280> 184 98<32.8919 373.382> 501 125<1155.41 1279.43> 554 31<1278.66 1283> 571 82<500.646 669.334>
LayerCount: 2
Back
SplineSet
274 160 m 0
 274 283 371 670 546 670 c 0
 552 670 563 670 563 651 c 0
 563 561 378 125 296 125 c 0
 283 125 274 136 274 160 c 0
96 235 m 0
 154 322 222 442 275 514 c 1
 229 427 176 235 176 98 c 0
 176 13 195 -61 242 -61 c 0
 387 -61 645 528 645 653 c 0
 645 714 602 749 544 749 c 0
 501 749 450 733 405 706 c 1
 432 875 520 1062 611 1219 c 0
 616 1227 618 1234 618 1240 c 0
 618 1267 579 1283 546 1283 c 0
 517 1283 497 1272 493 1254 c 0
 462 1108 242 585 46 280 c 0
 30 254 18 231 18 216 c 0
 18 202 27 192 42 192 c 0
 67 192 83 216 96 235 c 0
EndSplineSet
Fore
SplineSet
282 160 m 1,0,1
 283 127 283 127 304 125 c 1,2,3
 319 125 319 125 341 146 c 0,4,5
 408 211 408 211 489.5 401 c 128,-1,6
 571 591 571 591 571 651 c 1,7,8
 570 667 570 667 554 670 c 1,9,10
 523 670 523 670 493 654 c 0,11,12
 395 600 395 600 328 394 c 0,13,14
 282 253 282 253 282 160 c 1,0,1
250 -61 m 0,15,16
 185 -61 185 -61 184 98 c 0,17,18
 184 165 184 165 208 290.5 c 128,-1,19
 232 416 232 416 283 514 c 1,20,21
 252 472 252 472 190 371.5 c 128,-1,22
 128 271 128 271 104 235 c 1,23,-1
 104 234 l 1,24,25
 76 192 76 192 52 192.5 c 128,-1,26
 28 193 28 193 26 216 c 1,27,28
 26 235 26 235 54 280 c 0,29,30
 190 492 190 492 332.5 811.5 c 128,-1,31
 475 1131 475 1131 501 1254 c 1,32,33
 508 1282 508 1282 554 1283 c 0,34,35
 569 1283 569 1283 585 1279 c 0,36,37
 626 1267 626 1267 626 1240 c 0,38,39
 626 1231 626 1231 619 1219 c 0,40,41
 448 924 448 924 413 706 c 1,42,43
 484 748 484 748 552 749 c 0,44,45
 576 749 576 749 596 741 c 0,46,47
 653 719 653 719 653 653 c 0,48,49
 653 613 653 613 603.5 467.5 c 128,-1,50
 554 322 554 322 440.5 130.5 c 128,-1,51
 327 -61 327 -61 250 -61 c 0,15,16
EndSplineSet
Validated: 8408097
Substitution2: "Single Substitution lookup 1 subtable" b.alt1
EndChar

StartChar: b.alt1
Encoding: 71 -1 71
Width: 464
VWidth: 0
Flags: HW
HStem: -61 186<76 186.256> 670 79<316.485 425.045>
VStem: 40 98<125.037 357.24> 426 83<498.293 669.796>
LayerCount: 2
Back
SplineSet
138 160 m 0
 138 136 147 125 160 125 c 0
 242 125 427 561 427 651 c 0
 427 670 416 670 410 670 c 0
 235 670 138 283 138 160 c 0
357 1254 m 1
 360 1272 382 1283 410 1283 c 0
 443 1283 482 1267 482 1240 c 0
 482 1234 480 1227 475 1219 c 0
 384 1062 296 875 269 706 c 1
 314 733 365 749 408 749 c 0
 466 749 509 714 509 653 c 0
 509 528 251 -61 106 -61 c 0
 59 -61 40 8 40 98 c 0
 40 235 94 419 357 1254 c 1
EndSplineSet
Fore
SplineSet
141 206 m 0,0,1
 138 179 138 179 138 152.5 c 128,-1,2
 138 126 138 126 160 125 c 1,3,4
 208 125 208 125 295.5 296 c 128,-1,5
 383 467 383 467 417 597 c 0,6,7
 426 633 426 633 426 651.5 c 128,-1,8
 426 670 426 670 410 670 c 0,9,10
 302 670 302 670 219 486 c 0,11,12
 158 351 158 351 141 206 c 0,0,1
357 1254 m 1,13,14
 369 1280 369 1280 412 1281.5 c 128,-1,15
 455 1283 455 1283 468.5 1266.5 c 128,-1,16
 482 1250 482 1250 481.5 1240 c 128,-1,17
 481 1230 481 1230 475 1219 c 0,18,19
 304 923 304 923 269 706 c 1,20,21
 341 749 341 749 408 749 c 128,-1,22
 475 749 475 749 500 698 c 0,23,24
 509 678 509 678 509 653 c 0,25,26
 509 580 509 580 414 358 c 128,-1,27
 319 136 319 136 215 14 c 0,28,29
 151 -60 151 -60 106 -61 c 1,30,31
 46 -61 46 -61 41 73 c 0,32,33
 41 86 41 86 40 98 c 1,34,35
 40 200 40 200 98.5 410 c 128,-1,36
 157 620 157 620 357 1254 c 1,13,14
EndSplineSet
Validated: 19457
EndChar

StartChar: backslash
Encoding: 72 92 72
Width: 589
VWidth: 0
Flags: HMW
HStem: -86 33<411 445> 1147 29<157 213>
VStem: 158 325
DStem2: 261 1088 158 1136 0.208124 -0.978102<-79.192 157.212 761.924 1126.09>
LayerCount: 2
Back
SplineSet
261 1088 m 1
 334 693 373 534 416 342 c 0
 466 118 483 19 483 -18 c 0
 483 -65 470 -86 445 -86 c 0
 429 -86 417 -75 411 -53 c 0
 219 661 204 877 158 1136 c 0
 157 1141 157 1144 157 1147 c 0
 160 1168 192 1176 213 1176 c 0
 245 1176 258 1115 261 1088 c 1
EndSplineSet
Fore
SplineSet
213 1176 m 1,0,1
 246 1176 246 1176 261 1088 c 1,2,3
 321 764 321 764 367 560 c 2,4,-1
 416 342 l 2,5,6
 483 42 483 42 482.5 -21.5 c 128,-1,7
 482 -85 482 -85 445 -86 c 1,8,9
 420 -84 420 -84 411 -53 c 0,10,11
 260 507 260 507 194 913 c 2,12,13
 158 1136 l 2,14,15
 157 1142 157 1142 157 1147 c 1,16,17
 169 1172 169 1172 213 1176 c 1,0,1
EndSplineSet
Validated: 19489
EndChar

StartChar: bar
Encoding: 73 124 73
Width: 456
VWidth: 0
Flags: HMW
VStem: 81 80<-281.706 -72.1429> 276 82<946.152 989.595>
DStem2: 92.1919 -163 237.192 122 0.166443 0.986051<-83.0171 680.074 1074.52 1136.82>
LayerCount: 2
Back
SplineSet
496 883 m 1
 422 486 420 314 382 122 c 0
 338 -99 318 -195 306 -227 c 0
 294 -258 275 -285 254 -285 c 0
 230 -285 226 -264 226 -246 c 0
 226 -211 233 -187 237 -163 c 0
 338 510 374 715 421 966 c 0
 424 984 438 990 454 990 c 0
 491 990 504 976 504 946 c 0
 504 925 501 899 496 883 c 1
EndSplineSet
Fore
SplineSet
359 956 m 1,0,1
 364 932 364 932 337 798.5 c 128,-1,2
 310 665 310 665 281.5 433.5 c 128,-1,3
 253 202 253 202 214 6 c 128,-1,4
 175 -190 175 -190 156.5 -237 c 128,-1,5
 138 -284 138 -284 109 -285 c 1,6,7
 81 -284 81 -284 81 -254.5 c 128,-1,8
 81 -225 81 -225 142 175 c 128,-1,9
 203 575 203 575 276 966 c 0,10,11
 281 989 281 989 317.5 989.5 c 128,-1,12
 354 990 354 990 359 956 c 1,0,1
EndSplineSet
Validated: 19489
EndChar

StartChar: braceleft
Encoding: 74 123 74
Width: 521
VWidth: 0
Flags: HW
HStem: -291 102<223.374 295.565> 957 115<420.481 522.594>
VStem: 126 85<-185.067 28.6368> 269 94<197.026 367.76> 357 56<795.545 944.08> 366 69<663.283 833.455>
LayerCount: 2
Back
SplineSet
523 923 m 0
 498 923 499 957 475 957 c 0
 434 957 413 910 413 877 c 0
 413 834 435 792 435 752 c 0
 435 629 395 528 341 438 c 1
 357 400 363 363 363 328 c 0
 363 160 211 35 211 -125 c 0
 211 -154 211 -189 243 -189 c 0
 258 -189 275 -174 298 -174 c 0
 331 -174 342 -203 342 -227 c 0
 342 -264 296 -291 246 -291 c 0
 149 -291 126 -198 126 -122 c 0
 126 42 269 235 269 346 c 0
 269 352 269 358 267 363 c 1
 267 357 262 354 258 354 c 0
 238 354 194 398 194 438 c 0
 194 493 366 629 366 782 c 0
 366 827 357 885 357 939 c 0
 357 1026 414 1072 466 1072 c 0
 509 1072 547 1040 547 970 c 0
 547 950 544 923 523 923 c 0
EndSplineSet
Fore
SplineSet
366 782 m 1,0,-1
 357 939 l 1,1,2
 357 1021 357 1021 415 1057 c 0,3,4
 440 1072 440 1072 466 1072 c 0,5,6
 520 1072 520 1072 539 1019 c 0,7,8
 547 997 547 997 546.5 960.5 c 128,-1,9
 546 924 546 924 523 923 c 0,10,11
 510 923 510 923 498 939.5 c 128,-1,12
 486 956 486 956 475 957 c 1,13,14
 436 957 436 957 419 910 c 0,15,16
 413 893 413 893 413 877 c 1,17,-1
 435 752 l 1,18,19
 434 594 434 594 341 438 c 1,20,21
 363 385 363 385 363 314 c 128,-1,22
 363 243 363 243 287 98.5 c 128,-1,23
 211 -46 211 -46 211 -111 c 128,-1,24
 211 -176 211 -176 223 -182.5 c 128,-1,25
 235 -189 235 -189 243 -189 c 1,26,-1
 298 -174 l 1,27,28
 342 -174 342 -174 342 -218.5 c 128,-1,29
 342 -263 342 -263 296 -282 c 0,30,31
 272 -291 272 -291 246 -291 c 0,32,33
 126 -291 126 -291 126 -122 c 0,34,35
 126 -34 126 -34 188.5 111 c 128,-1,36
 251 256 251 256 260 289.5 c 128,-1,37
 269 323 269 323 269 340.5 c 128,-1,38
 269 358 269 358 267 363 c 1,39,40
 266 355 266 355 252 354.5 c 128,-1,41
 238 354 238 354 216.5 384 c 128,-1,42
 195 414 195 414 194.5 436.5 c 128,-1,43
 194 459 194 459 258 544 c 0,44,45
 366 687 366 687 366 782 c 1,0,-1
EndSplineSet
Validated: 19489
EndChar

StartChar: braceright
Encoding: 75 125 75
Width: 691
VWidth: 0
Flags: HW
HStem: -288 115<109.406 211.719> 973 102<336.435 408.626>
VStem: 197 68<-49.4545 120.717> 219 56<-160.019 -11.5455> 269 169<347.66 420.925> 421 84<756.532 969.068>
LayerCount: 2
Back
SplineSet
130 -139 m 0
 155 -139 154 -173 178 -173 c 0
 219 -173 240 -126 240 -93 c 0
 240 -50 218 -8 218 32 c 0
 218 155 258 256 312 346 c 1
 296 384 290 421 290 456 c 0
 290 624 442 749 442 909 c 0
 442 938 442 973 410 973 c 0
 395 973 378 958 355 958 c 0
 322 958 310 987 310 1011 c 0
 310 1048 357 1075 406 1075 c 0
 504 1075 526 982 526 906 c 0
 526 742 384 549 384 438 c 0
 384 432 384 426 386 421 c 1
 386 427 390 430 395 430 c 0
 414 430 459 386 459 346 c 0
 459 291 286 155 286 2 c 0
 286 -43 296 -101 296 -155 c 0
 296 -242 238 -288 187 -288 c 0
 144 -288 106 -256 106 -186 c 0
 106 -166 109 -139 130 -139 c 0
EndSplineSet
Fore
SplineSet
265 2 m 1,0,-1
 275 -155 l 1,1,2
 275 -236 275 -236 218 -272 c 0,3,4
 193 -287 193 -287 166 -288 c 1,5,6
 112 -288 112 -288 93 -235 c 0,7,8
 85 -213 85 -213 85.5 -176.5 c 128,-1,9
 86 -140 86 -140 109 -139 c 0,10,11
 122 -139 122 -139 134 -155.5 c 128,-1,12
 146 -172 146 -172 157 -173 c 1,13,14
 196 -173 196 -173 213 -126 c 0,15,16
 219 -109 219 -109 219 -93 c 1,17,-1
 197 32 l 1,18,19
 198 190 198 190 291 346 c 1,20,21
 269 399 269 399 269 468.5 c 128,-1,22
 269 538 269 538 327.5 651.5 c 128,-1,23
 386 765 386 765 403.5 809.5 c 128,-1,24
 421 854 421 854 421 907 c 128,-1,25
 421 960 421 960 409 966.5 c 128,-1,26
 397 973 397 973 389 973 c 1,27,-1
 334 958 l 1,28,29
 298 958 298 958 291 997 c 0,30,31
 290 1004 290 1004 289 1011 c 1,32,33
 289 1047 289 1047 336 1066 c 0,34,35
 359 1075 359 1075 385 1075 c 0,36,37
 505 1075 505 1075 505 906 c 0,38,39
 505 818 505 818 443 673 c 0,40,41
 380 528 380 528 372 494 c 0,42,43
 358 438 358 438 365 421 c 1,44,45
 367 429 367 429 379.5 429.5 c 128,-1,46
 392 430 392 430 415 400 c 128,-1,47
 438 370 438 370 438 348 c 0,48,49
 438 324 438 324 374 240 c 0,50,51
 267 100 267 100 265 2 c 1,0,-1
EndSplineSet
Validated: 3105
EndChar

StartChar: bracketleft
Encoding: 76 91 76
Width: 688
VWidth: 0
Flags: HMW
HStem: -160 115<271.267 626.249> -160 90<270 626.186> 1022 77<559.116 798.252>
VStem: 174 637
DStem2: 187 -48 270 -70 0.26491 0.964273<0.773538 1145.07>
LayerCount: 2
Back
SplineSet
707 1024 m 0
 672 1024 598 1022 570 1022 c 1
 474 699 368 254 270 -70 c 1
 384 -61 507 -70 613 -46 c 0
 616 -45 622 -45 629 -45 c 0
 643 -45 659 -50 659 -62 c 0
 659 -128 539 -149 502 -152 c 0
 408 -160 368 -160 238 -160 c 0
 189 -160 174 -139 174 -110 c 0
 174 -92 180 -68 187 -48 c 0
 282 240 371 635 461 976 c 0
 483 1058 475 1098 518 1098 c 0
 623 1098 811 1109 811 1069 c 0
 811 1048 771 1024 707 1024 c 0
EndSplineSet
Fore
SplineSet
707 1024 m 2,0,1
 570 1022 l 1,2,3
 533 899 533 899 424 490 c 128,-1,4
 315 81 315 81 270 -70 c 1,5,6
 310 -67 310 -67 427.5 -64 c 128,-1,7
 545 -61 545 -61 581 -53 c 0,8,9
 657 -36 657 -36 659 -62 c 1,10,11
 659 -119 659 -119 549 -144 c 0,12,13
 480 -160 480 -160 238 -160 c 1,14,15
 174 -159 174 -159 174 -110 c 0,16,17
 174 -85 174 -85 214 33 c 128,-1,19
 254 151 254 151 344 512 c 2,20,-1
 461 976 l 2,21,22
 467 998 467 998 475.5 1040.5 c 128,-1,23
 484 1083 484 1083 494 1090.5 c 128,-1,24
 504 1098 504 1098 520 1098 c 128,-1,25
 536 1098 536 1098 570 1098.5 c 128,-1,26
 604 1099 604 1099 687 1099 c 128,-1,27
 770 1099 770 1099 790 1088 c 128,-1,28
 810 1077 810 1077 811 1069 c 1,29,30
 811 1048 811 1048 776.5 1036 c 128,-1,31
 742 1024 742 1024 707 1024 c 2,0,1
EndSplineSet
Validated: 8391713
EndChar

StartChar: bracketright
Encoding: 77 93 77
Width: 666
VWidth: 0
Flags: HMW
HStem: -163 74<59.8786 308.757> 1005 89<244.826 598>
VStem: 58 636 210 30<979 997>
DStem2: 299 -88 395.286 -97.1103 0.263864 0.96456<-12.4933 1133.16>
LayerCount: 2
Back
SplineSet
162 -90 m 0
 197 -90 270 -88 299 -88 c 1
 395 235 501 680 598 1005 c 1
 485 995 362 1005 256 981 c 1
 253 979 246 979 240 979 c 0
 226 979 210 984 210 997 c 0
 210 1062 330 1083 366 1086 c 0
 461 1094 501 1094 630 1094 c 0
 680 1094 694 1074 694 1045 c 0
 694 1026 689 1002 682 982 c 0
 587 694 498 299 408 -42 c 0
 386 -123 393 -163 350 -163 c 0
 294 -163 170 -164 115 -162 c 0
 75 -161 58 -149 58 -134 c 0
 58 -114 98 -90 162 -90 c 0
EndSplineSet
Fore
SplineSet
162 -90 m 2,0,1
 299 -88 l 1,2,3
 338 42 338 42 446 450 c 128,-1,4
 554 858 554 858 598 1005 c 1,5,6
 582 1004 582 1004 449 999 c 128,-1,7
 316 994 316 994 284 986 c 0,8,9
 212 969 212 969 210 997 c 1,10,11
 210 1054 210 1054 320 1079 c 0,12,13
 382 1094 382 1094 630 1094 c 1,14,15
 693 1091 693 1091 694 1045 c 0,16,17
 694 1016 694 1016 655 899.5 c 128,-1,18
 616 783 616 783 526 422 c 2,19,-1
 408 -42 l 2,20,21
 402 -63 402 -63 393.5 -105 c 128,-1,22
 385 -147 385 -147 373 -156 c 0,23,24
 364 -162 364 -162 350 -163 c 1,25,26
 142 -163 142 -163 100.5 -161.5 c 128,-1,27
 59 -160 59 -160 58 -134 c 0,28,29
 58 -114 58 -114 92 -102 c 128,-1,30
 126 -90 126 -90 162 -90 c 2,0,1
EndSplineSet
Validated: 8408097
EndChar

StartChar: brokenbar
Encoding: 78 166 78
Width: 445
VWidth: 0
Flags: HMW
HStem: 989 1<294 308.159>
VStem: 66 80<-281.706 -62.9315>
DStem2: 77 -163 222 122 0.175082 0.984554<-82.9888 397.589 681.141 703.983>
LayerCount: 2
Back
SplineSet
280 530 m 0
 293 626 309 738 336 883 c 0
 339 899 344 925 344 946 c 0
 344 976 331 990 294 990 c 0
 277 990 264 984 261 966 c 0
 235 834 213 715 184 533 c 0
 182 525 181 517 181 510 c 0
 181 485 197 474 216 474 c 0
 243 474 275 496 280 530 c 0
222 122 m 0
 179 -99 158 -195 146 -227 c 0
 135 -258 114 -285 94 -285 c 0
 70 -285 66 -264 66 -246 c 0
 66 -211 73 -187 77 -163 c 2
 126 158 l 1
 137 219 190 246 214 246 c 0
 227 246 237 238 237 213 c 0
 237 179 227 149 222 122 c 0
EndSplineSet
Fore
SplineSet
294 990 m 1,0,1
 344 990 344 990 344 946 c 0,2,3
 344 926 344 926 325 824 c 128,-1,4
 306 722 306 722 280 530 c 0,5,6
 278 517 278 517 264 495.5 c 128,-1,7
 250 474 250 474 218 475.5 c 128,-1,8
 186 477 186 477 181 510 c 1,9,10
 181 558 181 558 261 966 c 0,11,12
 266 988 266 988 294 990 c 1,0,1
187 239 m 0,13,14
 202 246 202 246 219 245 c 128,-1,15
 236 244 236 244 236.5 218.5 c 128,-1,16
 237 193 237 193 230 159 c 2,17,-1
 193 -28 l 2,18,19
 163 -182 163 -182 146 -228 c 0,20,21
 125 -285 125 -285 94 -285 c 1,22,23
 66 -284 66 -284 66 -254.5 c 128,-1,24
 66 -225 66 -225 77 -163 c 1,25,-1
 126 158 l 1,26,27
 136 215 136 215 187 239 c 0,13,14
EndSplineSet
Validated: 19457
EndChar

StartChar: bullet
Encoding: 79 8226 79
Width: 750
VWidth: 0
Flags: HW
HStem: 341 325<241.773 485.107>
VStem: 178 356<404.838 620.963>
LayerCount: 2
Back
SplineSet
178 546 m 0
 178 461 222 341 358 341 c 0
 453 341 534 398 534 502 c 0
 534 570 496 666 378 666 c 0
 270 666 178 638 178 546 c 0
EndSplineSet
Fore
SplineSet
178 546 m 0,0,1
 179 665 179 665 378 666 c 0,2,3
 442 666 442 666 488 623.5 c 128,-1,4
 534 581 534 581 534 513 c 128,-1,5
 534 445 534 445 502 404 c 0,6,7
 453 341 453 341 367 341 c 128,-1,8
 281 341 281 341 229.5 396 c 128,-1,9
 178 451 178 451 178 546 c 0,0,1
EndSplineSet
Validated: 19457
EndChar

StartChar: c
Encoding: 80 99 80
Width: 593
VWidth: 0
Flags: HMW
HStem: -54 70<170.635 341.032> 318 12<701.858 714.858> 384 16<324.858 343.858> 691 96<330.667 401.427>
VStem: 11 152<114 238> 62 101<84.7347 214> 702 13<318 330>
LayerCount: 2
Back
SplineSet
508.858 704 m 1
 506.254 675.204 485.045 617.897 445.231 532.078 c 1
 398.507 433.359 364.716 384 343.858 384 c 1
 333.831 386.151 327.498 391.484 324.858 400 c 1
 325.035 405.569 327.035 410.236 330.858 414 c 0
 339.935 424.858 349.25 439.692 358.804 458.501 c 0
 388.173 517.379 402.858 573.212 402.858 626 c 0
 402.7 653.609 397.033 675.275 385.858 691 c 1
 367.574 690.377 346.627 672.108 323.018 636.194 c 0
 279.824 568.682 236.771 461.617 193.858 315 c 0
 173.4 244.635 163.067 177.635 162.858 114 c 0
 162.859 101.581 163.078 91.7113 163.516 84.3896 c 0
 166.492 38.7966 185.606 16 220.858 16 c 0
 320.448 16 464.781 108.667 653.858 294 c 0
 655.144 295.308 655.144 295.308 657.826 298.1 c 0
 677.964 319.367 692.642 330 701.858 330 c 0
 709.068 329.395 713.401 325.395 714.858 318 c 1
 714.576 306.945 707.843 290.331 694.66 268.156 c 0
 659.808 210.698 606.391 150.401 534.409 87.2656 c 0
 427.037 -6.91146 334.854 -54 257.858 -54 c 0
 207.472 -53.6322 165.058 -32.4102 130.618 9.66602 c 1
 90.0687 60.4811 67.1488 128.592 61.8584 214 c 1
 48.5889 214.029 38.2555 214.622 30.8584 215.778 c 0
 17.5251 218.131 10.8584 225.538 10.8584 238 c 1
 12.6071 252.025 24.8154 271.191 47.4834 295.5 c 1
 77.1071 322.364 96.5654 346.531 105.858 368 c 0
 112.967 384.623 122.241 405.19 133.68 429.702 c 0
 215.662 605.104 280.388 716.87 327.858 765 c 0
 341.326 779.143 358.992 786.476 380.858 787 c 0
 391.644 786.965 402.3 786.359 412.826 785.184 c 0
 476.848 777.561 508.858 750.5 508.858 704 c 1
EndSplineSet
Fore
SplineSet
381 787 m 1,0,1
 509 787 509 787 509 704 c 1,2,3
 505 661 505 661 440 522.5 c 128,-1,4
 375 384 375 384 344 384 c 1,5,6
 329 387 329 387 325 400 c 1,7,8
 325 408 325 408 335 419 c 128,-1,9
 345 430 345 430 359 459 c 0,10,11
 403 547 403 547 403 607 c 128,-1,12
 403 667 403 667 386 691 c 1,13,14
 359 690 359 690 323 636 c 1,15,16
 258 535 258 535 210.5 372 c 128,-1,17
 163 209 163 209 163 114 c 0,18,19
 163 95 163 95 164 84 c 0,20,21
 168 16 168 16 221 16 c 0,22,23
 381 16 381 16 654 294 c 0,24,25
 709 349 709 349 715 318 c 1,26,27
 715 301 715 301 695 268 c 0,28,29
 643 182 643 182 534 87 c 0,30,31
 373 -54 373 -54 258 -54 c 1,32,33
 182 -53 182 -53 136 3 c 0,34,35
 90 58 90 58 78 114 c 0,36,37
 49 249 49 249 113 387 c 0,38,39
 115 391 115 391 133 430 c 0,40,41
 239 665 239 665 328 765 c 0,42,43
 348 786 348 786 381 787 c 1,0,1
EndSplineSet
Validated: 8391713
EndChar

StartChar: ccedilla
Encoding: 81 231 81
Width: 593
VWidth: 0
Flags: HW
HStem: -54 70<194.5 342.308> 691 96<330.767 400.219>
VStem: 162 73<-87.0328 -53.1547> 306 64<-236.852 -166.953> 328 181<708.812 772.228>
LayerCount: 2
Back
Refer: 82 184 N 1 0 0 1 -104 0 2
Refer: 80 99 N 1 0 0 1 0 0 2
Fore
SplineSet
381 787 m 1,0,1
 509 787 509 787 509 704 c 1,2,3
 505 661 505 661 440 522.5 c 128,-1,4
 375 384 375 384 344 384 c 1,5,6
 329 387 329 387 325 400 c 1,7,8
 325 408 325 408 335 419 c 128,-1,9
 345 430 345 430 359 459 c 0,10,11
 403 547 403 547 403 607 c 128,-1,12
 403 667 403 667 386 691 c 1,13,14
 359 690 359 690 323 636 c 1,15,16
 258 534 258 534 210.5 371.5 c 128,-1,17
 163 209 163 209 163 114 c 0,18,19
 163 101 163 101 164 84 c 0,20,21
 168 16 168 16 221 16 c 0,22,23
 377 17 377 17 658 298 c 1,24,25
 709 352 709 352 715 318 c 1,26,27
 714 300 714 300 695 268 c 0,28,29
 645 183 645 183 534 87 c 0,30,31
 371 -54 371 -54 258 -54 c 0,32,33
 251 -54 251 -54 241 -53 c 1,34,35
 235 -60 235 -60 235 -69 c 128,-1,36
 235 -78 235 -78 271 -87 c 2,37,-1
 297 -93 l 1,38,39
 370 -115 370 -115 370 -179 c 0,40,41
 370 -200 370 -200 345.5 -233 c 128,-1,42
 321 -266 321 -266 288 -266 c 128,-1,43
 255 -266 255 -266 253 -259 c 1,44,45
 254 -254 254 -254 280 -231.5 c 128,-1,46
 306 -209 306 -209 305.5 -195 c 128,-1,47
 305 -181 305 -181 297 -166.5 c 128,-1,48
 289 -152 289 -152 252.5 -141.5 c 128,-1,49
 216 -131 216 -131 208 -128 c 0,50,51
 162 -113 162 -113 162 -85.5 c 128,-1,52
 162 -58 162 -58 179 -32 c 1,53,54
 152 -16 152 -16 122 22 c 0,55,56
 90 58 90 58 78 114 c 0,57,58
 47 257 47 257 113 387 c 0,59,60
 115 391 115 391 133 430 c 0,61,62
 244 671 244 671 328 765 c 0,63,64
 348 786 348 786 381 787 c 1,0,1
EndSplineSet
Validated: 3105
EndChar

StartChar: cedilla
Encoding: 82 184 82
Width: 739
VWidth: 0
Flags: HW
HStem: -30 46<313.271 404.5>
VStem: 234 73<-86.4304 -35.75> 378 64<-236.385 -158.047>
LayerCount: 2
Back
SplineSet
234 -83 m 0
 234 -149 378 -122 378 -194 c 0
 378 -219 325 -247 325 -259 c 0
 325 -264 334 -266 350 -266 c 0
 398 -266 442 -214 442 -179 c 0
 442 -75 307 -96 307 -69 c 0
 307 -46 349 -30 365 -30 c 0
 394 -30 402 -38 411 -38 c 0
 414 -38 416 -37 416 -35 c 0
 416 0 370 16 344 16 c 0
 277 16 234 -38 234 -83 c 0
EndSplineSet
Fore
SplineSet
411 -38 m 1,0,-1
 365 -30 l 1,1,2
 357 -30 357 -30 345 -34 c 0,3,4
 307 -47 307 -47 307 -69 c 1,5,6
 308 -79 308 -79 369 -93 c 1,7,8
 442 -115 442 -115 442 -179 c 0,9,10
 442 -199 442 -199 417.5 -232.5 c 128,-1,11
 393 -266 393 -266 360 -266 c 128,-1,12
 327 -266 327 -266 325 -259 c 1,13,14
 326 -254 326 -254 352 -231.5 c 128,-1,15
 378 -209 378 -209 378 -195 c 128,-1,16
 378 -181 378 -181 368.5 -166 c 128,-1,17
 359 -151 359 -151 323.5 -141 c 128,-1,18
 288 -131 288 -131 280 -128 c 0,19,20
 234 -113 234 -113 234 -83 c 0,21,22
 234 -59 234 -59 249 -35 c 0,23,24
 282 16 282 16 344 16 c 0,25,26
 356 16 356 16 370 12 c 0,27,28
 416 -2 416 -2 416 -35 c 1,29,30
 415 -37 415 -37 411 -38 c 1,0,-1
EndSplineSet
Validated: 19457
EndChar

StartChar: cent
Encoding: 83 162 83
Width: 591
VWidth: 0
Flags: HMW
HStem: -146 1<173.365 178.962> 691 96<327.771 396.869> 896 2<502.962 515.261>
VStem: 8 20<215.778 238> 8 152<114 238> 474 72<875.5 893.872> 503 12<896.427 898> 699 13<318 330>
DStem2: 193.962 20 275.962 25 0.33005 0.943963<31.7839 687.067 796.266 914.378>
LayerCount: 2
Back
SplineSet
504 802 m 2
 510 819 518 846 518 866 c 0
 518 888 490 898 474 898 c 0
 448 898 448 877 440 861 c 1
 430 834 420 807 411 779 c 1
 391 785 370 787 349 787 c 0
 325 787 309 779 296 765 c 0
 224 692 106 443 74 368 c 0
 45 301 -21 285 -21 238 c 0
 -21 218 -10 214 30 214 c 1
 35 125 69 12 148 -33 c 1
 128 -101 l 2
 126 -109 126 -117 126 -122 c 0
 126 -136 139 -146 150 -146 c 0
 167 -146 185 -125 197 -104 c 0
 202 -94 209 -78 219 -53 c 1
 221 -53 223 -54 226 -54 c 0
 411 -54 683 250 683 318 c 0
 683 325 680 330 670 330 c 0
 653 330 634 306 622 294 c 0
 534 208 377 62 247 25 c 1
 298 182 l 2
 330 283 357 375 400 505 c 1
 440 585 477 680 477 704 c 0
 477 710 476 716 475 722 c 1
 504 802 l 2
131 114 m 0
 131 186 141 243 162 315 c 0
 186 397 280 691 354 691 c 1
 361 681 366 670 368 657 c 1
 321 519 262 336 165 20 c 1
 131 33 131 79 131 114 c 0
EndSplineSet
Fore
SplineSet
177 -33 m 1,0,1
 69 31 69 31 59 214 c 1,2,3
 39 214 39 214 23.5 217 c 128,-1,4
 8 220 8 220 9.5 240 c 128,-1,5
 11 260 11 260 45 296 c 1,6,7
 90 336 90 336 102 364 c 2,8,-1
 131 430 l 1,9,10
 254 693 254 693 325 765 c 0,11,12
 361 802 361 802 440 779 c 1,13,-1
 474 876 l 1,14,15
 483 898 483 898 496 898 c 0,16,17
 547 898 547 898 547 866 c 0,18,19
 547 842 547 842 533 802 c 2,20,-1
 504 722 l 1,21,22
 506 712 506 712 506 706 c 0,23,24
 506 660 506 660 429 505 c 1,25,-1
 276 25 l 1,26,27
 425 68 425 68 655 298 c 1,28,29
 685 330 685 330 697.5 329.5 c 128,-1,30
 710 329 710 329 711 315 c 128,-1,31
 712 301 712 301 692 268 c 0,32,33
 640 182 640 182 532 87 c 0,34,35
 371 -54 371 -54 255 -54 c 0,36,37
 254 -54 254 -54 251.5 -53.5 c 128,-1,38
 249 -53 249 -53 248 -53 c 0,39,40
 234 -87 234 -87 218 -116 c 128,-1,41
 202 -145 202 -145 179 -146 c 0,42,43
 177 -146 177 -146 173 -145 c 0,44,45
 155 -140 155 -140 155 -125 c 128,-1,46
 155 -110 155 -110 157 -101 c 2,47,-1
 177 -33 l 1,0,1
160 114 m 2,48,-1
 160 104 l 1,49,50
 161 33 161 33 194 20 c 1,51,52
 321 434 321 434 397 657 c 1,53,54
 394 674 394 674 383 691 c 1,55,56
 356 690 356 690 320 636 c 1,57,58
 255 535 255 535 207.5 372 c 128,-1,59
 160 209 160 209 160 114 c 2,48,-1
EndSplineSet
Validated: 8408097
EndChar

StartChar: circumflex
Encoding: 84 710 84
Width: 563
VWidth: 0
Flags: HMW
HStem: 878 266 1116 28<355 397.832>
DStem2: 160 974 182 898 0.738093 0.674699<-55.2698 154.171> 325 1022 386 963 0.124939 0.992164<-116.147 0>
LayerCount: 2
Back
SplineSet
325 1022 m 1
 275 984 228 942 182 898 c 0
 170 887 161 877 152 878 c 1
 134 878 131 912 131 923 c 0
 131 944 142 957 160 974 c 0
 222 1032 270 1069 323 1123 c 0
 339 1139 347 1144 355 1144 c 0
 381 1144 403 1118 403 1098 c 0
 403 1080 392 1019 386 963 c 1
 380 933 351 890 320 890 c 0
 314 890 309 894 309 906 c 0
 309 930 318 984 325 1022 c 1
EndSplineSet
Fore
SplineSet
325 1022 m 1,0,1
 259 972 259 972 182 898 c 1,2,3
 159 878 159 878 152 878 c 0,4,5
 132 880 132 880 132 913.5 c 128,-1,6
 132 947 132 947 158.5 972.5 c 128,-1,7
 185 998 185 998 238.5 1044.5 c 128,-1,8
 292 1091 292 1091 318 1117.5 c 128,-1,9
 344 1144 344 1144 363.5 1144 c 128,-1,10
 383 1144 383 1144 393 1125 c 128,-1,11
 403 1106 403 1106 403 1097 c 128,-1,12
 403 1088 403 1088 396 1038.5 c 128,-1,13
 389 989 389 989 384 957.5 c 128,-1,14
 379 926 379 926 356.5 908 c 128,-1,15
 334 890 334 890 320 890 c 1,16,17
 310 892 310 892 309.5 914 c 128,-1,18
 309 936 309 936 325 1022 c 1,0,1
EndSplineSet
Validated: 8408097
EndChar

StartChar: colon
Encoding: 85 58 85
Width: 615
VWidth: 0
Flags: HW
HStem: 13 141<313.771 427.37> 509 141<361.771 475.37>
VStem: 267 168<52.4695 149.991> 315 168<548.469 645.991>
LayerCount: 2
Back
SplineSet
208 195 m 1
 178 128 176 134 176 102 c 0
 176 64 205 13 266 13 c 0
 307 13 344 38 344 85 c 0
 344 115 330 154 277 154 c 0
 226 154 219 160 208 195 c 1
256 691 m 1
 226 624 224 630 224 598 c 0
 224 560 253 509 314 509 c 0
 355 509 392 534 392 581 c 0
 392 611 378 650 325 650 c 0
 274 650 267 656 256 691 c 1
EndSplineSet
Fore
SplineSet
299 195 m 1,0,1
 305 177 305 177 313.5 165.5 c 128,-1,2
 322 154 322 154 351 154 c 128,-1,3
 380 154 380 154 390 151 c 0,4,5
 435 139 435 139 435 85 c 0,6,7
 435 67 435 67 428 52 c 0,8,9
 408 13 408 13 367 13 c 128,-1,10
 326 13 326 13 296.5 35 c 128,-1,11
 267 57 267 57 267 102 c 0,12,13
 267 117 267 117 268 123 c 128,-1,14
 269 129 269 129 299 195 c 1,0,1
347 691 m 1,15,16
 353 673 353 673 361.5 661.5 c 128,-1,17
 370 650 370 650 399 650 c 128,-1,18
 428 650 428 650 438 647 c 0,19,20
 483 635 483 635 483 581 c 0,21,22
 483 563 483 563 476 548 c 0,23,24
 456 509 456 509 415 509 c 128,-1,25
 374 509 374 509 344.5 531 c 128,-1,26
 315 553 315 553 315 598 c 0,27,28
 315 613 315 613 316 619 c 128,-1,29
 317 625 317 625 347 691 c 1,15,16
EndSplineSet
Validated: 19457
EndChar

StartChar: comma
Encoding: 86 44 86
Width: 402
VWidth: 0
Flags: HW
HStem: -139 334<145 219>
VStem: 140 154<74.5787 186.993>
LayerCount: 2
Back
SplineSet
269 195 m 0
 319 195 344 148 344 90 c 0
 344 -6 258 -139 195 -139 c 0
 187 -139 184 -136 184 -131 c 0
 184 -123 194 -114 198 -109 c 1
 240 -75 267 -38 267 0 c 0
 267 77 190 94 190 125 c 0
 190 166 232 195 269 195 c 0
EndSplineSet
Fore
SplineSet
219 195 m 0,0,1
 272 195 272 195 289 133 c 0,2,3
 294 113 294 113 294 90 c 0,4,5
 294 15 294 15 242 -61.5 c 128,-1,6
 190 -138 190 -138 145 -139 c 1,7,8
 135 -138 135 -138 134 -131 c 1,9,10
 135 -125 135 -125 148 -109 c 1,11,12
 274 -5 274 -5 172 86 c 0,13,14
 140 113 140 113 140 125 c 0,15,16
 140 164 140 164 182 186 c 0,17,18
 200 195 200 195 219 195 c 0,0,1
EndSplineSet
Validated: 19489
EndChar

StartChar: copyright
Encoding: 87 169 87
Width: 1186
VWidth: 0
Flags: HW
HStem: 125 65<398.359 760.269> 256 46<434.373 560.919> 920 85<387.499 829.763>
VStem: 94 74<411.848 730.036> 598 87<688.083 786.589> 990 101<382.522 755.271>
LayerCount: 2
Back
SplineSet
243 621 m 0
 243 381 368 125 750 125 c 0
 1011 125 1240 285 1240 573 c 0
 1240 766 1149 1005 821 1005 c 0
 371 1005 243 766 243 621 c 0
317 600 m 0
 317 722 421 920 795 920 c 0
 1062 920 1139 722 1139 563 c 0
 1139 323 950 190 734 190 c 0
 418 190 317 403 317 600 c 0
834 803 m 1
 830 843 790 854 722 854 c 0
 704 854 686 846 680 838 c 1
 622 781 533 600 509 542 c 0
 490 498 438 482 438 451 c 0
 438 435 443 434 459 434 c 2
 482 434 l 1
 491 357 539 256 648 256 c 0
 817 256 1026 500 1026 544 c 0
 1026 554 1024 555 1018 555 c 0
 1000 554 986 536 978 525 c 1
 898 450 742 302 618 302 c 0
 564 302 568 382 568 405 c 0
 568 439 577 475 586 514 c 0
 599 571 668 782 726 787 c 1
 742 778 747 763 747 742 c 0
 747 683 722 619 699 590 c 0
 696 586 696 584 696 579 c 0
 696 574 706 570 710 570 c 0
 747 573 834 768 834 803 c 1
EndSplineSet
Fore
SplineSet
94 621 m 1,0,1
 96 736 96 736 183 837 c 1,2,3
 336 1005 336 1005 672 1005 c 0,4,5
 877 1005 877 1005 984 885.5 c 128,-1,6
 1091 766 1091 766 1091 573 c 2,7,-1
 1091 560 l 1,8,9
 1086 355 1086 355 942.5 240 c 128,-1,10
 799 125 799 125 601 125 c 0,11,12
 349 125 349 125 221.5 264 c 128,-1,13
 94 403 94 403 94 621 c 1,0,1
246 786 m 0,14,15
 168 703 168 703 168 587.5 c 128,-1,16
 168 472 168 472 221 375 c 0,17,18
 323 190 323 190 585 190 c 0,19,20
 745 190 745 190 857 277 c 0,21,22
 990 381 990 381 990 563 c 0,23,24
 990 667 990 667 950 750 c 0,25,26
 866 920 866 920 646 920 c 0,27,28
 374 920 374 920 246 786 c 0,14,15
573 854 m 1,29,30
 680 854 680 854 685 803 c 1,31,32
 684 775 684 775 636 674 c 128,-1,33
 588 573 588 573 561 570 c 1,34,35
 549 572 549 572 547 579 c 1,36,37
 547 584 547 584 551 590 c 0,38,39
 599 656 599 656 598 742 c 0,40,41
 598 774 598 774 577 787 c 1,42,43
 544 783 544 783 500.5 692 c 128,-1,44
 457 601 457 601 438 519 c 128,-1,45
 419 437 419 437 419 420 c 2,46,-1
 419 402 l 2,47,48
 419 305 419 305 469 302 c 1,49,50
 528 302 528 302 609.5 349 c 128,-1,51
 691 396 691 396 829 525 c 1,52,53
 850 553 850 553 862.5 554 c 128,-1,54
 875 555 875 555 877 544 c 1,55,56
 877 537 877 537 869 522 c 0,57,58
 838 463 838 463 754 386 c 0,59,60
 612 256 612 256 499 256 c 0,61,62
 443 256 443 256 393.5 298.5 c 128,-1,63
 344 341 344 341 333 434 c 1,64,-1
 310 434 l 1,65,66
 299 435 299 435 289 451 c 1,67,68
 290 466 290 466 320.5 493.5 c 128,-1,69
 351 521 351 521 359.5 541.5 c 128,-1,70
 368 562 368 562 383 592 c 0,71,72
 473 780 473 780 531 838 c 1,73,74
 544 853 544 853 573 854 c 1,29,30
EndSplineSet
Validated: 19489
EndChar

StartChar: currency
Encoding: 88 164 88
Width: 738
VWidth: 0
Flags: HMW
HStem: -82 2<460.43 469> 817 20G<476.808 486.512> 890 12G<375.104 390.569 534 545.075> 1159 11<661 691.566>
VStem: 2 93<-73.8519 -48> 194 94<998.715 1165.68> 445 94<-74.681 91.5417> 638 93<1136 1161.85>
LayerCount: 2
Back
SplineSet
350 934 m 0
 325 979 306 1050 288 1139 c 0
 285 1154 283 1173 264 1173 c 0
 240 1173 194 1139 194 1102 c 0
 194 1046 306 895 342 859 c 0
 348 852 353 846 359 842 c 1
 286 681 197 402 171 251 c 1
 164 246 158 240 150 232 c 0
 114 195 2 45 2 -11 c 0
 2 -48 48 -82 72 -82 c 0
 91 -82 93 -62 96 -48 c 0
 114 42 134 110 158 157 c 1
 163 166 l 1
 167 124 187 93 234 93 c 0
 277 93 322 145 357 193 c 1
 366 183 374 171 382 157 c 0
 406 110 427 42 445 -48 c 0
 448 -62 450 -82 469 -82 c 0
 493 -82 539 -48 539 -11 c 0
 539 45 427 194 390 232 c 2
 387 235 l 1
 390 240 l 1
 522 422 502 776 551 830 c 1
 554 831 558 833 562 836 c 0
 563 836 564 837 565 837 c 2
 564 838 l 1
 582 856 l 2
 619 893 731 1043 731 1099 c 0
 731 1136 685 1170 661 1170 c 0
 642 1170 640 1150 637 1136 c 0
 619 1046 600 978 574 931 c 0
 562 910 551 894 536 881 c 1
 534 885 l 1
 506 885 499 906 499 925 c 0
 499 962 486 963 464 963 c 0
 432 963 424 955 413 941 c 0
 403 928 393 911 382 890 c 1
 370 902 361 916 350 934 c 0
478 837 m 0
 494 837 501 765 501 754 c 0
 501 570 323 264 283 262 c 0
 274 262 274 275 274 280 c 0
 277 350 422 835 478 837 c 0
EndSplineSet
Fore
SplineSet
163 166 m 1,0,1
 126 100 126 100 96 -48 c 0,2,3
 96 -49 96 -49 95 -53 c 0,4,5
 89 -82 89 -82 74 -82 c 128,-1,6
 59 -82 59 -82 30.5 -63.5 c 128,-1,7
 2 -45 2 -45 2.5 -11.5 c 128,-1,8
 3 22 3 22 54 104 c 0,9,10
 123 215 123 215 171 251 c 1,11,12
 182 312 182 312 228 483 c 128,-1,13
 274 654 274 654 359 842 c 1,14,15
 339 858 339 858 266.5 954.5 c 128,-1,16
 194 1051 194 1051 194 1102 c 0,17,18
 194 1123 194 1123 216 1148 c 128,-1,19
 238 1173 238 1173 253 1173 c 128,-1,20
 268 1173 268 1173 275.5 1170 c 128,-1,21
 283 1167 283 1167 300.5 1080 c 128,-1,22
 318 993 318 993 343 948.5 c 128,-1,23
 368 904 368 904 382 890 c 1,24,25
 404 933 404 933 417.5 948 c 128,-1,26
 431 963 431 963 452.5 963 c 128,-1,27
 474 963 474 963 479 962 c 0,28,29
 499 959 499 959 499.5 922.5 c 128,-1,30
 500 886 500 886 534 885 c 1,31,-1
 536 881 l 1,32,33
 596 934 596 934 637 1136 c 0,34,35
 637 1137 637 1137 638 1141 c 0,36,37
 644 1170 644 1170 659 1170 c 128,-1,38
 674 1170 674 1170 702.5 1151.5 c 128,-1,39
 731 1133 731 1133 730.5 1099.5 c 128,-1,40
 730 1066 730 1066 678.5 983.5 c 128,-1,41
 627 901 627 901 582 856 c 2,42,-1
 564 838 l 1,43,-1
 565 837 l 1,44,45
 563 836 563 836 560 834 c 128,-1,46
 557 832 557 832 551 830 c 1,47,48
 533 812 533 812 520 714.5 c 128,-1,49
 507 617 507 617 503 593 c 0,50,51
 467 347 467 347 390 240 c 1,52,-1
 387 235 l 1,53,54
 406 216 406 216 439 172 c 0,55,56
 539 40 539 40 539 -11 c 0,57,58
 539 -32 539 -32 517 -57 c 128,-1,59
 495 -82 495 -82 480 -82 c 128,-1,60
 465 -82 465 -82 458 -79 c 128,-1,61
 451 -76 451 -76 434.5 4.5 c 128,-1,62
 418 85 418 85 394 132 c 128,-1,63
 370 179 370 179 357 193 c 1,64,65
 285 94 285 94 228.5 94 c 128,-1,66
 172 94 172 94 163 166 c 1,0,1
478 837 m 1,67,68
 437 837 437 837 357 586.5 c 128,-1,69
 277 336 277 336 275.5 299.5 c 128,-1,70
 274 263 274 263 281 263 c 0,71,72
 317 263 317 263 409 444 c 128,-1,73
 501 625 501 625 501 754 c 1,74,75
 495 829 495 829 478 837 c 1,67,68
EndSplineSet
Validated: 19457
EndChar

StartChar: d
Encoding: 89 100 89
Width: 634
VWidth: 0
Flags: HMW
HStem: -226 18<426.936 472.275> -22 112<45.3036 121.226> 672 110<444.423 501.253> 1475 66<1053.27 1122.27>
VStem: -58 103<90.0603 185.393> 387 67<-119.652 86.9675> 1087 35<1375.72 1475>
DStem2: 460.034 270.534 561.701 312.824 0.317932 0.948113<-326.632 214.685>
LayerCount: 2
Back
SplineSet
974 1310 m 1
 1048 1310 1114 1406 1114 1475 c 0
 1114 1514 1094 1541 1045 1541 c 0
 943 1541 825 1219 746 1062 c 0
 682 934 648 834 570 782 c 1
 522 782 490 776 446 758 c 0
 340 715 -66 198 -66 74 c 0
 -66 24 -43 -22 14 -22 c 0
 99 -22 131 34 168 54 c 1
 314 195 400 322 522 480 c 1
 475 302 379 142 379 -88 c 0
 379 -152 404 -226 464 -226 c 0
 488 -226 507 -208 507 -163 c 0
 507 -123 446 -114 446 -75 c 0
 446 45 557 315 595 429 c 0
 696 731 822 1061 974 1310 c 1
482 619 m 0
 416 431 97 90 45 90 c 0
 40 90 37 93 37 99 c 0
 37 112 46 136 70 178 c 0
 170 350 285 487 426 619 c 0
 450 642 477 672 488 672 c 0
 491 672 493 669 493 664 c 0
 493 656 490 642 482 619 c 0
EndSplineSet
Fore
SplineSet
982 1310 m 1,0,1
 796 1004 796 1004 603 429 c 1,2,3
 562 313 l 1,4,5
 455 18 455 18 454 -75 c 1,6,7
 456 -91 456 -91 486 -119 c 1,8,9
 515 -142 515 -142 515 -163 c 0,10,11
 513 -220 513 -220 472 -226 c 1,12,13
 447 -226 447 -226 427 -208 c 0,14,15
 387 -171 387 -171 387 -88 c 0,16,17
 387 66 387 66 452.5 250.5 c 128,-1,18
 518 435 518 435 530 480 c 1,19,-1
 427 345 l 2,20,21
 289 164 289 164 176 54 c 1,22,23
 167 49 167 49 124.5 13.5 c 128,-1,24
 82 -22 82 -22 22 -22 c 0,25,26
 5 -22 5 -22 -9 -16 c 0,27,28
 -58 4 -58 4 -58 74 c 0,29,30
 -58 110 -58 110 8 230 c 128,-1,31
 74 350 74 350 234.5 542 c 128,-1,32
 395 734 395 734 453.5 758 c 128,-1,33
 512 782 512 782 578 782 c 1,34,35
 604 800 604 800 633 834 c 128,-1,36
 662 868 662 868 702 952 c 2,37,-1
 754 1062 l 2,38,39
 771 1096 771 1096 814 1190.5 c 128,-1,40
 857 1285 857 1285 882 1335 c 0,41,42
 985 1541 985 1541 1053 1541 c 1,43,44
 1120 1540 1120 1540 1122 1475 c 1,45,46
 1122 1426 1122 1426 1081 1368 c 128,-1,47
 1040 1310 1040 1310 982 1310 c 1,0,1
490 619 m 0,48,49
 500 649 500 649 500 659.5 c 128,-1,50
 500 670 500 670 496 672 c 1,51,52
 489 672 489 672 434 619 c 0,53,54
 216 415 216 415 78 178 c 0,55,56
 46 122 46 122 46 107 c 128,-1,57
 46 92 46 92 53 90 c 1,58,59
 62 90 62 90 81 103 c 0,60,61
 152 151 152 151 299 322 c 128,-1,62
 446 493 446 493 490 619 c 0,48,49
EndSplineSet
Validated: 19457
EndChar

StartChar: degree
Encoding: 90 176 90
Width: 620
VWidth: 0
Flags: HW
HStem: 746 49<324.344 392.969> 1002 56<359.838 439.25>
VStem: 273 45<800.338 942.91> 442 81<832.228 1001.65>
LayerCount: 2
Back
SplineSet
190 866 m 0
 190 803 229 746 291 746 c 0
 392 746 440 877 440 955 c 0
 440 1021 392 1058 331 1058 c 0
 230 1058 190 944 190 866 c 0
323 1002 m 0
 354 1002 360 981 360 960 c 0
 360 915 325 795 269 795 c 0
 242 795 235 827 235 846 c 0
 235 893 262 1002 323 1002 c 0
EndSplineSet
Fore
SplineSet
318 765 m 0,0,1
 273 799 273 799 273 857.5 c 128,-1,2
 273 916 273 916 292 964 c 0,3,4
 330 1058 330 1058 414 1058 c 0,5,6
 440 1058 440 1058 463 1049 c 0,7,8
 523 1024 523 1024 523 961 c 128,-1,9
 523 898 523 898 496 841 c 0,10,11
 452 746 452 746 374 746 c 0,12,13
 343 746 343 746 318 765 c 0,0,1
406 1002 m 1,14,15
 372 1001 372 1001 345 952.5 c 128,-1,16
 318 904 318 904 318 846 c 1,17,18
 322 802 322 802 352 795 c 1,19,20
 386 796 386 796 414 853 c 128,-1,21
 442 910 442 910 442 955 c 128,-1,22
 442 1000 442 1000 406 1002 c 1,14,15
EndSplineSet
Validated: 19457
EndChar

StartChar: dieresis
Encoding: 91 168 91
Width: 1333
VWidth: 0
Flags: HW
HStem: 831 374
VStem: 455 108<998.258 1162.99> 623 108<1034.7 1197.88>
LayerCount: 2
Back
SplineSet
504 899 m 1
 533.333333333 914.333333333 558.666666667 942.333333333 580 983 c 0
 586.666666667 995 594.333333333 1025.33333333 603 1074 c 128
 611.666666667 1122.66666667 618.333333333 1156.5 623 1175.5 c 128
 627.666666667 1194.5 639.5 1204.33333333 658.5 1205 c 128
 677.5 1205.66666667 694.333333333 1197.33333333 709 1180 c 128
 723.666666667 1162.66666667 731 1148.66666667 731 1138 c 0
 731 1104.66666667 698.666666667 1044.66666667 634 958 c 0
 612 928.666666667 593 906 577 890 c 0
 549.666666667 863.333333333 525 860 503 880 c 0
 496.333333333 886.666666667 496.666666667 893 504 899 c 1
401 926 m 1
 413 942 423.833333333 977.166666667 433.5 1031.5 c 128
 443.166666667 1085.83333333 450.333333333 1122.33333333 455 1141 c 128
 459.666666667 1159.66666667 471.5 1169.16666667 490.5 1169.5 c 128
 509.5 1169.83333333 526.333333333 1161.5 541 1144.5 c 128
 555.666666667 1127.5 563 1113.33333333 563 1102 c 0
 563 1068 530.666666667 1008 466 922 c 0
 444.666666667 893.333333333 425.5 871.166666667 408.5 855.5 c 128
 391.5 839.833333333 377.833333333 831.666666667 367.5 831 c 128
 357.166666667 830.333333333 348.333333333 833.333333333 341 840 c 0
 329 850.666666667 327.333333333 858.666666667 336 864 c 0
 362.666666667 878 384.333333333 898.666666667 401 926 c 1
574 970 m 1
 598 1016 603 1085 622 1174 c 0
 627 1197 640 1205 656 1205 c 0
 688 1205 731 1168 731 1138 c 0
 731 1082 619 931 582 894 c 0
 565 877 554 866 538 866 c 0
 526 866 498 878 498 890 c 0
 498 893 499 896 504 899 c 0
 539 917 555 936 574 970 c 1
406 934 m 1
 430 981 435 1050 454 1139 c 0
 459 1162 472 1170 488 1170 c 0
 520 1170 563 1133 563 1102 c 0
 563 1046 451 896 414 859 c 0
 397 842 386 830 370 830 c 0
 358 830 330 843 330 854 c 0
 330 858 331 861 336 864 c 0
 371 882 387 901 406 934 c 1
EndSplineSet
Fore
SplineSet
504 899 m 1,0,1
 548 922 548 922 580 983 c 0,2,3
 590 1001 590 1001 603 1074 c 128,-1,4
 616 1147 616 1147 623 1175.5 c 128,-1,5
 630 1204 630 1204 658.5 1205 c 128,-1,6
 687 1206 687 1206 709 1180 c 128,-1,7
 731 1154 731 1154 731 1138 c 0,8,9
 731 1088 731 1088 634 958 c 0,10,11
 601 914 601 914 577 890 c 0,12,13
 536 850 536 850 503 880 c 0,14,15
 493 890 493 890 504 899 c 1,0,1
401 926 m 1,16,17
 419 950 419 950 433.5 1031.5 c 128,-1,18
 448 1113 448 1113 455 1141 c 128,-1,19
 462 1169 462 1169 490.5 1169.5 c 128,-1,20
 519 1170 519 1170 541 1144.5 c 128,-1,21
 563 1119 563 1119 563 1102 c 0,22,23
 563 1060 563 1060 466 922 c 0,24,25
 440 886 440 886 418 866 c 0,26,27
 392 842 392 842 377.5 840.5 c 128,-1,28
 363 839 363 839 352 849 c 0,29,30
 334 865 334 865 347 873 c 0,31,32
 380 894 380 894 401 926 c 1,16,17
EndSplineSet
EndChar

StartChar: divide
Encoding: 92 247 92
Width: 952
VWidth: 0
Flags: HW
HStem: 203 111<384.195 477.706> 459 67<163.894 546.191> 488 74<350.453 801.094> 667 111<464.195 557.706> 790 20G<444.571 456>
VStem: 348 131<207.73 313.188> 428 131<671.438 777.188>
LayerCount: 2
Back
SplineSet
578 810 m 1
 554 757 552 763 552 738 c 0
 552 707 574 667 622 667 c 0
 654 667 683 688 683 723 c 0
 683 747 672 778 630 778 c 0
 590 778 586 782 578 810 c 1
885 490 m 0
 672 483 589 459 485 459 c 0
 366 459 315 459 293 464 c 0
 270 470 248 488 248 510 c 0
 248 518 250 525 266 526 c 0
 645 558 758 562 898 562 c 0
 917 562 928 523 928 507 c 0
 928 493 899 490 885 490 c 0
498 346 m 1
 474 293 472 299 472 274 c 0
 472 243 494 203 542 203 c 0
 574 203 603 224 603 259 c 0
 603 283 592 314 550 314 c 0
 510 314 506 318 498 346 c 1
EndSplineSet
Fore
SplineSet
506 778 m 0,0,1
 559 778 559 778 559 723 c 0,2,3
 559 710 559 710 553 698 c 0,4,5
 538 667 538 667 508 667 c 0,6,7
 428 667 428 667 428 738 c 0,8,9
 428 755 428 755 438 775 c 2,10,-1
 454 810 l 1,11,12
 458 796 458 796 464 787 c 128,-1,13
 470 778 470 778 506 778 c 0,0,1
804 507 m 0,14,15
 803 490 803 490 730 488.5 c 128,-1,16
 657 487 657 487 530.5 473 c 128,-1,17
 404 459 404 459 297.5 459 c 128,-1,18
 191 459 191 459 163 466 c 0,19,20
 124 476 124 476 124 510 c 0,21,22
 124 524 124 524 139 526 c 1,23,-1
 142 526 l 1,24,25
 564 562 564 562 763 562 c 2,26,-1
 774 562 l 2,27,28
 793 562 793 562 802 523 c 0,29,30
 804 514 804 514 804 507 c 0,14,15
426 314 m 0,31,32
 479 314 479 314 479 259 c 0,33,34
 479 246 479 246 473 234 c 0,35,36
 457 203 457 203 427 203 c 128,-1,37
 397 203 397 203 381 213 c 0,38,39
 348 233 348 233 348 262 c 128,-1,40
 348 291 348 291 358 311 c 2,41,-1
 374 346 l 1,42,43
 378 332 378 332 384 323 c 128,-1,44
 390 314 390 314 426 314 c 0,31,32
EndSplineSet
Validated: 19457
EndChar

StartChar: dollar
Encoding: 93 36 93
Width: 718
VWidth: 0
Flags: HMW
HStem: 1080 20G<465.168 476.022>
VStem: 18 83<135.907 251.432> 256 114<743.59 1027.35> 394 92<128.012 404.322> 544 66<1192.68 1309.75> 677 102<877.943 1003.91> 701 85<903.3 1073.71>
DStem2: 187 94 262 78 0.287115 0.957896<6.20727 352.363 674.694 1048.34 1156.94 1245.83>
LayerCount: 2
Back
SplineSet
256 842 m 0
 256 743 287 647 320 555 c 1
 202 144 l 1
 187 94 l 1
 154 114 128 147 110 184 c 0
 93 219 88 256 46 256 c 0
 34 256 18 250 18 216 c 0
 18 126 83 52 162 11 c 1
 156 -9 151 -30 146 -51 c 0
 142 -67 141 -78 141 -86 c 0
 141 -101 150 -120 163 -120 c 0
 177 -120 196 -96 210 -66 c 0
 215 -55 221 -39 230 -15 c 1
 251 -21 272 -24 293 -24 c 0
 398 -24 486 46 486 197 c 0
 486 280 444 412 410 552 c 1
 448 694 491 864 569 1116 c 1
 637 1110 701 1077 701 1018 c 0
 701 991 677 953 677 926 c 0
 677 894 699 875 723 875 c 0
 762 875 786 930 786 1005 c 0
 786 1124 696 1177 590 1181 c 1
 600 1206 610 1245 610 1269 c 0
 610 1291 586 1312 566 1312 c 0
 557 1312 548 1307 544 1293 c 0
 531 1253 518 1215 506 1176 c 1
 341 1146 256 1007 256 842 c 0
342 317 m 2
 352 347 361 377 370 407 c 1
 384 357 394 308 394 259 c 0
 394 175 345 87 262 78 c 1
 342 317 l 2
375 742 m 1
 372 772 370 801 370 830 c 0
 370 923 398 1054 482 1100 c 1
 451 1000 418 889 375 742 c 1
EndSplineSet
Fore
SplineSet
157 -118 m 0,0,1
 141 -110 141 -110 141 -86 c 128,-1,2
 141 -62 141 -62 162 11 c 1,3,4
 137 24 137 24 114 42 c 0,5,6
 18 116 18 116 18 216 c 1,7,8
 19 254 19 254 46 256 c 0,9,10
 58 256 58 256 71.5 250 c 128,-1,11
 85 244 85 244 96 218 c 2,12,-1
 110 184 l 1,13,14
 140 123 140 123 187 94 c 1,15,-1
 320 555 l 1,16,17
 319 557 319 557 318 561 c 0,18,19
 256 734 256 734 256 837 c 128,-1,20
 256 940 256 940 294 1018 c 0,21,22
 359 1149 359 1149 506 1176 c 1,23,-1
 544 1293 l 2,24,25
 550 1310 550 1310 566 1312 c 0,26,27
 574 1312 574 1312 592 1302.5 c 128,-1,28
 610 1293 610 1293 610 1262 c 128,-1,29
 610 1231 610 1231 590 1181 c 1,30,31
 639 1179 639 1179 679 1164 c 0,32,33
 786 1122 786 1122 786 1005 c 0,34,35
 786 970 786 970 779 941 c 0,36,37
 763 875 763 875 723 875 c 0,38,39
 715 875 715 875 708 878 c 0,40,41
 677 889 677 889 677 926 c 0,42,43
 677 938 677 938 689 972.5 c 128,-1,44
 701 1007 701 1007 701 1024 c 128,-1,45
 701 1041 701 1041 688 1060 c 0,46,47
 655 1108 655 1108 569 1116 c 1,48,49
 510 924 510 924 410 552 c 1,50,-1
 438 443 l 2,51,52
 486 258 486 258 486 186.5 c 128,-1,53
 486 115 486 115 452 59 c 0,54,55
 400 -24 400 -24 293 -24 c 0,56,57
 261 -24 261 -24 230 -15 c 1,58,59
 192 -120 192 -120 163 -120 c 0,60,61
 160 -120 160 -120 157 -118 c 0,0,1
370 407 m 1,62,63
 348 335 348 335 262 78 c 1,64,65
 307 83 307 83 350.5 128.5 c 128,-1,66
 394 174 394 174 394 247.5 c 128,-1,67
 394 321 394 321 370 407 c 1,62,63
375 742 m 1,68,-1
 482 1100 l 1,69,70
 448 1081 448 1081 423 1042 c 0,71,72
 370 959 370 959 370 830 c 0,73,74
 370 792 370 792 375 742 c 1,68,-1
EndSplineSet
Validated: 8408065
EndChar

StartChar: dotlessi
Encoding: 94 305 94
Width: 469
VWidth: 0
Flags: HW
HStem: -46 67<181.618 323.638> 775 20G<241.875 291.5>
VStem: 74 89<37.3206 456.637>
LayerCount: 2
Back
SplineSet
597 294 m 0
 544 146 341 -46 232 -46 c 0
 118 -46 74 53 74 178 c 0
 74 392 190 795 275 795 c 0
 304 795 339 774 339 757 c 0
 339 694 224 532 194 419 c 0
 184 383 163 227 163 154 c 0
 163 91 166 21 237 21 c 0
 349 21 496 227 539 312 c 0
 542 317 550 336 570 336 c 0
 590 336 600 323 600 309 c 0
 600 304 598 299 597 294 c 0
EndSplineSet
Fore
SplineSet
597 294 m 1,0,1
 560 190 560 190 450 82 c 0,2,3
 320 -46 320 -46 232 -46 c 0,4,5
 113 -46 113 -46 83 89 c 0,6,7
 74 130 74 130 74 178 c 0,8,9
 74 333 74 333 134 537 c 0,10,11
 209 795 209 795 275 795 c 0,12,13
 308 795 308 795 323.5 779.5 c 128,-1,14
 339 764 339 764 339 757 c 0,15,16
 339 725 339 725 274 599.5 c 128,-1,17
 209 474 209 474 193.5 417.5 c 128,-1,18
 178 361 178 361 170.5 270.5 c 128,-1,19
 163 180 163 180 163 154 c 0,20,21
 163 66 163 66 184.5 44 c 128,-1,22
 206 22 206 22 237 21 c 1,23,24
 325 21 325 21 447 174 c 0,25,26
 506 249 506 249 539 312 c 1,27,28
 554 336 554 336 570 336 c 1,29,30
 597 332 597 332 600 309 c 0,31,32
 600 306 600 306 597 294 c 1,0,1
EndSplineSet
Validated: 19457
EndChar

StartChar: e
Encoding: 95 101 95
Width: 547
VWidth: 0
Flags: HMW
HStem: -38 70<175.374 340.557> 360 13<689.648 703.648> 810 11<404.648 458.866>
VStem: 79 91<55.0285 340.42> 326 73<520.549 562.87> 402 123<628.547 752.702> 690 14<360 373>
LayerCount: 2
Back
SplineSet
200 490 m 1
 200 515 312 688 347 722 c 1
 350 717 352 712 352 706 c 0
 352 645 226 491 200 490 c 1
640 373 m 0
 624 373 604 346 594 336 c 0
 470 216 320 32 179 32 c 0
 120 32 120 74 120 134 c 0
 120 202 131 261 152 338 c 1
 242 398 398 552 469 694 c 1
 472 704 475 714 475 723 c 0
 475 791 401 821 355 821 c 0
 309 821 282 794 251 757 c 0
 122 606 29 357 29 214 c 0
 29 91 72 -38 205 -38 c 0
 401 -38 654 302 654 360 c 0
 654 368 650 373 640 373 c 0
EndSplineSet
Fore
SplineSet
250 490 m 1,0,1
 270 493 270 493 336 576 c 128,-1,2
 402 659 402 659 402 706 c 0,3,4
 402 713 402 713 397 722 c 1,5,6
 377 702 377 702 313.5 608 c 128,-1,7
 250 514 250 514 250 490 c 1,0,1
648 341 m 0,8,9
 698 395 698 395 704 360 c 1,10,11
 704 347 704 347 688 317 c 0,12,13
 639 226 639 226 538 124 c 0,14,15
 378 -38 378 -38 255 -38 c 0,16,17
 197 -38 197 -38 156 -5 c 0,18,19
 79 58 79 58 79 214 c 0,20,21
 79 303 79 303 133.5 464.5 c 128,-1,22
 188 626 188 626 301 757 c 1,23,24
 351 821 351 821 405 821 c 0,25,26
 431 821 431 821 459 810 c 0,27,28
 525 783 525 783 525 723 c 0,29,30
 525 714 525 714 519 694 c 1,31,32
 478 613 478 613 387 507 c 128,-1,33
 296 401 296 401 202 338 c 1,34,35
 170 222 170 222 170 157 c 128,-1,36
 170 92 170 92 173 74 c 0,37,38
 182 32 182 32 240 32 c 128,-1,39
 298 32 298 32 374 85.5 c 128,-1,40
 450 139 450 139 536 227 c 128,-1,41
 622 315 622 315 633.5 326 c 128,-1,42
 645 337 645 337 648 341 c 0,8,9
EndSplineSet
Validated: 19457
EndChar

StartChar: e.alt1
Encoding: 96 -1 96
Width: 504
VWidth: 0
Flags: HMW
HStem: -54 70<123.295 290.902> 775 14<347 409.16>
VStem: -34 152<115 238> 346 121<597.499 719.955> 629 14<336 349>
LayerCount: 2
Back
SplineSet
197 464 m 1
 197 488 317 638 341 691 c 1
 344 686 346 682 346 675 c 0
 346 618 222 466 197 464 c 1
629 349 m 0
 613 349 594 323 582 314 c 1
 482 214 315 16 186 16 c 0
 115 16 118 57 118 115 c 0
 118 181 130 240 149 315 c 1
 238 374 392 525 461 664 c 1
 464 674 467 683 467 693 c 0
 467 752 405 789 347 789 c 0
 298 789 271 755 248 722 c 0
 177 622 88 432 61 368 c 1
 32 302 -34 285 -34 238 c 0
 -34 218 -22 214 18 214 c 1
 24 101 77 -54 203 -54 c 0
 398 -54 643 285 643 336 c 0
 643 344 638 349 629 349 c 0
EndSplineSet
Fore
SplineSet
197 464 m 1,0,1
 216 467 216 467 281 548.5 c 128,-1,2
 346 630 346 630 346 675 c 0,3,4
 346 682 346 682 341 691 c 1,5,6
 330 667 330 667 263.5 571.5 c 128,-1,7
 197 476 197 476 197 464 c 1,0,1
591 322 m 0,8,9
 638 369 638 369 643 336 c 1,10,11
 643 325 643 325 629 299 c 0,12,13
 583 211 583 211 485 111 c 1,14,15
 326 -54 326 -54 203 -54 c 1,16,17
 131 -53 131 -53 77.5 19 c 128,-1,18
 24 91 24 91 18 214 c 1,19,20
 -2 214 -2 214 -18 217 c 128,-1,21
 -34 220 -34 220 -32.5 239.5 c 128,-1,22
 -31 259 -31 259 4 297 c 1,23,24
 48 337 48 337 57 358 c 2,25,-1
 72 393 l 1,26,27
 181 639 181 639 256 733 c 1,28,29
 297 789 297 789 338 789 c 128,-1,30
 379 789 379 789 409 775 c 0,31,32
 467 747 467 747 467 693 c 0,33,34
 467 684 467 684 461 664 c 1,35,36
 422 585 422 585 332.5 481 c 128,-1,37
 243 377 243 377 149 315 c 1,38,39
 118 194 118 194 118 132 c 128,-1,40
 118 70 118 70 122 55 c 0,41,42
 132 16 132 16 188.5 16 c 128,-1,43
 245 16 245 16 322.5 70 c 128,-1,44
 400 124 400 124 484 212 c 2,45,-1
 582 314 l 2,46,47
 585 316 585 316 591 322 c 0,8,9
EndSplineSet
Validated: 19457
EndChar

StartChar: eight
Encoding: 101 56 101
Width: 633
VWidth: 0
Flags: HMW
HStem: -98 122<193.659 308.793> 1127 20G<500.304 545.162>
VStem: 92 89<33.6377 343.733> 351 65<822 945.766> 383 78<167.382 601.513> 630 42<1038 1108.49>
LayerCount: 2
Back
SplineSet
312 1013 m 0
 339 1074 374 1147 438 1147 c 0
 504 1147 597 1104 597 1038 c 0
 597 910 426 834 352 723 c 1
 378 683 387 573 387 477 c 0
 387 235 307 -98 149 -98 c 0
 48 -98 18 -6 18 98 c 0
 18 334 142 563 278 739 c 1
 278 748 277 758 277 770 c 0
 277 859 275 927 312 1013 c 0
173 24 m 1
 178 24 l 2
 253 24 309 252 309 365 c 0
 309 427 304 525 286 605 c 1
 237 573 107 293 107 133 c 0
 107 74 126 30 173 24 c 1
342 822 m 1
 402 912 466 957 501 1064 c 1
 419 1038 342 933 342 822 c 1
EndSplineSet
Fore
SplineSet
351 770 m 0,0,1
 351 931 351 931 389 1018.5 c 128,-1,2
 427 1106 427 1106 457.5 1126.5 c 128,-1,3
 488 1147 488 1147 512 1147 c 0,4,5
 577 1147 577 1147 624 1111.5 c 128,-1,6
 671 1076 671 1076 672 1038 c 1,7,8
 672 967 672 967 588 885 c 1,9,-1
 536 837 l 1,10,11
 454 764 454 764 426 723 c 1,12,13
 461 668 461 668 461 470 c 128,-1,14
 461 272 461 272 400 94 c 0,15,16
 334 -98 334 -98 223 -98 c 0,17,18
 96 -98 96 -98 93 87 c 0,19,20
 93 93 93 93 92 98 c 1,21,22
 92 398 92 398 345 729 c 0,23,24
 352 738 352 738 351.5 751 c 128,-1,25
 351 764 351 764 351 770 c 0,0,1
247 24 m 1,26,-1
 252 24 l 2,27,28
 304 24 304 24 344 146 c 0,29,30
 415 362 415 362 360 605 c 1,31,32
 325 582 325 582 255.5 425.5 c 128,-1,33
 186 269 186 269 182 143 c 0,34,35
 182 137 182 137 181 133 c 1,36,37
 182 33 182 33 247 24 c 1,26,-1
416 822 m 1,38,39
 431 844 431 844 492.5 920.5 c 128,-1,40
 554 997 554 997 575 1064 c 1,41,42
 505 1042 505 1042 460.5 968.5 c 128,-1,43
 416 895 416 895 416 822 c 1,38,39
EndSplineSet
Validated: 8408097
EndChar

StartChar: ellipsis
Encoding: 102 8230 102
Width: 1091
VWidth: 0
Flags: HW
HStem: -3 141<190.771 304.37 505.771 619.37 825.771 939.37>
VStem: 144 168<36.4695 133.991> 459 168<36.4695 133.991> 779 168<36.4695 133.991>
LayerCount: 2
Back
SplineSet
176 179 m 1
 146 112 144 118 144 86 c 0
 144 48 173 -3 234 -3 c 0
 275 -3 312 22 312 69 c 0
 312 99 298 138 245 138 c 0
 194 138 187 144 176 179 c 1
491 179 m 1
 461 112 459 118 459 86 c 0
 459 48 488 -3 549 -3 c 0
 590 -3 627 22 627 69 c 0
 627 99 613 138 560 138 c 0
 509 138 502 144 491 179 c 1
811 179 m 1
 781 112 779 118 779 86 c 0
 779 48 808 -3 869 -3 c 0
 910 -3 947 22 947 69 c 0
 947 99 933 138 880 138 c 0
 829 138 822 144 811 179 c 1
EndSplineSet
Fore
SplineSet
176 179 m 1,0,1
 182 161 182 161 190.5 149.5 c 128,-1,2
 199 138 199 138 228 138 c 128,-1,3
 257 138 257 138 267 135 c 0,4,5
 312 123 312 123 312 69 c 0,6,7
 312 51 312 51 305 36 c 0,8,9
 285 -3 285 -3 244 -3 c 128,-1,10
 203 -3 203 -3 173.5 19 c 128,-1,11
 144 41 144 41 144 86 c 0,12,13
 144 101 144 101 145 107 c 128,-1,14
 146 113 146 113 176 179 c 1,0,1
491 179 m 1,15,16
 497 161 497 161 505.5 149.5 c 128,-1,17
 514 138 514 138 543 138 c 128,-1,18
 572 138 572 138 582 135 c 0,19,20
 627 123 627 123 627 69 c 0,21,22
 627 51 627 51 620 36 c 0,23,24
 600 -3 600 -3 559 -3 c 128,-1,25
 518 -3 518 -3 488.5 19 c 128,-1,26
 459 41 459 41 459 86 c 0,27,28
 459 101 459 101 460 107 c 128,-1,29
 461 113 461 113 491 179 c 1,15,16
811 179 m 1,30,31
 817 161 817 161 825.5 149.5 c 128,-1,32
 834 138 834 138 863 138 c 128,-1,33
 892 138 892 138 902 135 c 0,34,35
 947 123 947 123 947 69 c 0,36,37
 947 51 947 51 940 36 c 0,38,39
 920 -3 920 -3 879 -3 c 128,-1,40
 838 -3 838 -3 808.5 19 c 128,-1,41
 779 41 779 41 779 86 c 0,42,43
 779 101 779 101 780 107 c 128,-1,44
 781 113 781 113 811 179 c 1,30,31
EndSplineSet
Validated: 19457
EndChar

StartChar: emdash
Encoding: 103 8212 103
Width: 1099
VWidth: 0
Flags: HW
HStem: 386 68<62.8467 280.96 289.069 484.18> 413 81<448.188 922.51>
LayerCount: 2
Back
SplineSet
869 413 m 0
 600 408 493 379 360 379 c 0
 206 379 144 381 117 386 c 0
 88 392 56 408 56 437 c 0
 56 446 58 452 78 454 c 0
 566 489 709 494 886 494 c 0
 912 494 926 451 926 432 c 0
 926 414 890 413 869 413 c 0
EndSplineSet
Fore
SplineSet
56 437 m 1,0,1
 56 454 56 454 78 454 c 1,2,3
 625 493 625 493 861 494 c 1,4,-1
 886 494 l 2,5,6
 911 494 911 494 923 453 c 0,7,8
 926 441 926 441 926 432 c 0,9,10
 925 413 925 413 869 413 c 1,11,12
 725 410 725 410 570 394.5 c 128,-1,13
 415 379 415 379 285 379 c 128,-1,14
 155 379 155 379 117 386 c 1,15,16
 61 403 61 403 56 437 c 1,0,1
EndSplineSet
Validated: 19457
EndChar

StartChar: endash
Encoding: 104 8211 104
Width: 875
VWidth: 0
Flags: HW
HStem: 379 67<225.013 602.793> 408 74<346.199 777.965>
VStem: 184 597<410.18 445.935>
LayerCount: 2
Back
SplineSet
742 410 m 0
 557 403 483 379 392 379 c 0
 288 379 243 381 224 384 c 1
 207 390 184 406 184 430 c 0
 184 438 186 445 200 446 c 0
 533 478 632 482 754 482 c 0
 771 482 781 443 781 427 c 0
 781 413 755 410 742 410 c 0
EndSplineSet
Fore
SplineSet
781 427 m 0,0,1
 780 410 780 410 716 408.5 c 128,-1,2
 652 407 652 407 540.5 393 c 128,-1,3
 429 379 429 379 342.5 379 c 128,-1,4
 256 379 256 379 224 384 c 1,5,6
 184 398 184 398 184 430 c 0,7,8
 184 444 184 444 198 446 c 1,9,-1
 200 446 l 1,10,11
 581 482 581 482 754 482 c 0,12,13
 771 482 771 482 779 441 c 0,14,15
 781 432 781 432 781 427 c 0,0,1
EndSplineSet
Validated: 19457
EndChar

StartChar: equal
Encoding: 105 61 105
Width: 1333
VWidth: 0
Flags: HMW
HStem: 410 70<444.266 873.937> 417 13<194 196.561> 658 59<266.976 496.699 503.315 678.936> 680 70<508.257 944.279>
VStem: 194 3<417.241 430> 264 2<689.576 701> 875 2<427 441.708> 945 2<698 712.875>
LayerCount: 2
Back
SplineSet
904 680 m 0
 691 675 606 651 502 651 c 0
 382 651 331 651 310 656 c 0
 288 661 264 678 264 701 c 0
 264 708 266 716 282 717 c 0
 664 748 778 749 917 750 c 0
 936 750 947 714 947 698 c 0
 947 683 918 680 904 680 c 0
834 410 m 0
 621 405 536 381 432 381 c 0
 312 381 261 381 240 386 c 1
 218 390 194 407 194 430 c 0
 194 438 195 445 211 446 c 0
 594 477 707 480 846 480 c 0
 866 480 877 443 877 427 c 0
 877 413 848 410 834 410 c 0
EndSplineSet
Fore
SplineSet
909 750 m 1,0,-1
 917 750 l 2,1,2
 936 750 936 750 945 713 c 0,3,4
 947 704 947 704 947 698 c 0,5,6
 946 680 946 680 904 680 c 1,7,8
 795 677 795 677 669.5 664 c 128,-1,9
 544 651 544 651 438 651 c 0,10,11
 331 652 331 652 303 658 c 0,12,13
 264 666 264 666 264 701 c 0,14,15
 264 715 264 715 279 717 c 1,16,-1
 282 717 l 1,17,18
 666 748 666 748 909 750 c 1,0,-1
877 427 m 0,19,20
 876 410 876 410 800.5 408.5 c 128,-1,21
 725 407 725 407 599.5 394 c 128,-1,22
 474 381 474 381 368 381 c 0,23,24
 261 380 261 380 234 386 c 0,25,26
 200 394 200 394 194 430 c 1,27,28
 194 444 194 444 208 446 c 1,29,-1
 211 446 l 1,30,31
 636 480 636 480 846 480 c 0,32,33
 866 480 866 480 875 442 c 0,34,35
 877 433 877 433 877 427 c 0,19,20
EndSplineSet
Validated: 8391713
EndChar

StartChar: eth
Encoding: 106 240 106
Width: 712
VWidth: 0
Flags: HMW
HStem: -141 90<110.606 261.316> 807 77<584 694.714>
VStem: 22 88<-50.5727 144.53> 293 11<838 854> 515 122<1099.88 1193.26>
DStem2: 347.57 144.19 413.245 101.571 0.215603 0.976481<-136.916 267.1 544.96 666.098>
LayerCount: 2
Back
SplineSet
670 817 m 0
 629 815 597 811 569 807 c 1
 460 245 423 95 368 -8 c 0
 322 -93 251 -141 173 -141 c 0
 62 -141 22 -90 22 -14 c 0
 22 101 114 269 182 402 c 0
 256 547 364 681 429 682 c 0
 434 682 437 680 448 680 c 0
 453 680 461 680 469 682 c 1
 479 717 487 755 494 794 c 1
 473 790 454 788 434 788 c 0
 363 788 333 790 320 793 c 1
 307 800 293 814 293 838 c 0
 293 846 294 852 304 854 c 0
 393 866 455 873 505 878 c 1
 513 950 517 1025 517 1098 c 0
 517 1128 517 1158 515 1187 c 1
 515 1210 530 1224 555 1224 c 0
 590 1224 637 1205 637 1162 c 1
 617 1060 600 968 584 884 c 1
 619 886 647 887 678 887 c 0
 690 887 696 851 696 835 c 0
 696 819 680 817 670 817 c 0
366 491 m 0
 331 491 258 365 244 338 c 0
 194 243 110 82 110 0 c 0
 110 -32 123 -51 154 -51 c 0
 344 -51 389 277 389 413 c 0
 389 459 382 491 366 491 c 0
EndSplineSet
Fore
SplineSet
429 682 m 1,0,-1
 448 680 l 1,1,2
 461 680 461 680 469 682 c 1,3,4
 482 729 482 729 494 794 c 1,5,6
 462 788 462 788 402 788 c 128,-1,7
 342 788 342 788 320 793 c 1,8,9
 294 809 294 809 293 838 c 1,10,11
 295 851 295 851 304 854 c 1,12,13
 416 869 416 869 505 878 c 1,14,15
 517 986 517 986 517 1072 c 128,-1,16
 517 1158 517 1158 515 1187 c 1,17,18
 520 1221 520 1221 555 1224 c 1,19,20
 603 1224 603 1224 619.5 1201.5 c 128,-1,21
 636 1179 636 1179 637 1162 c 1,22,-1
 584 884 l 1,23,24
 637 887 637 887 678 887 c 1,25,26
 692 878 692 878 696 835 c 1,27,28
 695 817 695 817 658.5 816 c 128,-1,29
 622 815 622 815 569 807 c 1,30,31
 460 246 460 246 426 142 c 128,-1,32
 392 38 392 38 368 -8 c 0,33,34
 295 -141 295 -141 173 -141 c 1,35,36
 23 -139 23 -139 22 -14 c 0,37,38
 22 86 22 86 131 302 c 0,39,40
 170 380 170 380 182 402 c 0,41,42
 261 557 261 557 348 637 c 0,43,44
 396 681 396 681 429 682 c 1,0,-1
366 491 m 1,45,46
 333 491 333 491 260 366 c 1,47,-1
 244 338 l 1,48,49
 114 85 114 85 110 0 c 1,50,51
 112 -50 112 -50 154 -51 c 1,52,53
 284 -51 284 -51 348 144 c 0,54,55
 389 271 389 271 389 413 c 1,56,57
 388 490 388 490 366 491 c 1,45,46
EndSplineSet
Validated: 19457
EndChar

StartChar: exclam
Encoding: 107 33 107
Width: 370
VWidth: 0
Flags: HMW
HStem: -3 126<86.9277 192.054>
VStem: 48 150<12.1808 120.852> 131 72<286.137 317.916>
DStem2: 145.648 413.566 331 928 0.178492 0.983941<-88.3803 568.369>
LayerCount: 2
Back
SplineSet
331 928 m 0
 282 698 288 606 261 501 c 0
 229 380 212 331 203 312 c 0
 196 298 182 286 165 286 c 0
 144 286 130 299 130 318 c 0
 130 362 143 396 149 430 c 0
 198 698 216 818 242 925 c 0
 247 946 247 998 275 998 c 0
 302 998 336 988 336 957 c 0
 336 946 333 936 331 928 c 0
77 160 m 1
 50 99 48 106 48 77 c 0
 48 43 74 -3 128 -3 c 0
 165 -3 198 19 198 61 c 0
 198 88 186 123 138 123 c 0
 93 123 86 128 77 160 c 1
EndSplineSet
Fore
SplineSet
275 998 m 1,0,1
 336 998 336 998 336 954 c 0,2,3
 336 946 336 946 321 878.5 c 128,-1,4
 306 811 306 811 290 678 c 0,5,6
 260 434 260 434 203 312 c 1,7,8
 189 287 189 287 162 286.5 c 128,-1,9
 135 286 135 286 131 312 c 0,10,11
 131 316 131 316 130.5 330 c 128,-1,12
 130 344 130 344 139 384 c 0,13,14
 154 451 154 451 189 651.5 c 128,-1,15
 224 852 224 852 233.5 890.5 c 128,-1,16
 243 929 243 929 250 961.5 c 128,-1,17
 257 994 257 994 275 998 c 1,0,1
138 123 m 0,18,19
 198 123 198 123 198 61 c 0,20,21
 198 47 198 47 193 34 c 0,22,23
 177 -3 177 -3 139.5 -3 c 128,-1,24
 102 -3 102 -3 75 16 c 128,-1,25
 48 35 48 35 48 64.5 c 128,-1,26
 48 94 48 94 58.5 118.5 c 128,-1,27
 69 143 69 143 77 160 c 1,28,29
 81 144 81 144 89 133.5 c 128,-1,30
 97 123 97 123 138 123 c 0,18,19
EndSplineSet
Validated: 8408065
EndChar

StartChar: f
Encoding: 109 102 109
Width: 439
VWidth: 0
Flags: HMW
HStem: -579 93<-370.006 -233.876> 685 62<440.351 643.749> 690 104<316.138 530.918> 1061 203<387.594 479.822>
VStem: 509 1<1146 1167.86> 646 16<755 768>
DStem2: 125 456 132.788 188.217 0.279678 0.960094<-408.204 162.29 529.774 672.374>
LayerCount: 2
Back
SplineSet
274 589 m 0
 179 421 101 29 22 -174 c 0
 -39 -330 -157 -579 -312 -579 c 0
 -350 -579 -374 -555 -374 -526 c 0
 -374 -510 -362 -492 -342 -486 c 0
 -203 -445 -146 -398 -90 -280 c 0
 -46 -187 22 6 125 456 c 0
 166 637 238 906 302 1107 c 0
 319 1160 372 1264 437 1264 c 0
 499 1264 510 1190 510 1146 c 0
 510 1112 486 1061 440 1061 c 0
 432 1061 406 1061 387 1080 c 1
 342 918 338 922 298 763 c 1
 315 787 333 794 366 794 c 0
 430 794 494 747 560 747 c 0
 588 747 621 768 646 768 c 0
 653 768 662 766 662 755 c 0
 662 698 574 685 525 685 c 0
 488 685 450 690 421 690 c 0
 349 690 304 643 274 589 c 0
EndSplineSet
Fore
SplineSet
524 685 m 2,0,-1
 421 690 l 1,1,2
 330 689 330 689 274 590 c 128,-1,3
 218 491 218 491 135 197.5 c 128,-1,4
 52 -96 52 -96 22 -174 c 0,5,6
 -123 -545 -123 -545 -284 -576 c 0,7,8
 -299 -579 -299 -579 -312 -579 c 0,9,10
 -369 -579 -369 -579 -374 -526 c 1,11,12
 -374 -497 -374 -497 -342 -486 c 1,13,14
 -218 -450 -218 -450 -170.5 -400 c 128,-1,15
 -123 -350 -123 -350 -90 -280 c 0,16,17
 0 -88 0 -88 100 349 c 128,-1,18
 200 786 200 786 302 1107 c 0,19,20
 327 1185 327 1185 366.5 1224 c 128,-1,21
 406 1263 406 1263 437 1264 c 1,22,23
 510 1264 510 1264 510 1146 c 0,24,25
 510 1104 510 1104 486 1082.5 c 128,-1,26
 462 1061 462 1061 434 1061.5 c 128,-1,27
 406 1062 406 1062 387 1080 c 1,28,29
 369 1014 369 1014 345 935 c 128,-1,30
 321 856 321 856 298 763 c 1,31,32
 326 793 326 793 361.5 793.5 c 128,-1,33
 397 794 397 794 462 770.5 c 128,-1,34
 527 747 527 747 560 747 c 1,35,-1
 646 768 l 1,36,37
 661 766 661 766 662 755 c 1,38,39
 662 701 662 701 565 688 c 0,40,41
 544 685 544 685 524 685 c 2,0,-1
EndSplineSet
Validated: 8408097
EndChar

StartChar: five
Encoding: 110 53 110
Width: 462
VWidth: 0
Flags: HMW
HStem: -43 91<-74.6965 54.672> 723 104<310.854 430.733> 822 21G<314.389 323.625> 1010 89<345.198 366 574 653.49>
VStem: 66 257<100.985 230.824> 210 135<796.176 1008.75> 432 85<527.978 722.001>
LayerCount: 2
Back
SplineSet
234 701 m 0
 294 701 346 723 406 723 c 0
 426 723 432 710 432 694 c 0
 432 461 70 48 -32 48 c 0
 -48 48 -78 27 -78 -22 c 0
 -78 -35 -72 -43 -56 -43 c 0
 -42 -43 -18 -37 19 -18 c 0
 258 104 517 410 517 675 c 0
 517 758 483 827 376 827 c 0
 355 827 338 827 310 822 c 1
 323 896 325 930 330 976 c 0
 333 1006 338 1010 358 1010 c 0
 443 1010 509 1008 574 1008 c 0
 629 1008 662 1042 662 1067 c 0
 662 1096 626 1096 605 1096 c 0
 522 1096 445 1099 366 1099 c 0
 296 1099 239 1053 227 978 c 0
 223 957 209 832 209 759 c 0
 209 725 219 701 234 701 c 0
EndSplineSet
Fore
SplineSet
406 723 m 1,0,-1
 234 701 l 2,1,2
 233 701 233 701 230 702 c 0,3,4
 209 708 209 708 209 742 c 0,5,6
 209 886 209 886 220.5 948.5 c 128,-1,7
 232 1011 232 1011 249 1038 c 0,8,9
 289 1099 289 1099 366 1099 c 2,10,-1
 605 1096 l 2,11,12
 661 1096 661 1096 662 1067 c 0,13,14
 662 1056 662 1056 654 1044 c 0,15,16
 630 1008 630 1008 574 1008 c 2,17,-1
 358 1010 l 2,18,19
 350 1010 350 1010 341.5 1008 c 128,-1,20
 333 1006 333 1006 326 939 c 128,-1,21
 319 872 319 872 310 822 c 1,22,23
 337 827 337 827 359 827 c 2,24,-1
 386 827 l 1,25,26
 517 821 517 821 517 675 c 0,27,28
 517 461 517 461 323 231 c 0,29,30
 184 66 184 66 19 -18 c 0,31,32
 -29 -42 -29 -42 -52.5 -42 c 128,-1,33
 -76 -42 -76 -42 -78 -22 c 1,34,35
 -78 2 -78 2 -65.5 25 c 128,-1,36
 -53 48 -53 48 -26 48 c 128,-1,37
 1 48 1 48 66 101 c 0,38,39
 178 193 178 193 286 348 c 0,40,41
 432 558 432 558 432 694 c 1,42,43
 431 721 431 721 406 723 c 1,0,-1
EndSplineSet
Validated: 8408065
EndChar

StartChar: four
Encoding: 111 52 111
Width: 556
VWidth: 0
Flags: HMW
HStem: -48 29<183.198 191.198> 1123 2<520.033 540.198>
VStem: 26 630
DStem2: 208.198 621 128.198 491 0.932005 0.362446<0 129.393> 315.642 464.989 252.198 64 0.375423 0.926854<-432.87 125.931 247.712 544.667> 496.198 1101 208.198 621 0.645627 0.763653<-552.494 -85.7167>
LayerCount: 2
Back
SplineSet
296 582 m 1
 194 538 144 520 62 491 c 0
 30 480 8 475 -8 475 c 0
 -32 475 -40 485 -40 501 c 0
 -40 525 -15 571 13 608 c 0
 146 787 291 953 430 1101 c 0
 448 1120 448 1125 474 1125 c 0
 518 1125 590 1109 590 1069 c 0
 590 1064 589 1059 587 1054 c 0
 458 718 315 395 186 64 c 0
 155 -16 133 -48 125 -48 c 0
 118 -48 117 -38 117 -19 c 0
 117 158 240 438 296 582 c 1
334 698 m 1
 374 794 426 898 451 971 c 1
 347 858 238 734 142 621 c 1
 334 698 l 1
EndSplineSet
Fore
SplineSet
362 582 m 1,0,1
 113 475 113 475 58 475 c 1,2,3
 27 476 27 476 26.5 506.5 c 128,-1,4
 26 537 26 537 78 606 c 1,5,-1
 79 608 l 1,6,7
 254 843 254 843 496 1101 c 0,8,9
 515 1121 515 1121 521.5 1123 c 128,-1,10
 528 1125 528 1125 540 1125 c 0,11,12
 606 1125 606 1125 630 1105 c 0,13,14
 663 1078 663 1078 653 1054 c 1,15,16
 600 913 600 913 452 555 c 1,17,-1
 252 64 l 1,18,19
 210 -43 210 -43 191 -48 c 1,20,21
 183 -46 183 -46 183 -19 c 0,22,23
 183 131 183 131 316 465 c 2,24,-1
 337 518 l 2,25,26
 355 563 355 563 362 582 c 1,0,1
400 698 m 1,27,-1
 450 812 l 1,28,29
 502 927 502 927 517 971 c 1,30,-1
 208 621 l 1,31,-1
 400 698 l 1,27,-1
EndSplineSet
Validated: 19489
EndChar

StartChar: g
Encoding: 112 103 112
Width: 682
VWidth: 0
Flags: HMW
HStem: -781 2<38.7859 55.7859> 184 16<22.4462 71.7859> 518 93<703.951 747.757> 645 109<537.11 674.477>
VStem: -21 31<271 328.658> 12 26<-760 -746>
LayerCount: 2
Back
SplineSet
387 446 m 0
 352 427 219 346 182 346 c 0
 175 346 170 350 170 357 c 0
 178 422 469 603 571 643 c 0
 574 645 579 645 582 645 c 0
 608 645 621 611 621 611 c 1
 613 566 467 491 387 446 c 0
438 269 m 1
 382 -11 312 -370 164 -604 c 0
 128 -661 56 -730 -16 -746 c 0
 -35 -750 -42 -754 -42 -760 c 0
 -42 -770 -22 -781 2 -781 c 0
 104 -781 226 -669 287 -574 c 0
 422 -362 536 170 565 408 c 1
 582 435 661 518 686 518 c 0
 691 518 694 541 694 563 c 0
 694 600 690 611 659 611 c 0
 654 611 651 611 650 610 c 1
 658 670 683 682 683 682 c 1
 654 720 618 754 558 754 c 0
 507 754 355 648 266 579 c 0
 160 496 -75 340 -75 271 c 0
 -75 225 -24 184 18 184 c 0
 166 184 309 342 424 344 c 0
 440 344 446 338 446 326 c 0
 446 325 446 322 438 269 c 1
EndSplineSet
Fore
SplineSet
675 611 m 1,0,1
 660 645 660 645 636 645 c 0,2,3
 629 645 629 645 625 643 c 0,4,5
 538 609 538 609 383.5 506 c 128,-1,6
 229 403 229 403 224 357 c 1,7,8
 225 348 225 348 236 346 c 1,9,10
 266 346 266 346 350.5 394.5 c 128,-1,11
 435 443 435 443 443 447 c 0,12,13
 451 450 451 450 471 462 c 2,14,-1
 500 479 l 1,15,16
 667 572 667 572 675 611 c 1,0,1
492 269 m 1,17,-1
 492 272 l 1,18,19
 500 322 500 322 500 326 c 0,20,21
 499 342 499 342 471 342.5 c 128,-1,22
 443 343 443 343 409.5 328 c 128,-1,23
 376 313 376 313 262 248.5 c 128,-1,24
 148 184 148 184 72 184 c 0,25,26
 48 184 48 184 13 206 c 0,27,28
 -55 250 -55 250 10 329 c 1,29,30
 60 386 60 386 179 474 c 2,31,-1
 361 610 l 1,32,33
 556 754 556 754 617 753 c 128,-1,34
 678 752 678 752 737 682 c 1,35,36
 712 668 712 668 704 610 c 1,37,38
 705 611 705 611 716 611 c 128,-1,39
 727 611 727 611 737.5 605.5 c 128,-1,40
 748 600 748 600 748 559.5 c 128,-1,41
 748 519 748 519 740 518 c 1,42,43
 726 518 726 518 683 479.5 c 128,-1,44
 640 441 640 441 619 408 c 1,45,46
 600 253 600 253 553 44 c 0,47,48
 453 -399 453 -399 341 -574 c 0,49,50
 307 -626 307 -626 258 -675 c 1,51,52
 148 -781 148 -781 56 -781 c 0,53,54
 12 -781 12 -781 12 -760 c 1,55,56
 13 -752 13 -752 40.5 -745.5 c 128,-1,57
 68 -739 68 -739 102 -719 c 0,58,59
 173 -676 173 -676 218 -604 c 0,60,61
 301 -472 301 -472 360.5 -281 c 128,-1,62
 420 -90 420 -90 492 269 c 1,17,-1
EndSplineSet
Validated: 3105
EndChar

StartChar: germandbls
Encoding: 113 223 113
Width: 547
VWidth: 0
Flags: HMW
HStem: 184 1<250.56 265.588> 789 65<488.671 544.512> 1077 89<386.692 523.546>
VStem: -31 87<-279.881 -171> 223 29<214 250.957> 524 90<955.057 1076.93> 546 76<548.482 788.163>
DStem2: 61.1197 175.307 55.201 -185.358 0.260404 0.9655<-397.722 954.348>
LayerCount: 2
Back
SplineSet
72 -171 m 0
 122 -6 368 890 397 1034 c 1
 422 1050 467 1077 509 1077 c 0
 525 1077 536 1070 536 1056 c 0
 536 1000 435 875 394 838 c 0
 360 808 350 703 350 702 c 0
 350 696 352 694 355 694 c 0
 389 694 478 789 544 789 c 0
 555 789 558 773 558 752 c 0
 558 542 442 358 270 256 c 1
 269 253 235 234 235 214 c 0
 235 203 243 184 278 184 c 0
 437 184 634 534 634 696 c 0
 634 765 590 854 517 854 c 2
 501 854 l 1
 518 872 626 984 626 1059 c 0
 626 1133 547 1166 480 1166 c 0
 416 1166 346 1142 328 1083 c 0
 254 840 -19 -136 -19 -213 c 0
 -19 -266 -6 -288 10 -288 c 0
 34 -288 53 -234 72 -171 c 0
EndSplineSet
Fore
SplineSet
266 184 m 0,0,1
 223 184 223 184 223 214 c 1,2,3
 224 229 224 229 241 242 c 128,-1,4
 258 255 258 255 258 256 c 0,5,6
 346 308 346 308 412 387 c 0,7,8
 546 547 546 547 546 752 c 0,9,10
 546 787 546 787 532 789 c 1,11,12
 494 789 494 789 425.5 741.5 c 128,-1,13
 357 694 357 694 348 694.5 c 128,-1,14
 339 695 339 695 338 702 c 1,15,-1
 338 706 l 2,16,17
 338 710 338 710 339.5 716.5 c 128,-1,18
 341 723 341 723 342 731 c 128,-1,19
 343 739 343 739 345 749 c 128,-1,20
 347 759 347 759 349.5 769 c 128,-1,21
 352 779 352 779 355.5 789.5 c 128,-1,22
 359 800 359 800 363 809 c 0,23,24
 371 827 371 827 387 842 c 128,-1,25
 403 857 403 857 433 895 c 0,26,27
 523 1005 523 1005 524 1056 c 1,28,29
 523 1075 523 1075 497 1077 c 1,30,31
 453 1076 453 1076 385 1034 c 1,32,33
 372 970 372 970 254 526 c 0,34,35
 82 -121 82 -121 55 -185 c 1,36,37
 23 -288 23 -288 -2 -288 c 0,38,39
 -30 -287 -30 -287 -31 -213 c 0,40,41
 -31 -173 -31 -173 90 283 c 128,-1,42
 211 739 211 739 316 1083 c 1,43,44
 344 1166 344 1166 468 1166 c 0,45,46
 505 1166 505 1166 538 1154 c 0,47,48
 613 1126 613 1126 613 1056 c 128,-1,49
 613 986 613 986 489 854 c 1,50,-1
 505 854 l 1,51,52
 547 853 547 853 584.5 809 c 128,-1,53
 622 765 622 765 622 708.5 c 128,-1,54
 622 652 622 652 603 590 c 0,55,56
 560 448 560 448 458.5 316 c 128,-1,57
 357 184 357 184 266 184 c 0,0,1
EndSplineSet
Validated: 8408097
EndChar

StartChar: grave
Encoding: 114 96 114
Width: 453
VWidth: 0
Flags: HW
HStem: 821 40<294.434 339> 1111 20G<114.5 134.5>
VStem: 69 118<974.754 1123.02>
LayerCount: 2
Back
SplineSet
256 915 m 0
 224 955 194 1018 154 1104 c 1
 148 1113 143 1131 130 1131 c 0
 98 1131 69 1090 69 1058 c 0
 69 997 220 869 264 840 c 0
 283 827 296 821 307 821 c 0
 320 821 346 834 346 851 c 0
 346 858 342 859 339 861 c 1
 302 870 280 885 256 915 c 0
EndSplineSet
Fore
SplineSet
130 1131 m 1,0,1
 139 1130 139 1130 146 1118 c 128,-1,2
 153 1106 153 1106 187.5 1032 c 128,-1,3
 222 958 222 958 255.5 916 c 128,-1,4
 289 874 289 874 339 861 c 1,5,-1
 340 860 l 1,6,7
 346 857 346 857 346 851 c 128,-1,8
 346 845 346 845 336 833 c 0,9,10
 328 821 328 821 310 821 c 0,11,12
 280 821 280 821 174.5 913.5 c 128,-1,13
 69 1006 69 1006 69 1058 c 0,14,15
 69 1075 69 1075 79 1093 c 0,16,17
 99 1131 99 1131 130 1131 c 1,0,1
EndSplineSet
Validated: 3073
EndChar

StartChar: greater
Encoding: 115 62 115
Width: 774
VWidth: 0
Flags: HMW
HStem: 229 3<130 141> 736 19<211 226>
VStem: 628 7<493.347 512>
DStem2: 217.095 359.304 141 232 0.88213 0.471007<-126.723 355.3> 324.047 716.362 256 661 0.87933 -0.476213<-103.749 274.624>
LayerCount: 2
Back
SplineSet
226 755 m 0
 214 755 211 746 211 736 c 0
 211 712 234 670 256 661 c 0
 353 619 436 554 533 522 c 1
 405 451 335 430 246 376 c 0
 190 342 115 312 115 250 c 0
 115 238 120 229 130 229 c 0
 136 229 138 230 141 232 c 0
 416 368 502 424 603 480 c 0
 619 488 635 490 635 512 c 0
 635 533 627 555 614 559 c 1
 330 696 290 755 226 755 c 0
EndSplineSet
Fore
SplineSet
226 755 m 1,0,1
 256 753 256 753 324 716 c 1,2,3
 486 620 486 620 550.5 589.5 c 128,-1,4
 615 559 615 559 616 558 c 0,5,6
 635 549 635 549 635 525 c 128,-1,7
 635 501 635 501 630.5 496 c 128,-1,8
 626 491 626 491 605.5 480.5 c 128,-1,9
 585 470 585 470 465 401.5 c 128,-1,10
 345 333 345 333 241 281.5 c 128,-1,11
 137 230 137 230 126.5 230 c 128,-1,12
 116 230 116 230 115.5 251 c 128,-1,13
 115 272 115 272 131.5 295.5 c 128,-1,14
 148 319 148 319 192.5 344.5 c 128,-1,15
 237 370 237 370 261.5 385 c 128,-1,16
 286 400 286 400 386.5 448 c 128,-1,17
 487 496 487 496 533 522 c 1,18,19
 482 539 482 539 386 592.5 c 128,-1,20
 290 646 290 646 268 656 c 0,21,22
 210 681 210 681 211 736 c 1,23,24
 212 753 212 753 226 755 c 1,0,1
EndSplineSet
Validated: 19489
EndChar

StartChar: guillemotleft
Encoding: 116 171 116
Width: 1034
VWidth: 0
Flags: HMW
DStem2: 105.127 387.043 373.082 442.583 0.882981 0.469409<52.6683 539.506> 308.058 291.102 391.43 156.337 0.879327 -0.476218<-134.166 244.632> 409.127 387.043 677.082 442.583 0.882576 0.470171<52.6069 539.492> 612.058 291.102 695.43 156.337 0.879327 -0.476218<-134.166 244.632>
LayerCount: 2
Back
SplineSet
493 117 m 0
 504 117 507 126 507 136 c 0
 507 160 485 201 462 211 c 0
 364 251 282 316 185 349 c 1
 314 420 383 441 472 496 c 0
 528 530 603 560 603 622 c 0
 603 634 598 643 589 643 c 0
 581 643 582 641 578 640 c 0
 302 506 215 447 115 392 c 0
 99 383 83 381 83 360 c 0
 83 345 86 330 93 320 c 1
 96 317 l 2
 98 315 101 313 104 312 c 0
 387 175 427 117 493 117 c 0
797 117 m 0
 808 117 811 126 811 136 c 0
 811 160 789 201 766 211 c 0
 668 251 586 316 489 349 c 1
 618 420 687 441 776 496 c 0
 832 530 907 560 907 622 c 0
 907 634 902 643 893 643 c 0
 885 643 886 641 882 640 c 0
 606 504 520 447 419 392 c 0
 403 383 387 381 387 360 c 0
 387 345 390 330 397 320 c 1
 400 317 l 2
 402 315 405 313 408 312 c 0
 691 175 731 117 797 117 c 0
EndSplineSet
Fore
SplineSet
493 117 m 1,0,1
 462 119 462 119 391 156 c 1,2,3
 226 252 226 252 163 283 c 0,4,5
 98 315 98 315 93 320 c 1,6,7
 63 367 63 367 105 387 c 0,8,9
 112 390 112 390 124 397 c 2,10,-1
 169 423 l 1,11,12
 376 542 376 542 480.5 592.5 c 128,-1,13
 585 643 585 643 589 643 c 0,14,15
 602 642 602 642 602.5 621 c 128,-1,16
 603 600 603 600 586.5 576.5 c 128,-1,17
 570 553 570 553 525.5 527.5 c 128,-1,18
 481 502 481 502 456 486 c 128,-1,19
 431 470 431 470 328.5 421 c 128,-1,20
 226 372 226 372 185 349 c 1,21,22
 234 332 234 332 328.5 279.5 c 128,-1,23
 423 227 423 227 447 217 c 0,24,25
 507 192 507 192 507 136 c 1,26,27
 506 119 506 119 493 117 c 1,0,1
797 117 m 1,28,29
 766 119 766 119 695 156 c 1,30,31
 530 252 530 252 467 283 c 0,32,33
 402 315 402 315 397 320 c 1,34,35
 367 367 367 367 409 387 c 0,36,37
 416 390 416 390 428 397 c 2,38,-1
 471 421 l 2,39,40
 687 544 687 544 788 593.5 c 128,-1,41
 889 643 889 643 893 643 c 0,42,43
 906 642 906 642 906.5 621 c 128,-1,44
 907 600 907 600 890.5 576.5 c 128,-1,45
 874 553 874 553 829.5 527.5 c 128,-1,46
 785 502 785 502 760 486 c 128,-1,47
 735 470 735 470 632.5 421 c 128,-1,48
 530 372 530 372 489 349 c 1,49,50
 538 332 538 332 632.5 279.5 c 128,-1,51
 727 227 727 227 751 217 c 0,52,53
 811 192 811 192 811 136 c 1,54,55
 810 119 810 119 797 117 c 1,28,29
EndSplineSet
Validated: 19489
EndChar

StartChar: guillemotright
Encoding: 117 187 117
Width: 1023
VWidth: 0
Flags: HMW
VStem: 625 7<381.347 400> 929 7<381.347 400>
DStem2: 214.057 247.304 137.962 120 0.88213 0.471007<-126.723 355.3> 321.009 604.362 252.962 549 0.879645 -0.475631<-103.757 274.577> 518.057 247.304 441.962 120 0.88213 0.471007<-126.723 355.3> 625.009 604.362 556.962 549 0.87933 -0.476213<-103.749 274.624>
LayerCount: 2
Back
SplineSet
498 643 m 0
 486 643 483 634 483 624 c 0
 483 600 506 558 528 549 c 0
 625 507 708 442 805 410 c 1
 677 339 607 318 518 264 c 0
 462 230 387 200 387 138 c 0
 387 126 392 117 402 117 c 0
 408 117 410 118 413 120 c 0
 688 256 774 312 875 368 c 0
 891 376 907 378 907 400 c 0
 907 421 899 443 886 447 c 1
 602 584 562 643 498 643 c 0
586 446 m 0
 585 446 583 447 582 447 c 0
 298 584 258 643 194 643 c 0
 182 643 179 634 179 624 c 0
 179 600 202 558 224 549 c 0
 321 507 404 442 501 410 c 1
 373 339 303 318 214 264 c 0
 158 230 83 200 83 138 c 0
 83 126 88 117 98 117 c 0
 104 117 106 118 109 120 c 0
 384 256 470 312 571 368 c 0
 587 376 603 378 603 400 c 0
 603 416 598 433 590 442 c 0
 589 444 587 444 586 446 c 0
EndSplineSet
Fore
SplineSet
527 643 m 1,0,1
 557 641 557 641 625 604 c 1,2,3
 787 508 787 508 851.5 477.5 c 128,-1,4
 916 447 916 447 917 446 c 0,5,6
 936 437 936 437 936 413 c 128,-1,7
 936 389 936 389 931.5 384 c 128,-1,8
 927 379 927 379 906.5 368.5 c 128,-1,9
 886 358 886 358 766 289.5 c 128,-1,10
 646 221 646 221 542 169.5 c 128,-1,11
 438 118 438 118 427.5 118 c 128,-1,12
 417 118 417 118 416.5 139 c 128,-1,13
 416 160 416 160 429 180 c 0,14,15
 448 207 448 207 493 232.5 c 128,-1,16
 538 258 538 258 562.5 273 c 128,-1,17
 587 288 587 288 687 336 c 128,-1,18
 787 384 787 384 834 410 c 1,19,20
 783 427 783 427 687 480 c 0,21,22
 592 534 592 534 570 544 c 0,23,24
 512 570 512 570 512 624 c 1,25,26
 513 641 513 641 527 643 c 1,0,1
615 446 m 1,27,28
 631 430 631 430 631.5 409.5 c 128,-1,29
 632 389 632 389 627.5 384 c 128,-1,30
 623 379 623 379 602.5 368.5 c 128,-1,31
 582 358 582 358 462 289.5 c 128,-1,32
 342 221 342 221 238 169.5 c 128,-1,33
 134 118 134 118 123.5 118 c 128,-1,34
 113 118 113 118 112.5 139 c 128,-1,35
 112 160 112 160 125 180 c 0,36,37
 144 207 144 207 189 232.5 c 128,-1,38
 234 258 234 258 258.5 273 c 128,-1,39
 283 288 283 288 383 336 c 128,-1,40
 483 384 483 384 530 410 c 1,41,42
 479 427 479 427 383 480 c 0,43,44
 288 534 288 534 266 544 c 0,45,46
 208 570 208 570 208 624 c 1,47,48
 209 641 209 641 223 643 c 1,49,50
 253 641 253 641 321 604 c 1,51,52
 451 527 451 527 613 446 c 1,53,-1
 615 446 l 1,27,28
EndSplineSet
Validated: 3073
EndChar

StartChar: h
Encoding: 118 104 118
Width: 557
VWidth: 0
Flags: HMW
HStem: -29 63<391.004 456.452> 450 22<731 746> 698 41<459 499> 1279 4<502 531.729>
VStem: 298 89<36.8491 437.668> 731 15<450 472>
DStem2: 12.3072 152.974 111.336 137.892 0.386352 0.922351<-133.786 414.97 513.296 948.762>
LayerCount: 2
Back
SplineSet
288 594 m 1
 469 1037 518 1133 568 1219 c 0
 573 1227 574 1234 574 1240 c 0
 574 1267 536 1283 502 1283 c 0
 474 1283 454 1272 450 1254 c 0
 439 1200 401 1094 346 970 c 0
 174 584 -40 30 -40 -2 c 0
 -40 -22 -27 -29 -10 -29 c 0
 10 -29 38 -18 48 -8 c 0
 109 58 166 443 341 499 c 1
 328 427 298 227 298 130 c 0
 298 58 314 -29 397 -29 c 0
 514 -29 746 282 746 450 c 0
 746 464 738 472 731 472 c 0
 710 472 697 461 678 421 c 0
 612 286 539 142 461 69 c 0
 442 51 420 34 405 34 c 0
 390 34 387 64 387 99 c 0
 387 258 450 555 493 667 c 0
 496 677 499 688 499 698 c 0
 499 720 488 739 459 739 c 0
 415 739 406 730 386 709 c 0
 342 663 313 624 288 594 c 1
EndSplineSet
Fore
SplineSet
288 594 m 1,0,1
 289 595 289 595 326 640 c 0,2,3
 363 684 363 684 378 700 c 2,4,-1
 397 720 l 1,5,6
 417 739 417 739 457 738.5 c 128,-1,7
 497 738 497 738 499 698 c 0,8,9
 499 687 499 687 485 649 c 128,-1,10
 471 611 471 611 447 507 c 0,11,12
 387 255 387 255 387 99 c 0,13,14
 387 36 387 36 405 34 c 1,15,16
 436 34 436 34 501 113 c 0,17,18
 560 184 560 184 687 439 c 1,19,20
 706 472 706 472 731 472 c 1,21,22
 744 469 744 469 746 450 c 1,23,24
 746 400 746 400 719 332 c 0,25,26
 668 201 668 201 565.5 86 c 128,-1,27
 463 -29 463 -29 397 -29 c 0,28,29
 300 -28 300 -28 298 130 c 1,30,31
 298 260 298 260 341 499 c 1,32,33
 277 478 277 478 226 398 c 0,34,35
 176 318 176 318 122 166 c 0,36,37
 66 9 66 9 45 -11 c 1,38,39
 21 -29 21 -29 -8.5 -28.5 c 128,-1,40
 -38 -28 -38 -28 -39 -7 c 128,-1,41
 -40 14 -40 14 64 292 c 128,-1,42
 168 570 168 570 299.5 866 c 128,-1,43
 431 1162 431 1162 450 1254 c 1,44,45
 457 1282 457 1282 502 1283 c 0,46,47
 517 1283 517 1283 532 1279 c 0,48,49
 574 1268 574 1268 574 1240 c 0,50,51
 574 1230 574 1230 568 1218 c 2,52,-1
 554 1194 l 1,53,54
 478 1059 478 1059 288 594 c 1,0,1
EndSplineSet
Validated: 3105
EndChar

StartChar: hyphen
Encoding: 119 45 119
Width: 669
VWidth: 0
Flags: HW
HStem: 384 61<135.54 238.196 241.817 439.092> 408 70<241.817 533.771>
VStem: 133 403<407.583 444.904>
LayerCount: 2
Back
SplineSet
510 408 m 0
 386 403 334 379 274 379 c 0
 203 379 173 381 160 384 c 1
 147 391 133 405 133 429 c 0
 133 437 134 443 144 445 c 0
 370 475 435 478 518 478 c 0
 530 478 536 442 536 426 c 0
 536 410 520 408 510 408 c 0
EndSplineSet
Fore
SplineSet
510 408 m 1,0,1
 447 405 447 405 372.5 392 c 128,-1,2
 298 379 298 379 240 379 c 128,-1,3
 182 379 182 379 160 384 c 1,4,5
 134 400 134 400 133 429 c 1,6,7
 135 442 135 442 144 445 c 1,8,9
 396 478 396 478 518 478 c 1,10,11
 532 469 532 469 536 426 c 1,12,13
 535 408 535 408 510 408 c 1,0,1
EndSplineSet
Validated: 19457
EndChar

StartChar: i
Encoding: 120 105 120
Width: 489
VWidth: 0
Flags: HMW
HStem: -46 67<194.394 335.211> 775 20G<280.569 302.684> 922 3<360 369> 1210 8<480 494>
VStem: 85 89<33.537 455.769> 320 1<957.101 963> 550 61<261.25 334.544>
LayerCount: 2
Back
SplineSet
349 925 m 0
 314 951 309 953 309 963 c 0
 309 1006 442 1158 469 1210 c 0
 472 1214 477 1218 483 1218 c 0
 510 1218 562 1174 562 1130 c 0
 562 1125 562 1122 560 1117 c 0
 552 1085 411 922 358 922 c 0
 354 922 352 923 349 925 c 0
597 294 m 0
 544 146 341 -46 232 -46 c 0
 118 -46 74 53 74 178 c 0
 74 392 190 795 275 795 c 0
 304 795 339 774 339 757 c 0
 339 694 224 532 194 419 c 0
 184 383 163 227 163 154 c 0
 163 91 166 21 237 21 c 0
 349 21 496 227 539 312 c 0
 542 317 550 336 570 336 c 0
 590 336 600 323 600 309 c 0
 600 304 598 299 597 294 c 0
EndSplineSet
Fore
SplineSet
369 922 m 1,0,1
 364 924 364 924 344 938 c 0,2,3
 320 955 320 955 320 963 c 0,4,5
 320 990 320 990 395 1090 c 128,-1,6
 470 1190 470 1190 480 1210 c 1,7,8
 505 1235 505 1235 549 1185 c 1,9,10
 584 1143 584 1143 571 1117 c 1,11,12
 564 1091 564 1091 486 1007 c 128,-1,13
 408 923 408 923 369 922 c 1,0,1
608 294 m 1,14,15
 571 190 571 190 461 82 c 0,16,17
 331 -46 331 -46 243 -46 c 0,18,19
 124 -46 124 -46 94 89 c 0,20,21
 85 130 85 130 85 178 c 0,22,23
 84 333 84 333 144 537 c 0,24,25
 219 795 219 795 286 795 c 0,26,27
 319 795 319 795 334.5 779.5 c 128,-1,28
 350 764 350 764 350 757 c 0,29,30
 350 725 350 725 285 599.5 c 128,-1,31
 220 474 220 474 204.5 417.5 c 128,-1,32
 189 361 189 361 181.5 270.5 c 128,-1,33
 174 180 174 180 174 154 c 0,34,35
 174 66 174 66 195.5 44 c 128,-1,36
 217 22 217 22 248 21 c 1,37,38
 336 21 336 21 458 174 c 0,39,40
 517 249 517 249 550 312 c 1,41,42
 565 336 565 336 581 336 c 1,43,44
 608 332 608 332 611 309 c 0,45,46
 611 306 611 306 608 294 c 1,14,15
EndSplineSet
Validated: 19489
EndChar

StartChar: j
Encoding: 125 106 125
Width: 325
VWidth: 0
Flags: HMW
HStem: -779 33<-405.663 -363.261> 918 4<298 307> 1206 8<418 432>
VStem: -406 25<-760 -746> 204 108<601.622 791.886> 509 1<1114 1126>
DStem2: 182 683 287.524 654.08 0.282009 0.959412<-442.996 90.2963>
LayerCount: 2
Back
SplineSet
120 -22 m 0
 294 685 307 728 310 747 c 0
 312 754 312 760 312 765 c 0
 312 787 299 794 282 794 c 0
 184 794 203 766 182 683 c 0
 118 437 62 218 10 -21 c 0
 -36 -231 -103 -444 -202 -603 c 0
 -238 -661 -308 -731 -381 -746 c 0
 -400 -750 -406 -754 -406 -760 c 0
 -406 -770 -387 -781 -363 -781 c 0
 -261 -781 -139 -669 -78 -573 c 0
 -2 -453 67 -234 120 -22 c 0
298 922 m 0
 265 945 258 949 258 960 c 0
 258 1003 390 1155 418 1206 c 0
 421 1211 426 1214 432 1214 c 0
 459 1214 510 1171 510 1126 c 0
 510 1122 510 1118 509 1114 c 0
 501 1082 360 918 307 918 c 0
 302 918 301 920 298 922 c 0
EndSplineSet
Fore
SplineSet
312 765 m 0,0,1
 312 751 312 751 265 563 c 2,2,-1
 120 -20 l 2,3,4
 22 -415 22 -415 -78 -573 c 0,5,6
 -112 -626 -112 -626 -162 -675 c 0,7,8
 -271 -781 -271 -781 -363 -781 c 0,9,10
 -406 -781 -406 -781 -406 -760 c 1,11,12
 -405 -752 -405 -752 -378.5 -746 c 128,-1,13
 -352 -740 -352 -740 -320 -721 c 0,14,15
 -249 -679 -249 -679 -202 -603 c 0,16,17
 -72 -394 -72 -394 10 -21 c 0,18,19
 67 241 67 241 126 468 c 128,-1,20
 185 695 185 695 191.5 728.5 c 128,-1,21
 198 762 198 762 204 771 c 0,22,23
 219 794 219 794 282 794 c 1,24,25
 310 793 310 793 312 765 c 0,0,1
307 918 m 1,26,27
 302 919 302 919 282 933 c 0,28,29
 258 950 258 950 258 960 c 0,30,31
 258 987 258 987 332.5 1087 c 128,-1,32
 407 1187 407 1187 418 1206 c 1,33,34
 424 1213 424 1213 441 1213.5 c 128,-1,35
 458 1214 458 1214 484 1184 c 0,36,37
 517 1145 517 1145 509.5 1116.5 c 128,-1,38
 502 1088 502 1088 424 1003.5 c 128,-1,39
 346 919 346 919 307 918 c 1,26,27
EndSplineSet
Validated: 19489
EndChar

StartChar: k
Encoding: 126 107 126
Width: 488
VWidth: 0
Flags: HMW
HStem: -304 61<354.428 472.201> 586 96<323.596 451.197> 1210 4<523.275 541.275>
VStem: 6 116<46.9462 212.262> 453 121<521.425 642.862> 529 10<-269.865 -242> 555 31<1074 1131>
DStem2: 25.7713 143.25 122.573 146.612 0.354385 0.935099<-70.1923 144.512>
LayerCount: 2
Back
SplineSet
533 1210 m 0
 528 1213 522 1214 515 1214 c 0
 506 1214 496 1211 491 1205 c 0
 328 986 37 197 32 182 c 0
 16 136 -2 101 -2 75 c 0
 -2 44 35 29 45 29 c 0
 89 29 124 193 150 248 c 1
 173 248 136 -304 413 -304 c 0
 464 -304 531 -288 531 -242 c 0
 531 -221 514 -198 494 -198 c 0
 469 -198 443 -243 402 -243 c 0
 291 -243 264 50 264 138 c 0
 264 230 264 269 270 306 c 1
 392 383 566 526 566 621 c 0
 566 662 526 682 483 682 c 0
 459 682 334 669 315 650 c 1
 405 858 349 930 547 1074 c 0
 558 1082 578 1102 578 1131 c 0
 578 1165 557 1194 533 1210 c 0
443 581 m 1
 445 579 445 576 445 574 c 0
 445 536 294 408 262 408 c 0
 251 408 238 416 238 437 c 0
 238 469 246 488 261 502 c 0
 302 541 395 586 430 586 c 0
 437 586 442 584 443 581 c 1
EndSplineSet
Fore
SplineSet
541 1210 m 1,0,1
 584 1180 584 1180 584.5 1138.5 c 128,-1,2
 585 1097 585 1097 555 1074 c 1,3,4
 483 1022 483 1022 445 972 c 128,-1,5
 407 922 407 922 378.5 817.5 c 128,-1,6
 350 713 350 713 323 650 c 1,7,8
 332 658 332 658 385 670 c 128,-1,9
 438 682 438 682 472 682 c 0,10,11
 575 682 575 682 574 621 c 0,12,13
 573 571 573 571 499 485 c 128,-1,14
 425 399 425 399 278 306 c 1,15,16
 272 269 272 269 272 162.5 c 128,-1,17
 272 56 272 56 290 -39 c 0,18,19
 327 -243 327 -243 410 -243 c 1,20,21
 432 -242 432 -242 462 -220 c 128,-1,22
 492 -198 492 -198 500.5 -198 c 128,-1,23
 509 -198 509 -198 524.5 -207 c 128,-1,24
 540 -216 540 -216 540 -236 c 0,25,26
 538 -304 538 -304 431.5 -303.5 c 128,-1,27
 325 -303 325 -303 265 -215 c 0,28,29
 192 -107 192 -107 170 158 c 0,30,31
 163 248 163 248 158 248 c 1,32,33
 153 237 153 237 118 133 c 128,-1,34
 83 29 83 29 53 29 c 0,35,36
 49 29 49 29 41 32 c 0,37,38
 6 46 6 46 6 69.5 c 128,-1,39
 6 93 6 93 21 130.5 c 128,-1,40
 36 168 36 168 43 190 c 128,-1,41
 50 212 50 212 101 343 c 0,42,43
 364 1023 364 1023 499 1205 c 1,44,45
 516 1222 516 1222 541 1210 c 1,0,1
453 574 m 0,46,47
 453 585 453 585 437.5 585.5 c 128,-1,48
 422 586 422 586 368 565 c 128,-1,49
 314 544 314 544 269 502 c 0,50,51
 247 481 247 481 246 437 c 1,52,53
 249 414 249 414 270 408 c 1,54,55
 295 409 295 409 374.5 477.5 c 128,-1,56
 454 546 454 546 453 574 c 0,46,47
EndSplineSet
Validated: 8408097
EndChar

StartChar: l
Encoding: 127 108 127
Width: 419
VWidth: 0
Flags: HMW
HStem: -410 66<183.776 398.719> -140 2<589 600.482> 1061 86<517 638>
VStem: 3 82<-236.009 208.804> 531 107<963.276 1053.97> 613 13<-240 -190>
LayerCount: 2
Back
SplineSet
85 -62 m 0
 85 109 136 330 282 494 c 1
 455 726 638 967 638 1061 c 0
 638 1112 608 1147 517 1147 c 0
 421 1147 365 1027 325 944 c 0
 235 760 90 352 61 267 c 0
 30 177 3 58 3 -56 c 0
 3 -235 69 -410 294 -410 c 0
 408 -410 562 -346 613 -240 c 0
 622 -222 626 -206 626 -190 c 0
 626 -160 610 -138 589 -138 c 0
 577 -138 564 -144 550 -162 c 0
 471 -262 404 -344 277 -344 c 0
 136 -344 85 -166 85 -62 c 0
517 1054 m 0
 523 1054 531 1051 531 1046 c 0
 531 1041 292 606 269 606 c 0
 267 606 267 608 267 611 c 0
 267 660 483 1053 517 1054 c 0
EndSplineSet
Fore
SplineSet
85 -62 m 0,0,1
 85 -143 85 -143 117 -218 c 0,2,3
 171 -344 171 -344 277 -344 c 0,4,5
 360 -344 360 -344 416.5 -301.5 c 128,-1,6
 473 -259 473 -259 550 -162 c 0,7,8
 574 -131 574 -131 600 -141 c 0,9,10
 626 -150 626 -150 626 -182 c 0,11,12
 626 -276 626 -276 514.5 -343 c 128,-1,13
 403 -410 403 -410 302 -410 c 0,14,15
 3 -410 3 -410 3 -56 c 0,16,17
 3 99 3 99 61 267 c 2,18,-1
 71 296 l 1,19,20
 258 832 258 832 361 1015 c 1,21,22
 433 1147 433 1147 517 1147 c 0,23,24
 636 1146 636 1146 638 1061 c 1,25,26
 638 1008 638 1008 567 893.5 c 128,-1,27
 496 779 496 779 282 494 c 1,28,29
 228 433 228 433 186 356 c 0,30,31
 85 166 85 166 85 -62 c 0,0,1
269 606 m 1,32,33
 284 607 284 607 407.5 822.5 c 128,-1,34
 531 1038 531 1038 530 1045.5 c 128,-1,35
 529 1053 529 1053 522 1053.5 c 128,-1,36
 515 1054 515 1054 513 1052 c 0,37,38
 480 1032 480 1032 373.5 839.5 c 128,-1,39
 267 647 267 647 267 611 c 0,40,41
 267 608 267 608 269 606 c 1,32,33
EndSplineSet
Validated: 8391713
EndChar

StartChar: less
Encoding: 128 60 128
Width: 747
VWidth: 0
Flags: HMW
HStem: 229 19<491 506> 472 7<82 82.6197> 734 21<587 602>
VStem: 82 1<472 478.847>
DStem2: 103.574 498.897 371.689 554.848 0.881755 0.471707<53.0397 540.432> 307.289 403.3 390.941 267.889 0.879426 -0.476035<-134.282 243.643>
LayerCount: 2
Back
SplineSet
491 229 m 0
 502 229 506 238 506 248 c 0
 506 272 483 314 461 323 c 0
 362 364 280 429 184 461 c 1
 312 532 381 553 470 608 c 0
 526 642 602 672 602 734 c 0
 602 746 597 755 587 755 c 0
 581 755 579 754 576 752 c 0
 301 616 214 562 114 504 c 0
 98 495 82 494 82 472 c 0
 82 458 85 443 91 434 c 1
 92 430 94 428 97 427 c 1
 98 425 100 425 102 424 c 0
 386 287 426 229 491 229 c 0
EndSplineSet
Fore
SplineSet
491 229 m 1,0,1
 460 231 460 231 391 268 c 1,2,3
 227 364 227 364 163 394.5 c 128,-1,4
 99 425 99 425 96 427 c 0,5,6
 82 436 82 436 82 455.5 c 128,-1,7
 82 475 82 475 84 483 c 0,8,9
 85 490 85 490 98 496 c 0,10,11
 123 507 123 507 226 568 c 0,12,13
 334 633 334 633 457 693.5 c 128,-1,14
 580 754 580 754 590.5 754 c 128,-1,15
 601 754 601 754 601.5 733 c 128,-1,16
 602 712 602 712 586 688 c 0,17,18
 568 666 568 666 524 640 c 2,19,-1
 470 608 l 1,20,21
 429 583 429 583 328 534 c 128,-1,22
 227 485 227 485 184 461 c 1,23,24
 233 444 233 444 327.5 391.5 c 128,-1,25
 422 339 422 339 446 329 c 0,26,27
 506 304 506 304 506 248 c 1,28,29
 505 231 505 231 491 229 c 1,0,1
EndSplineSet
Validated: 3073
EndChar

StartChar: logicalnot
Encoding: 129 172 129
Width: 973
VWidth: 0
Flags: HW
HStem: 667 48<150.955 546.289> 690 51<534.678 785>
VStem: 717 41<433.628 476.09>
LayerCount: 2
Back
SplineSet
784 690 m 1
 571 685 488 667 384 667 c 0
 266 667 214 666 192 670 c 0
 173 673 147 685 147 704 c 0
 147 709 149 714 165 715 c 0
 544 738 658 741 795 741 c 0
 813 741 824 720 826 706 c 0
 827 705 827 705 827 704 c 2
 827 701 l 2
 827 700 827 699 826 699 c 0
 822 657 773 473 758 427 c 0
 757 422 750 421 742 421 c 0
 730 421 717 422 717 434 c 0
 717 464 750 628 785 690 c 1
 784 690 l 1
EndSplineSet
Fore
SplineSet
784 690 m 1,0,1
 384 667 l 1,2,3
 209 667 209 667 182.5 671.5 c 128,-1,4
 156 676 156 676 148 697 c 0,5,6
 147 701 147 701 147 707 c 0,7,8
 147 715 147 715 165 715 c 1,9,10
 593 741 593 741 795 741 c 0,11,12
 817 741 817 741 826 706 c 1,13,-1
 827 704 l 1,14,-1
 827 701 l 1,15,-1
 826 699 l 1,16,17
 821 643 821 643 791 540 c 2,18,-1
 758 427 l 1,19,20
 755 421 755 421 736.5 421.5 c 128,-1,21
 718 422 718 422 717 434 c 1,22,23
 717 476 717 476 741.5 566.5 c 128,-1,24
 766 657 766 657 785 690 c 1,25,-1
 784 690 l 1,0,1
EndSplineSet
Validated: 19457
EndChar

StartChar: m
Encoding: 130 109 130
Width: 753
VWidth: 0
Flags: HMW
HStem: -61 67<442.992 577.102> 38 20<-130.677 -98.6775> 353 20<871.323 897.225> 756 17<549.323 604.27> 833 20G<255.15 286.788>
VStem: -131 32<38 58> 356 73<16.477 316.107> 609 6<726.263 741> 897 1<344 352.666>
LayerCount: 2
Back
SplineSet
570.412 37 m 0
 661.627 110.137 743.28 205.115 815.37 321.935 c 0
 825.639 338.649 825.639 338.649 834.412 354 c 0
 841.378 364.897 851.711 371.23 865.412 373 c 1
 879.065 373 887.699 366.222 891.314 352.666 c 0
 891.969 349.537 892.335 346.648 892.412 344 c 0
 892.412 309.658 846.767 238.795 755.478 131.411 c 0
 694.343 59.6669 646.655 10.5299 612.412 -16 c 1
 572.744 -45.7611 534.411 -60.7611 497.412 -61 c 0
 446.657 -61 407.267 -34.9766 379.242 17.0703 c 0
 360.187 53.2136 350.577 94.8568 350.412 142 c 0
 350.412 189.623 365.217 265.644 394.828 370.064 c 0
 409.823 423.153 419.351 460.799 423.412 483 c 1
 423.307 492.773 422.973 498.773 422.412 501 c 1
 390.817 460.189 345.475 386.453 286.387 279.793 c 0
 264.616 240.552 247.291 210.287 234.412 189 c 0
 222.644 169.667 210.644 160 198.412 160 c 0
 171.985 160 155.849 174.855 150.005 204.565 c 0
 149.003 210.287 148.472 215.765 148.412 221 c 0
 148.412 239.902 161.5 275.789 187.677 328.66 c 0
 213.268 380.94 226.179 418.72 226.412 442 c 1
 222.139 434.804 213.556 418.38 200.662 392.727 c 0
 166.557 325.056 136.807 270.813 111.412 230 c 0
 66.0475 157.951 28.5299 108.887 -1.14062 82.8096 c 0
 -35.5176 53.2477 -70.0001 38.3112 -104.588 38 c 1
 -125.185 38.7422 -135.851 45.4089 -136.588 58 c 0
 -136.588 63.0593 -129.194 71.0912 -114.407 82.0957 c 0
 -107.044 87.6374 -101.105 92.2721 -96.5879 96 c 0
 -31.6139 148.532 11.8724 198.091 33.8711 244.677 c 0
 40.1745 258.026 53.5293 296.829 73.9355 361.088 c 0
 77.9297 373.607 77.9297 373.607 81.4121 384 c 0
 96.618 429.618 123.998 529.208 163.553 682.771 c 0
 170.089 708.105 170.089 708.105 175.412 728 c 0
 177.031 733.83 179.256 742.897 182.087 755.2 c 0
 191.96 798.112 203.913 825.698 217.946 837.958 c 0
 230.026 847.754 244.848 852.768 262.412 853 c 0
 287.032 853 302.625 845.837 309.191 831.51 c 0
 310.54 827.861 311.28 824.358 311.412 821 c 0
 311.155 813.365 307.488 800.365 300.412 782 c 0
 287.817 746.417 255.154 674.892 202.423 567.427 c 0
 174.055 509.446 154.051 464.304 142.412 432 c 1
 146.155 436.335 163.339 462.881 193.964 511.639 c 0
 202.091 524.469 208.907 534.589 214.412 542 c 0
 216.585 545.105 222.952 556.239 233.511 575.402 c 0
 288.603 674.796 324.903 725.662 342.412 728 c 0
 343.241 728 344.803 728.248 347.098 728.745 c 0
 351.261 729.5 354.365 729.918 356.412 730 c 0
 389.798 729.337 406.798 719.671 407.412 701 c 0
 407.007 693.097 405.341 686.764 402.412 682 c 1
 398.127 670.215 389.89 651.53 377.703 625.945 c 0
 351.062 569.386 337.632 528.071 337.412 502 c 0
 337.412 500.667 337.579 498.667 337.912 496 c 0
 338.203 493.111 338.369 491.111 338.412 490 c 1
 366.515 531.977 366.515 531.977 412.374 601.632 c 0
 460.287 674.354 495.966 727.143 519.412 760 c 1
 526.392 768.478 534.392 772.811 543.412 773 c 0
 563.583 773 581.899 767.475 598.359 756.425 c 0
 605.238 751.09 608.923 745.948 609.412 741 c 0
 609.412 740.786 607.435 735.874 603.48 726.263 c 0
 483.751 434.684 423.728 226.597 423.412 102 c 0
 423.412 51.1159 440.246 20.2122 473.914 9.28906 c 0
 481.054 7.19401 488.22 6.09765 495.412 6 c 0
 521.107 6.55599 546.107 16.8893 570.412 37 c 0
EndSplineSet
Fore
SplineSet
348 728 m 1,0,-1
 362 730 l 1,1,2
 414 729 414 729 413 701 c 0,3,4
 412 689 412 689 407 676.5 c 128,-1,5
 402 664 402 664 373 602 c 0,6,7
 337 525 337 525 344 496 c 1,8,-1
 344 490 l 1,9,-1
 418 602 l 2,10,11
 490 711 490 711 525 760 c 0,12,13
 535 773 535 773 559 773 c 128,-1,14
 583 773 583 773 598.5 760.5 c 128,-1,15
 614 748 614 748 615 741 c 1,16,-1
 609 726 l 1,17,18
 429 289 429 289 429 102 c 0,19,20
 429 24 429 24 480 9 c 0,21,22
 527 -4 527 -4 576 37 c 1,23,24
 713 147 713 147 821 322 c 1,25,-1
 840 354 l 2,26,27
 850 370 850 370 871 373 c 1,28,29
 898 373 898 373 898 344 c 0,30,31
 898 292 898 292 783.5 157.5 c 128,-1,32
 669 23 669 23 613.5 -19 c 128,-1,33
 558 -61 558 -61 492.5 -61 c 128,-1,34
 427 -61 427 -61 385 17 c 0,35,36
 356 71 356 71 356 142 c 128,-1,37
 356 213 356 213 389.5 331.5 c 128,-1,38
 423 450 423 450 426 474 c 128,-1,39
 429 498 429 498 428 501 c 1,40,41
 381 440 381 440 320 330 c 2,42,-1
 240 189 l 1,43,44
 222 160 222 160 204 160 c 0,45,46
 154 160 154 160 154 221 c 0,47,48
 154 249 154 249 193 328 c 128,-1,49
 232 407 232 407 232 442 c 1,50,51
 218 419 218 419 184 355 c 0,52,53
 110 216 110 216 -11 95 c 0,54,55
 -57 50 -57 50 -97 41 c 1,56,57
 -156 48 -156 48 -131 72 c 0,58,59
 -63 138 -63 138 -21 190 c 0,60,61
 67 299 67 299 105.5 440.5 c 128,-1,62
 144 582 144 582 149 606 c 128,-1,63
 154 630 154 630 168 684 c 2,64,-1
 188 755 l 1,65,66
 203 819 203 819 222.5 836 c 128,-1,67
 242 853 242 853 268 853 c 0,68,69
 317 853 317 853 317 821 c 0,70,71
 317 791 317 791 241 635.5 c 128,-1,72
 165 480 165 480 148 432 c 1,73,74
 154 439 154 439 183 485 c 128,-1,75
 212 531 212 531 217.5 539 c 128,-1,76
 223 547 223 547 239 575 c 0,77,78
 324 728 324 728 348 728 c 1,0,-1
EndSplineSet
Validated: 19489
EndChar

StartChar: macron
Encoding: 131 175 131
Width: 932
VWidth: 0
Flags: HW
HStem: 864 46<60.394 536.38> 880 56<530.864 863.195>
LayerCount: 2
Back
SplineSet
1037 880 m 0
 786 875 686 856 563 856 c 0
 421 856 360 858 336 861 c 0
 314 864 280 874 280 896 c 0
 280 902 282 907 301 909 c 1
 602 923 l 2
 754 930 888 937 1054 936 c 0
 1077 936 1090 906 1090 893 c 0
 1090 882 1056 880 1037 880 c 0
EndSplineSet
Fore
SplineSet
831 936 m 2,0,1
 860 936 860 936 867 893 c 1,2,3
 866 880 866 880 814 880 c 1,4,-1
 340 856 l 1,5,6
 153 856 153 856 106.5 863.5 c 128,-1,7
 60 871 60 871 57 896 c 1,8,9
 57 906 57 906 75 910 c 1,10,11
 78 910 l 1,12,-1
 379 923 l 2,13,14
 664 936 664 936 742 936 c 2,15,16
 831 936 l 2,0,1
EndSplineSet
Validated: 19457
EndChar

StartChar: mu
Encoding: 132 181 132
AltUni2: 0003bc.ffffffff.0 0003bc.ffffffff.0 0003bc.ffffffff.0 0003bc.ffffffff.0 0003bc.ffffffff.0 0003bc.ffffffff.0
Width: 700
VWidth: 0
Flags: HMW
HStem: -291 9<-226.428 -212.428> -10 63<486.46 559.335> 830 20G<358.073 374.627 595.373 621.985>
VStem: 308 117<676.8 846.527> 399 87<53.7484 353.945> 558 102<688.533 799.707> 868 11<430 446>
DStem2: -28.1363 8.29876 128.572 139 0.409035 0.912519<-225.834 183.367 786.506 911.914>
LayerCount: 2
Back
SplineSet
21 139 m 1
 -74 -67 -91 -106 -134 -163 c 0
 -168 -208 -267 -291 -320 -291 c 0
 -328 -291 -334 -288 -334 -282 c 1
 -331 -272 -318 -258 -306 -245 c 0
 -187 -120 -104 42 186 726 c 1
 208 782 223 850 253 850 c 0
 275 850 317 830 317 805 c 0
 317 792 309 774 301 750 c 0
 235 557 142 309 114 139 c 1
 229 314 327 541 435 741 c 0
 457 782 458 818 491 818 c 0
 518 818 552 818 552 781 c 0
 552 757 540 738 523 693 c 0
 485 594 452 486 413 333 c 0
 392 252 378 178 378 104 c 0
 378 69 381 53 392 53 c 0
 454 53 651 278 718 405 c 0
 734 435 750 446 760 446 c 0
 766 446 771 440 771 430 c 0
 771 309 544 59 448 8 c 0
 431 -1 411 -10 381 -10 c 0
 310 -10 291 59 291 138 c 0
 291 229 323 309 333 355 c 1
 272 221 162 -21 51 -21 c 0
 22 -21 11 5 11 51 c 0
 11 74 14 102 21 139 c 1
EndSplineSet
Fore
SplineSet
129 139 m 1,0,1
 28 -80 28 -80 8.5 -111.5 c 128,-1,2
 -11 -143 -11 -143 -37 -177 c 128,-1,3
 -63 -211 -63 -211 -122.5 -250.5 c 128,-1,4
 -182 -290 -182 -290 -203.5 -290 c 128,-1,5
 -225 -290 -225 -290 -226 -282 c 1,6,7
 -223 -272 -223 -272 -199 -245 c 1,8,9
 -113 -155 -113 -155 -22.5 19 c 128,-1,10
 68 193 68 193 183.5 466 c 128,-1,11
 299 739 299 739 316 788 c 128,-1,12
 333 837 333 837 344.5 843.5 c 128,-1,13
 356 850 356 850 372.5 850 c 128,-1,14
 389 850 389 850 406.5 833 c 128,-1,15
 424 816 424 816 424 806 c 0,16,17
 426 796 426 796 412 756 c 2,18,-1
 373 647 l 2,19,20
 239 263 239 263 222 139 c 1,21,22
 296 252 296 252 400.5 461.5 c 128,-1,23
 505 671 505 671 527 712 c 128,-1,24
 549 753 549 753 560.5 782 c 128,-1,25
 572 811 572 811 582 814.5 c 128,-1,26
 592 818 592 818 619 818 c 0,27,28
 657 818 657 818 660 781 c 1,29,30
 660 765 660 765 647 734 c 0,31,32
 588 592 588 592 537 395 c 128,-1,33
 486 198 486 198 486.5 126 c 128,-1,34
 487 54 487 54 500 53 c 1,35,36
 544 53 544 53 658.5 178.5 c 128,-1,37
 773 304 773 304 826 405 c 0,38,39
 848 445 848 445 868 446 c 1,40,41
 878 444 878 444 879 430 c 1,42,43
 879 346 879 346 767.5 211 c 128,-1,44
 656 76 656 76 576 21 c 1,45,-1
 556 8 l 1,46,47
 521 -10 521 -10 489 -10 c 0,48,49
 399 -8 399 -8 399 138 c 0,50,51
 398 204 398 204 418 274 c 2,52,-1
 441 355 l 1,53,54
 343 140 343 140 277.5 59.5 c 128,-1,55
 212 -21 212 -21 159 -21 c 1,56,57
 119 -19 119 -19 119 51 c 0,58,59
 119 87 119 87 129 139 c 1,0,1
EndSplineSet
Validated: 8391713
EndChar

StartChar: multiply
Encoding: 133 215 133
Width: 887
VWidth: 0
Flags: HMW
HStem: 174 7<584.077 596.165> 240 22<225.077 268.077> 798 64G<357.378 365.077 650.001 667.147>
VStem: 225 488
DStem2: 389.077 835 413.077 526 0.385965 -0.922514<-15.5339 236.08 411.941 645.925> 482.077 618 694.077 746 0.604257 0.79679<4.00732 263.126>
LayerCount: 2
Back
SplineSet
451 826 m 1
 484 737 514 671 540 618 c 1
 603 701 648 755 698 813 c 0
 701 816 706 818 712 818 c 0
 728 818 771 805 771 784 c 0
 771 771 760 754 752 746 c 1
 673 647 627 577 589 518 c 1
 602 490 614 463 624 434 c 0
 669 306 686 245 686 234 c 0
 686 208 650 174 642 174 c 0
 635 174 630 178 626 187 c 2
 520 419 l 1
 501 397 l 2
 371 246 362 240 326 240 c 0
 306 240 283 246 283 262 c 0
 283 266 285 270 290 275 c 1
 364 379 422 460 471 526 c 1
 404 673 362 776 362 818 c 0
 362 838 405 862 419 862 c 0
 437 862 451 826 451 826 c 1
EndSplineSet
Fore
SplineSet
361 862 m 0,0,1
 377 862 377 862 393 826 c 1,2,3
 434 717 434 717 482 618 c 1,4,5
 557 717 557 717 640 813 c 1,6,7
 646 818 646 818 663 818 c 128,-1,8
 680 818 680 818 696 805.5 c 128,-1,9
 712 793 712 793 712 779 c 128,-1,10
 712 765 712 765 661 702.5 c 128,-1,11
 610 640 610 640 531 518 c 1,12,13
 555 467 555 467 591.5 363 c 128,-1,14
 628 259 628 259 628 233.5 c 128,-1,15
 628 208 628 208 607.5 191 c 128,-1,16
 587 174 587 174 580.5 175 c 128,-1,17
 574 176 574 176 568 187 c 2,18,-1
 462 419 l 1,19,-1
 443 397 l 2,20,21
 333 269 333 269 311 254.5 c 128,-1,22
 289 240 289 240 257.5 240.5 c 128,-1,23
 226 241 226 241 225 262 c 1,24,25
 226 269 226 269 232 275 c 1,26,-1
 413 526 l 1,27,28
 304 765 304 765 304 818 c 0,29,30
 304 837 304 837 329 849.5 c 128,-1,31
 354 862 354 862 361 862 c 0,0,1
EndSplineSet
Validated: 19457
EndChar

StartChar: n
Encoding: 134 110 134
Width: 634
VWidth: 0
Flags: HMW
HStem: -29 66<398.601 482.656> 374 32<775 804> 766 20G<461.483 491.546>
VStem: 300 94<37.1592 453.719> 324 86<834.613 935.852> 775 29<374 406>
DStem2: -46.9999 40 108.497 160.828 0.381615 0.924321<-10.608 599.886 675.802 724.128 815.807 970.817>
LayerCount: 2
Back
SplineSet
510 16 m 1
 472 -13 432 -29 394 -29 c 0
 306 -29 288 62 288 139 c 0
 288 243 341 493 354 570 c 1
 170 509 88 64 22 -6 c 1
 13 -18 -16 -29 -38 -29 c 0
 -62 -29 -69 -16 -69 -2 c 0
 -69 14 -64 26 -59 40 c 0
 -13 174 288 882 312 930 c 0
 315 938 323 941 330 941 c 0
 346 941 398 922 398 902 c 0
 398 884 372 852 365 838 c 0
 311 729 316 728 278 632 c 1
 306 664 336 707 381 754 c 0
 402 776 413 786 459 786 c 0
 490 786 502 766 502 742 c 0
 502 708 479 675 470 645 c 0
 425 502 382 249 382 107 c 0
 382 59 394 37 413 37 c 0
 469 37 662 272 726 384 c 0
 732 395 741 406 763 406 c 0
 784 406 792 389 792 374 c 0
 792 307 581 67 510 16 c 1
EndSplineSet
Fore
SplineSet
804 374 m 1,0,1
 804 324 804 324 690 190 c 128,-1,2
 576 56 576 56 519.5 13.5 c 128,-1,3
 463 -29 463 -29 406 -29 c 0,4,5
 300 -28 300 -28 300 139 c 0,6,7
 300 218 300 218 332 386.5 c 128,-1,8
 364 555 364 555 366 570 c 1,9,10
 260 535 260 535 163 304 c 0,11,12
 143 255 143 255 99 137 c 0,13,14
 56 20 56 20 38 -2 c 0,15,16
 16 -28 16 -28 -20 -28 c 128,-1,17
 -56 -28 -56 -28 -57 -2 c 1,18,19
 -57 46 -57 46 264 794 c 0,20,21
 314 912 314 912 322 926 c 0,22,23
 339 959 339 959 393 923 c 0,24,25
 409 912 409 912 409.5 901 c 128,-1,26
 410 890 410 890 394 866 c 0,27,28
 357 808 357 808 328 731 c 2,29,-1
 290 632 l 1,30,-1
 322 671 l 2,31,32
 365 724 365 724 391 751.5 c 128,-1,33
 417 779 417 779 434.5 782.5 c 128,-1,34
 452 786 452 786 471 786 c 1,35,36
 512 783 512 783 514 742 c 1,37,38
 514 722 514 722 500 688 c 0,39,40
 437 543 437 543 403 249 c 0,41,42
 394 165 394 165 394.5 101.5 c 128,-1,43
 395 38 395 38 425 37 c 1,44,45
 467 37 467 37 578 167.5 c 128,-1,46
 689 298 689 298 738 384 c 0,47,48
 751 405 751 405 775 406 c 1,49,50
 800 400 800 400 804 374 c 1,0,1
EndSplineSet
Validated: 8391713
EndChar

StartChar: nine
Encoding: 135 57 135
Width: 612
VWidth: 0
Flags: HMW
HStem: -64 26<68.2272 99.5495> 718 74<189.594 324.587> 1053 89<316.837 498.562>
VStem: 99 91<792.051 923.665> 205 63<965.657 1035.19> 286 0<54 240.293> 402 181<874.212 959.672> 421 23<348.728 712> 500 85<921.507 1050.41>
LayerCount: 2
Back
SplineSet
190 792 m 0
 181 792 173 797 173 806 c 0
 178 918 309 1053 421 1053 c 0
 456 1053 483 1038 483 998 c 0
 483 914 279 792 190 792 c 0
440 755 m 0
 437 741 431 728 427 712 c 0
 362 483 253 92 83 -38 c 0
 66 -51 51 -60 51 -66 c 0
 51 -69 59 -72 80 -72 c 0
 150 -72 230 -5 270 54 c 0
 334 147 568 710 568 1003 c 0
 568 1096 496 1142 418 1142 c 0
 229 1142 82 950 82 782 c 0
 82 746 109 718 178 718 c 0
 270 718 390 803 432 803 c 0
 443 803 448 797 448 787 c 0
 448 776 442 762 440 755 c 0
EndSplineSet
Fore
SplineSet
190 806 m 1,0,1
 191 794 191 794 204.5 793 c 128,-1,2
 218 792 218 792 232 795 c 0,3,4
 311 810 311 810 405 876.5 c 128,-1,5
 499 943 499 943 500 998 c 1,6,7
 499 1051 499 1051 438 1053 c 1,8,9
 352 1053 352 1053 272.5 970 c 128,-1,10
 193 887 193 887 190 806 c 1,0,1
195 718 m 0,11,12
 99 718 99 718 99 782 c 0,13,14
 99 923 99 923 202 1032.5 c 128,-1,15
 305 1142 305 1142 435 1142 c 0,16,17
 476 1142 476 1142 509 1126 c 0,18,19
 584 1090 584 1090 585 1003 c 1,20,21
 585 774 585 774 421 349 c 0,22,23
 334 124 334 124 302 76 c 0,24,25
 202 -72 202 -72 97 -72 c 0,26,27
 70 -72 70 -72 69.5 -68 c 128,-1,28
 69 -64 69 -64 68 -64 c 1,29,30
 77 -60 77 -60 100 -38 c 0,31,32
 215 77 215 77 284 235 c 128,-1,33
 353 393 353 393 444 712 c 2,34,-1
 450 733 l 2,35,36
 455 748 455 748 460 764.5 c 128,-1,37
 465 781 465 781 464.5 791 c 128,-1,38
 464 801 464 801 448 802 c 128,-1,39
 432 803 432 803 340.5 760.5 c 128,-1,40
 249 718 249 718 195 718 c 0,11,12
EndSplineSet
Validated: 8408097
EndChar

